<svg xmlns="http://www.w3.org/2000/svg" width="623" height="305" viewBox="0 0 623 305">
  <g id="Group_426" data-name="Group 426" transform="translate(-3033 2323)">
    <g id="Group_289" data-name="Group 289" transform="translate(0 -336)">
      <g id="design-creative-desktop.109353b" transform="translate(3033 -1986.872)">
        <rect id="Rectangle_123" data-name="Rectangle 123" width="623" height="305" transform="translate(0 -0.128)" fill="#f6f2ea"/>
      </g>
    </g>
    <g id="admin-support-desktop.ff2e0d4" transform="translate(3034 -2322.872)">
      <g id="Group_287" data-name="Group 287" transform="translate(178.946 94.356)">
        <path id="Path_2104" data-name="Path 2104" d="M342.661,186.817H83.011A2.01,2.01,0,0,1,81,184.741V42.71h263.67V184.741a2.01,2.01,0,0,1-2.01,2.01" transform="translate(-81 -42.71)" fill="#ffdab2" fill-rule="evenodd"/>
      </g>
      <g id="Group_288" data-name="Group 288" transform="translate(178.947 68.287)">
        <path id="Path_2105" data-name="Path 2105" d="M344.67,57.421H81V32.9a1.988,1.988,0,0,1,2.01-1.988H342.66a1.988,1.988,0,0,1,2.01,1.988Z" transform="translate(-81 -30.91)" fill="#ffb054" fill-rule="evenodd"/>
      </g>
      <path id="Path_2106" data-name="Path 2106" d="M91.469,38.557a2.717,2.717,0,1,1-.8-1.929,2.739,2.739,0,0,1,.8,1.929" transform="translate(103.981 43.338)" fill="#fff" fill-rule="evenodd"/>
      <path id="Path_2107" data-name="Path 2107" d="M97.669,38.557a2.717,2.717,0,1,1-.8-1.929,2.739,2.739,0,0,1,.8,1.929" transform="translate(111.478 43.338)" fill="#fff" fill-rule="evenodd"/>
      <path id="Path_2108" data-name="Path 2108" d="M103.879,38.557a2.739,2.739,0,1,1-2.739-2.717,2.739,2.739,0,0,1,2.739,2.717" transform="translate(118.987 43.338)" fill="#fff" fill-rule="evenodd"/>
      <path id="Path_2109" data-name="Path 2109" d="M149.539,112.585a17.276,17.276,0,1,1,17.3-17.276,17.276,17.276,0,0,1-17.3,17.276Zm43.389-29.913a1.281,1.281,0,0,0-1.392-1.1l-7.931.884a1.215,1.215,0,0,1-.95-.707,36.251,36.251,0,0,0-3.181-6.009,1.237,1.237,0,0,1,0-1.458l4.661-5.633a1.237,1.237,0,0,0-.155-1.745L171.1,56.206a1.237,1.237,0,0,0-1.745.155l-4.706,5.611a1.237,1.237,0,0,1-1.348.331,34.573,34.573,0,0,0-6.5-2.01,1.259,1.259,0,0,1-.994-1.1l-.663-7.268a1.237,1.237,0,0,0-1.348-1.127l-16.7,1.524a1.259,1.259,0,0,0-1.127,1.37l.663,7.246a1.237,1.237,0,0,1-.773,1.259,37.888,37.888,0,0,0-6.009,3.159,1.237,1.237,0,0,1-1.48,0l-5.611-4.684a1.259,1.259,0,0,0-1.767.155L110.281,73.658a1.237,1.237,0,0,0,.177,1.745l5.633,4.573a1.215,1.215,0,0,1,.331,1.436,36.053,36.053,0,0,0-2.01,6.473,1.193,1.193,0,0,1-.4.663l-8.616.95a1.259,1.259,0,0,0-1.1,1.392l1.856,16.878a1.237,1.237,0,0,0,1.37,1.1l7.666-.839a1.259,1.259,0,0,1,1.149.751,34.573,34.573,0,0,0,3.159,6.009,1.237,1.237,0,0,1,0,1.458l-4.794,5.7a1.259,1.259,0,0,0,.155,1.767l12.88,10.693a1.237,1.237,0,0,0,1.767-.177l4.728-5.656a1.215,1.215,0,0,1,1.436-.331,36.055,36.055,0,0,0,6.473,2.01,1.237,1.237,0,0,1,.994,1.1l.663,7.268a1.259,1.259,0,0,0,1.37,1.127l16.68-1.524a1.259,1.259,0,0,0,1.149-1.37l-.685-7.268a1.259,1.259,0,0,1,.773-1.259,34.572,34.572,0,0,0,6.009-3.159,1.259,1.259,0,0,1,1.48,0l5.634,4.661a1.259,1.259,0,0,0,1.767-.155l10.715-12.858a1.237,1.237,0,0,0-.177-1.745L182.9,110.4a1.171,1.171,0,0,1-.354-1.414,34.083,34.083,0,0,0,2.01-6.5,1.326,1.326,0,0,1,.574-.751l8.55-.928a1.259,1.259,0,0,0,1.1-1.37Z" transform="translate(126.105 61.413)" fill="#f80" fill-rule="evenodd"/>
      <path id="Path_2110" data-name="Path 2110" d="M178.538,116.867a13.123,13.123,0,1,1,9.365-3.8,13.123,13.123,0,0,1-9.365,3.8Zm32.984-22.711a.928.928,0,0,0-1.038-.84l-6.053.663a.906.906,0,0,1-.707-.552,28.871,28.871,0,0,0-2.474-4.551.928.928,0,0,1,0-1.127l3.557-4.264a.95.95,0,0,0,0-1.348l-9.787-8.108a.95.95,0,0,0-1.348.133L190.2,78.426a.906.906,0,0,1-1.083.243,27.308,27.308,0,0,0-4.949-1.524.972.972,0,0,1-.751-.839l-.486-5.523a.994.994,0,0,0-1.038-.862l-12.7,1.171a.972.972,0,0,0-.862,1.038l.53,5.523a.994.994,0,0,1-.6.95,26.513,26.513,0,0,0-4.573,2.408.972.972,0,0,1-1.127,0L158.3,77.454a.95.95,0,0,0-1.348.133L148.8,87.352a.95.95,0,0,0,.133,1.348l4.264,3.535a.928.928,0,0,1,.265,1.083,27.08,27.08,0,0,0-1.524,4.927,1.06,1.06,0,0,1-.287.508l-6.628.729a.95.95,0,0,0-.862,1.038l1.436,12.836a.906.906,0,0,0,1.038.839l5.81-.641a.972.972,0,0,1,.884.574,26.511,26.511,0,0,0,2.386,4.573.928.928,0,0,1,0,1.1l-3.557,4.264a.95.95,0,0,0,.133,1.348l9.787,8.13a.95.95,0,0,0,1.326-.133l3.557-4.264a.95.95,0,0,1,1.1-.265,26.511,26.511,0,0,0,4.927,1.546.884.884,0,0,1,.751.817l.508,5.523a.95.95,0,0,0,1.038.862l12.7-1.259a.972.972,0,0,0,.862-1.038l-.508-5.523a.906.906,0,0,1,.6-.95,28.143,28.143,0,0,0,4.573-2.408.928.928,0,0,1,1.1,0l4.286,3.557a.972.972,0,0,0,1.348,0l8.13-9.765a.95.95,0,0,0-.11-1.348l-4.286-3.557a.95.95,0,0,1-.265-1.083,26.51,26.51,0,0,0,1.546-4.927.928.928,0,0,1,.42-.574l6.5-.707a.95.95,0,0,0,.839-1.038Z" transform="translate(174.319 84.548)" fill="#f6f2ea" fill-rule="evenodd"/>
    </g>
  </g>
</svg>
