<svg xmlns="http://www.w3.org/2000/svg" width="623" height="305" viewBox="0 0 623 305">
  <g id="Group_428" data-name="Group 428" transform="translate(-3033 2995)">
    <g id="Group_348" data-name="Group 348" transform="translate(0 -672)">
      <g id="Group_289" data-name="Group 289" transform="translate(0 -336)">
        <g id="design-creative-desktop.109353b" transform="translate(3033 -1986.872)">
          <rect id="Rectangle_123" data-name="Rectangle 123" width="623" height="305" transform="translate(0 -0.128)" fill="#f6f2ea"/>
        </g>
      </g>
    </g>
    <g id="data-science-desktop.b430512" transform="translate(3034 -2994.872)">
      <g id="Group_346" data-name="Group 346" transform="translate(181.153 94.002)">
        <path id="Path_2768" data-name="Path 2768" d="M339.287,184.8H83.968A1.966,1.966,0,0,1,82,182.725V42.55H341.276V182.725a1.988,1.988,0,0,1-1.988,1.988" transform="translate(-81.999 -42.55)" fill="#ffdab2" fill-rule="evenodd"/>
      </g>
      <g id="Group_347" data-name="Group 347" transform="translate(181.156 68.154)">
        <path id="Path_2769" data-name="Path 2769" d="M341.274,57.118H82v-24.3a1.966,1.966,0,0,1,1.966-1.966h255.32a1.966,1.966,0,0,1,1.988,1.966Z" transform="translate(-82 -30.85)" fill="#ffb054" fill-rule="evenodd"/>
      </g>
      <path id="Path_2770" data-name="Path 2770" d="M92.3,38.475a2.7,2.7,0,1,1-2.7-2.7,2.7,2.7,0,0,1,2.7,2.7" transform="translate(105.093 43.266)" fill="#fff" fill-rule="evenodd"/>
      <path id="Path_2771" data-name="Path 2771" d="M98.4,38.475a2.7,2.7,0,1,1-2.7-2.7,2.7,2.7,0,0,1,2.7,2.7" transform="translate(112.47 43.266)" fill="#fff" fill-rule="evenodd"/>
      <path id="Path_2772" data-name="Path 2772" d="M104.5,38.475a2.7,2.7,0,1,1-2.7-2.7,2.7,2.7,0,0,1,2.7,2.7" transform="translate(119.846 43.266)" fill="#fff" fill-rule="evenodd"/>
      <path id="Path_2773" data-name="Path 2773" d="M115.691,116.28a1.37,1.37,0,0,1-.972-2.209L155.369,72.1a1.37,1.37,0,0,1,1.7-.221L193.743,94.85l35.834-35.635a1.37,1.37,0,0,1,1.922,0,1.392,1.392,0,0,1,0,1.944L194.958,97.435a1.37,1.37,0,0,1-1.679.177L156.628,74.68l-39.9,41.18a1.392,1.392,0,0,1-.972.42" transform="translate(138.369 71.128)" fill="#fff" fill-rule="evenodd"/>
      <path id="Path_2774" data-name="Path 2774" d="M162.58,64.627a8.263,8.263,0,1,1,2.428,5.85,8.285,8.285,0,0,1-2.428-5.85" transform="translate(196.595 68.103)" fill="#f80" fill-rule="evenodd"/>
      <path id="Path_2775" data-name="Path 2775" d="M146.14,79.585a8.262,8.262,0,1,1,2.412,5.857,8.285,8.285,0,0,1-2.412-5.857" transform="translate(176.715 86.217)" fill="#f80" fill-rule="evenodd"/>
      <path id="Path_2776" data-name="Path 2776" d="M129.69,70.255a8.285,8.285,0,1,1,8.263,8.285,8.285,8.285,0,0,1-8.263-8.285" transform="translate(156.824 74.935)" fill="#f80" fill-rule="evenodd"/>
      <path id="Path_3124" data-name="Path 3124" d="M129.69,70.255a8.285,8.285,0,1,1,8.263,8.285,8.285,8.285,0,0,1-8.263-8.285" transform="translate(115.824 115.935)" fill="#f80" fill-rule="evenodd"/>
    </g>
  </g>
</svg>
