<svg xmlns="http://www.w3.org/2000/svg" width="623" height="305" viewBox="0 0 623 305">
  <g id="Group_352" data-name="Group 352" transform="translate(-3033 2995)">
    <g id="Group_348" data-name="Group 348" transform="translate(0 -672)">
      <g id="Group_289" data-name="Group 289" transform="translate(0 -336)">
        <g id="design-creative-desktop.109353b" transform="translate(3033 -1986.872)">
          <rect id="Rectangle_123" data-name="Rectangle 123" width="623" height="305" transform="translate(0 -0.128)" fill="#f6f2ea"/>
          <g id="Group_165" data-name="Group 165" transform="translate(7.114 11.719)">
            <g id="Group_140" data-name="Group 140" transform="translate(0.133 0.189)">
              <path id="Path_441" data-name="Path 441" d="M6.373,7a1.613,1.613,0,0,1-1.5,1.591A1.591,1.591,0,0,1,3.28,7a1.6,1.6,0,1,1,3.2,0" transform="translate(-3.28 -5.39)" fill="#ffb054" fill-rule="evenodd"/>
            </g>
            <g id="Group_141" data-name="Group 141" transform="translate(25.218 0)">
              <path id="Path_442" data-name="Path 442" d="M17.849,7.106a1.613,1.613,0,1,1-.741-1.553,1.613,1.613,0,0,1,.741,1.553" transform="translate(-14.635 -5.305)" fill="#ffb054" fill-rule="evenodd"/>
            </g>
            <g id="Group_142" data-name="Group 142" transform="translate(50.436 0.189)">
              <path id="Path_443" data-name="Path 443" d="M29.253,7a1.591,1.591,0,0,1-1.591,1.591A1.6,1.6,0,1,1,29.253,7" transform="translate(-26.05 -5.39)" fill="#ffb054" fill-rule="evenodd"/>
            </g>
            <g id="Group_143" data-name="Group 143" transform="translate(75.644 0.189)">
              <path id="Path_444" data-name="Path 444" d="M40.663,7a1.591,1.591,0,0,1-1.591,1.591A1.6,1.6,0,1,1,40.663,7" transform="translate(-37.46 -5.39)" fill="#ffb054" fill-rule="evenodd"/>
            </g>
            <g id="Group_144" data-name="Group 144" transform="translate(100.873 0.189)">
              <path id="Path_445" data-name="Path 445" d="M52.083,7a1.613,1.613,0,0,1-1.613,1.591A1.591,1.591,0,0,1,48.88,7a1.6,1.6,0,1,1,3.2,0" transform="translate(-48.88 -5.39)" fill="#ffb054" fill-rule="evenodd"/>
            </g>
            <g id="Group_145" data-name="Group 145" transform="translate(126.08 0.189)">
              <path id="Path_446" data-name="Path 446" d="M63.493,7a1.613,1.613,0,0,1-1.613,1.591A1.591,1.591,0,0,1,60.29,7a1.591,1.591,0,1,1,3.181,0" transform="translate(-60.29 -5.39)" fill="#ffb054" fill-rule="evenodd"/>
            </g>
            <g id="Group_146" data-name="Group 146" transform="translate(151.287 0.189)">
              <path id="Path_447" data-name="Path 447" d="M74.9,7a1.613,1.613,0,0,1-1.613,1.591A1.591,1.591,0,0,1,71.7,7a1.6,1.6,0,1,1,3.2,0" transform="translate(-71.7 -5.39)" fill="#ffb054" fill-rule="evenodd"/>
            </g>
            <g id="Group_147" data-name="Group 147" transform="translate(176.484)">
              <path id="Path_448" data-name="Path 448" d="M86.319,7.106a1.613,1.613,0,1,1-.741-1.553,1.613,1.613,0,0,1,.741,1.553" transform="translate(-83.105 -5.305)" fill="#ffb054" fill-rule="evenodd"/>
            </g>
            <g id="Group_148" data-name="Group 148" transform="translate(201.768 0.189)">
              <path id="Path_449" data-name="Path 449" d="M97.753,7a1.591,1.591,0,0,1-1.591,1.591A1.6,1.6,0,1,1,97.753,7" transform="translate(-94.55 -5.39)" fill="#ffb054" fill-rule="evenodd"/>
            </g>
            <g id="Group_149" data-name="Group 149" transform="translate(226.909 0.189)">
              <path id="Path_450" data-name="Path 450" d="M109.133,7a1.591,1.591,0,0,1-1.591,1.591A1.6,1.6,0,1,1,109.133,7" transform="translate(-105.93 -5.39)" fill="#ffb054" fill-rule="evenodd"/>
            </g>
            <g id="Group_150" data-name="Group 150" transform="translate(252.138 0.189)">
              <path id="Path_451" data-name="Path 451" d="M120.553,7a1.613,1.613,0,0,1-1.613,1.591A1.591,1.591,0,0,1,117.35,7a1.6,1.6,0,1,1,3.2,0" transform="translate(-117.35 -5.39)" fill="#ffb054" fill-rule="evenodd"/>
            </g>
            <g id="Group_151" data-name="Group 151" transform="translate(277.345 0.189)">
              <path id="Path_452" data-name="Path 452" d="M131.963,7a1.613,1.613,0,0,1-1.613,1.591A1.591,1.591,0,0,1,128.76,7a1.6,1.6,0,1,1,3.2,0" transform="translate(-128.76 -5.39)" fill="#ffb054" fill-rule="evenodd"/>
            </g>
            <g id="Group_152" data-name="Group 152" transform="translate(302.553 0.189)">
              <path id="Path_453" data-name="Path 453" d="M143.373,7a1.613,1.613,0,0,1-1.613,1.591A1.591,1.591,0,0,1,140.17,7a1.6,1.6,0,1,1,3.2,0" transform="translate(-140.17 -5.39)" fill="#ffb054" fill-rule="evenodd"/>
            </g>
            <g id="Group_153" data-name="Group 153" transform="translate(327.682 0)">
              <path id="Path_454" data-name="Path 454" d="M154.759,7.106a1.613,1.613,0,1,1-.741-1.553,1.613,1.613,0,0,1,.741,1.553" transform="translate(-151.545 -5.305)" fill="#ffb054" fill-rule="evenodd"/>
            </g>
            <g id="Group_154" data-name="Group 154" transform="translate(352.967 0.189)">
              <path id="Path_455" data-name="Path 455" d="M166.193,7A1.591,1.591,0,0,1,164.6,8.593,1.6,1.6,0,1,1,166.193,7" transform="translate(-162.99 -5.39)" fill="#ffb054" fill-rule="evenodd"/>
            </g>
            <g id="Group_155" data-name="Group 155" transform="translate(378.174 0.189)">
              <path id="Path_456" data-name="Path 456" d="M177.6,7a1.591,1.591,0,0,1-1.591,1.591A1.6,1.6,0,1,1,177.6,7" transform="translate(-174.4 -5.39)" fill="#ffb054" fill-rule="evenodd"/>
            </g>
            <g id="Group_156" data-name="Group 156" transform="translate(403.404 0.189)">
              <path id="Path_457" data-name="Path 457" d="M189.023,7a1.613,1.613,0,0,1-1.613,1.591A1.591,1.591,0,0,1,185.82,7a1.6,1.6,0,1,1,3.2,0" transform="translate(-185.82 -5.39)" fill="#ffb054" fill-rule="evenodd"/>
            </g>
            <g id="Group_157" data-name="Group 157" transform="translate(428.611 0.189)">
              <path id="Path_458" data-name="Path 458" d="M200.433,7a1.613,1.613,0,0,1-1.613,1.591A1.591,1.591,0,0,1,197.23,7a1.6,1.6,0,1,1,3.2,0" transform="translate(-197.23 -5.39)" fill="#ffb054" fill-rule="evenodd"/>
            </g>
            <g id="Group_158" data-name="Group 158" transform="translate(453.818 0.189)">
              <path id="Path_459" data-name="Path 459" d="M211.843,7a1.613,1.613,0,0,1-1.613,1.591A1.591,1.591,0,0,1,208.64,7a1.6,1.6,0,1,1,3.2,0" transform="translate(-208.64 -5.39)" fill="#ffb054" fill-rule="evenodd"/>
            </g>
            <g id="Group_159" data-name="Group 159" transform="translate(479.003 0.189)">
              <path id="Path_460" data-name="Path 460" d="M223.265,7a1.613,1.613,0,1,1-1.613-1.613A1.613,1.613,0,0,1,223.265,7" transform="translate(-220.04 -5.39)" fill="#ffb054" fill-rule="evenodd"/>
            </g>
            <path id="Path_461" data-name="Path 461" d="M6.445,17.373A1.613,1.613,0,1,1,4.833,15.76a1.613,1.613,0,0,1,1.613,1.613" transform="translate(-3.22 7.338)" fill="#ffb054" fill-rule="evenodd"/>
            <path id="Path_462" data-name="Path 462" d="M17.855,17.373a1.613,1.613,0,1,1-1.591-1.613,1.613,1.613,0,0,1,1.591,1.613" transform="translate(10.577 7.338)" fill="#ffb054" fill-rule="evenodd"/>
            <path id="Path_463" data-name="Path 463" d="M29.253,17.373a1.6,1.6,0,1,1-1.591-1.613,1.613,1.613,0,0,1,1.591,1.613" transform="translate(24.386 7.338)" fill="#ffb054" fill-rule="evenodd"/>
            <path id="Path_464" data-name="Path 464" d="M40.663,17.373a1.6,1.6,0,1,1-1.591-1.613,1.613,1.613,0,0,1,1.591,1.613" transform="translate(38.184 7.338)" fill="#ffb054" fill-rule="evenodd"/>
            <path id="Path_465" data-name="Path 465" d="M52.1,17.373a1.613,1.613,0,1,1-1.613-1.613A1.613,1.613,0,0,1,52.1,17.373" transform="translate(51.981 7.338)" fill="#ffb054" fill-rule="evenodd"/>
            <path id="Path_466" data-name="Path 466" d="M63.505,17.373a1.613,1.613,0,1,1-1.613-1.613,1.613,1.613,0,0,1,1.613,1.613" transform="translate(65.778 7.338)" fill="#ffb054" fill-rule="evenodd"/>
            <path id="Path_467" data-name="Path 467" d="M74.915,17.373A1.613,1.613,0,1,1,73.3,15.76a1.613,1.613,0,0,1,1.613,1.613" transform="translate(79.575 7.338)" fill="#ffb054" fill-rule="evenodd"/>
            <path id="Path_468" data-name="Path 468" d="M86.325,17.373a1.613,1.613,0,1,1-1.591-1.613,1.613,1.613,0,0,1,1.591,1.613" transform="translate(93.372 7.338)" fill="#ffb054" fill-rule="evenodd"/>
            <path id="Path_469" data-name="Path 469" d="M97.753,17.373a1.6,1.6,0,1,1-1.591-1.613,1.613,1.613,0,0,1,1.591,1.613" transform="translate(107.218 7.338)" fill="#ffb054" fill-rule="evenodd"/>
            <path id="Path_470" data-name="Path 470" d="M109.133,17.373a1.6,1.6,0,1,1-1.591-1.613,1.613,1.613,0,0,1,1.591,1.613" transform="translate(120.979 7.338)" fill="#ffb054" fill-rule="evenodd"/>
            <path id="Path_471" data-name="Path 471" d="M120.565,17.373a1.613,1.613,0,1,1-1.613-1.613,1.613,1.613,0,0,1,1.613,1.613" transform="translate(134.776 7.338)" fill="#ffb054" fill-rule="evenodd"/>
            <path id="Path_472" data-name="Path 472" d="M131.975,17.373a1.613,1.613,0,1,1-1.613-1.613,1.613,1.613,0,0,1,1.613,1.613" transform="translate(148.573 7.338)" fill="#ffb054" fill-rule="evenodd"/>
            <path id="Path_473" data-name="Path 473" d="M143.385,17.373a1.613,1.613,0,1,1-1.613-1.613,1.613,1.613,0,0,1,1.613,1.613" transform="translate(162.371 7.338)" fill="#ffb054" fill-rule="evenodd"/>
            <path id="Path_474" data-name="Path 474" d="M154.766,17.373a1.613,1.613,0,1,1-1.591-1.613,1.613,1.613,0,0,1,1.591,1.613" transform="translate(176.131 7.338)" fill="#ffb054" fill-rule="evenodd"/>
            <path id="Path_475" data-name="Path 475" d="M166.193,17.373A1.6,1.6,0,1,1,164.6,15.76a1.613,1.613,0,0,1,1.591,1.613" transform="translate(189.977 7.338)" fill="#ffb054" fill-rule="evenodd"/>
            <path id="Path_476" data-name="Path 476" d="M177.6,17.373a1.6,1.6,0,1,1-1.591-1.613,1.613,1.613,0,0,1,1.591,1.613" transform="translate(203.774 7.338)" fill="#ffb054" fill-rule="evenodd"/>
            <path id="Path_477" data-name="Path 477" d="M189.035,17.373a1.613,1.613,0,1,1-1.613-1.613,1.613,1.613,0,0,1,1.613,1.613" transform="translate(217.571 7.338)" fill="#ffb054" fill-rule="evenodd"/>
            <path id="Path_478" data-name="Path 478" d="M200.445,17.373a1.613,1.613,0,1,1-1.613-1.613,1.613,1.613,0,0,1,1.613,1.613" transform="translate(231.369 7.338)" fill="#ffb054" fill-rule="evenodd"/>
            <path id="Path_479" data-name="Path 479" d="M211.855,17.373a1.613,1.613,0,1,1-1.613-1.613,1.613,1.613,0,0,1,1.613,1.613" transform="translate(245.166 7.338)" fill="#ffb054" fill-rule="evenodd"/>
            <path id="Path_480" data-name="Path 480" d="M223.265,17.373a1.613,1.613,0,1,1-1.613-1.613,1.613,1.613,0,0,1,1.613,1.613" transform="translate(258.963 7.338)" fill="#ffb054" fill-rule="evenodd"/>
            <path id="Path_481" data-name="Path 481" d="M6.433,27.733a1.6,1.6,0,1,1-3.2,0,1.591,1.591,0,0,1,1.7-1.591,1.613,1.613,0,0,1,1.613,1.591" transform="translate(-3.208 19.888)" fill="#ffb054" fill-rule="evenodd"/>
            <path id="Path_482" data-name="Path 482" d="M17.855,27.731a1.613,1.613,0,1,1-1.591-1.591,1.591,1.591,0,0,1,1.591,1.591" transform="translate(10.577 19.89)" fill="#ffb054" fill-rule="evenodd"/>
            <path id="Path_483" data-name="Path 483" d="M29.253,27.731a1.6,1.6,0,1,1-1.591-1.591,1.591,1.591,0,0,1,1.591,1.591" transform="translate(24.386 19.89)" fill="#ffb054" fill-rule="evenodd"/>
            <path id="Path_484" data-name="Path 484" d="M40.663,27.731a1.6,1.6,0,1,1-1.591-1.591,1.591,1.591,0,0,1,1.591,1.591" transform="translate(38.184 19.89)" fill="#ffb054" fill-rule="evenodd"/>
            <path id="Path_485" data-name="Path 485" d="M52.083,27.731a1.6,1.6,0,1,1-3.2,0,1.591,1.591,0,0,1,1.591-1.591,1.613,1.613,0,0,1,1.613,1.591" transform="translate(51.993 19.89)" fill="#ffb054" fill-rule="evenodd"/>
            <path id="Path_486" data-name="Path 486" d="M63.493,27.731a1.6,1.6,0,1,1-3.2,0,1.591,1.591,0,0,1,1.591-1.591,1.613,1.613,0,0,1,1.613,1.591" transform="translate(65.79 19.89)" fill="#ffb054" fill-rule="evenodd"/>
            <path id="Path_487" data-name="Path 487" d="M74.9,27.731a1.6,1.6,0,1,1-3.2,0,1.591,1.591,0,0,1,1.591-1.591A1.613,1.613,0,0,1,74.9,27.731" transform="translate(79.587 19.89)" fill="#ffb054" fill-rule="evenodd"/>
            <path id="Path_488" data-name="Path 488" d="M86.325,27.731a1.613,1.613,0,1,1-1.591-1.591,1.591,1.591,0,0,1,1.591,1.591" transform="translate(93.373 19.89)" fill="#ffb054" fill-rule="evenodd"/>
            <path id="Path_489" data-name="Path 489" d="M97.753,27.731a1.6,1.6,0,1,1-1.591-1.591,1.591,1.591,0,0,1,1.591,1.591" transform="translate(107.218 19.89)" fill="#ffb054" fill-rule="evenodd"/>
            <path id="Path_490" data-name="Path 490" d="M109.133,27.731a1.6,1.6,0,1,1-1.591-1.591,1.591,1.591,0,0,1,1.591,1.591" transform="translate(120.979 19.89)" fill="#ffb054" fill-rule="evenodd"/>
            <path id="Path_491" data-name="Path 491" d="M120.553,27.731a1.6,1.6,0,1,1-3.2,0,1.591,1.591,0,0,1,1.591-1.591,1.613,1.613,0,0,1,1.613,1.591" transform="translate(134.788 19.89)" fill="#ffb054" fill-rule="evenodd"/>
            <path id="Path_492" data-name="Path 492" d="M131.963,27.731a1.6,1.6,0,1,1-3.2,0,1.591,1.591,0,0,1,1.591-1.591,1.613,1.613,0,0,1,1.613,1.591" transform="translate(148.585 19.89)" fill="#ffb054" fill-rule="evenodd"/>
            <path id="Path_493" data-name="Path 493" d="M143.373,27.731a1.6,1.6,0,1,1-3.2,0,1.591,1.591,0,0,1,1.591-1.591,1.613,1.613,0,0,1,1.613,1.591" transform="translate(162.383 19.89)" fill="#ffb054" fill-rule="evenodd"/>
            <path id="Path_494" data-name="Path 494" d="M154.765,27.731a1.613,1.613,0,1,1-1.591-1.591,1.591,1.591,0,0,1,1.591,1.591" transform="translate(176.132 19.89)" fill="#ffb054" fill-rule="evenodd"/>
            <path id="Path_495" data-name="Path 495" d="M166.193,27.731A1.6,1.6,0,1,1,164.6,26.14a1.591,1.591,0,0,1,1.591,1.591" transform="translate(189.977 19.89)" fill="#ffb054" fill-rule="evenodd"/>
            <path id="Path_496" data-name="Path 496" d="M177.6,27.731a1.6,1.6,0,1,1-1.591-1.591,1.591,1.591,0,0,1,1.591,1.591" transform="translate(203.774 19.89)" fill="#ffb054" fill-rule="evenodd"/>
            <path id="Path_497" data-name="Path 497" d="M189.023,27.731a1.6,1.6,0,1,1-3.2,0,1.591,1.591,0,0,1,1.591-1.591,1.613,1.613,0,0,1,1.613,1.591" transform="translate(217.584 19.89)" fill="#ffb054" fill-rule="evenodd"/>
            <path id="Path_498" data-name="Path 498" d="M200.433,27.731a1.6,1.6,0,1,1-3.2,0,1.591,1.591,0,0,1,1.591-1.591,1.613,1.613,0,0,1,1.613,1.591" transform="translate(231.381 19.89)" fill="#ffb054" fill-rule="evenodd"/>
            <path id="Path_499" data-name="Path 499" d="M211.843,27.731a1.6,1.6,0,1,1-3.2,0,1.591,1.591,0,0,1,1.591-1.591,1.613,1.613,0,0,1,1.613,1.591" transform="translate(245.178 19.89)" fill="#ffb054" fill-rule="evenodd"/>
            <path id="Path_500" data-name="Path 500" d="M223.259,27.64a1.613,1.613,0,1,1-1.6-1.424,1.613,1.613,0,0,1,1.6,1.424" transform="translate(258.969 19.981)" fill="#ffb054" fill-rule="evenodd"/>
            <path id="Path_501" data-name="Path 501" d="M6.385,38.064a1.613,1.613,0,0,1-1.5,1.7A1.613,1.613,0,1,1,6.5,38.153" transform="translate(-3.16 32.466)" fill="#ffb054" fill-rule="evenodd"/>
            <path id="Path_502" data-name="Path 502" d="M17.855,38.1a1.613,1.613,0,1,1-1.591-1.591A1.591,1.591,0,0,1,17.855,38.1" transform="translate(10.577 32.429)" fill="#ffb054" fill-rule="evenodd"/>
            <path id="Path_503" data-name="Path 503" d="M29.357,38.107a1.591,1.591,0,0,1-1.591,1.613,1.613,1.613,0,1,1,0-3.2,1.591,1.591,0,0,1,1.591,1.591" transform="translate(24.283 32.423)" fill="#ffb054" fill-rule="evenodd"/>
            <path id="Path_504" data-name="Path 504" d="M40.767,38.107a1.591,1.591,0,0,1-1.591,1.613,1.613,1.613,0,1,1,0-3.2,1.591,1.591,0,0,1,1.591,1.591" transform="translate(38.081 32.423)" fill="#ffb054" fill-rule="evenodd"/>
            <path id="Path_505" data-name="Path 505" d="M52.1,38.113A1.613,1.613,0,1,1,50.483,36.5,1.613,1.613,0,0,1,52.1,38.113" transform="translate(51.981 32.417)" fill="#ffb054" fill-rule="evenodd"/>
            <path id="Path_506" data-name="Path 506" d="M63.518,38.064a1.3,1.3,0,1,0-.022.088" transform="translate(65.766 32.466)" fill="#ffb054" fill-rule="evenodd"/>
            <path id="Path_507" data-name="Path 507" d="M74.915,38.113A1.613,1.613,0,1,1,73.3,36.5a1.613,1.613,0,0,1,1.613,1.613" transform="translate(79.575 32.417)" fill="#ffb054" fill-rule="evenodd"/>
            <path id="Path_508" data-name="Path 508" d="M86.325,38.1a1.613,1.613,0,1,1-1.591-1.591A1.591,1.591,0,0,1,86.325,38.1" transform="translate(93.373 32.429)" fill="#ffb054" fill-rule="evenodd"/>
            <path id="Path_509" data-name="Path 509" d="M97.856,38.107a1.591,1.591,0,0,1-1.591,1.613,1.613,1.613,0,1,1,0-3.2,1.591,1.591,0,0,1,1.591,1.591" transform="translate(107.115 32.423)" fill="#ffb054" fill-rule="evenodd"/>
            <path id="Path_510" data-name="Path 510" d="M109.237,38.107a1.591,1.591,0,0,1-1.591,1.613,1.613,1.613,0,1,1,0-3.2,1.591,1.591,0,0,1,1.591,1.591" transform="translate(120.876 32.423)" fill="#ffb054" fill-rule="evenodd"/>
            <path id="Path_511" data-name="Path 511" d="M120.565,38.113a1.613,1.613,0,1,1-1.613-1.613,1.613,1.613,0,0,1,1.613,1.613" transform="translate(134.776 32.417)" fill="#ffb054" fill-rule="evenodd"/>
            <path id="Path_512" data-name="Path 512" d="M131.975,38.113a1.613,1.613,0,1,1-1.613-1.613,1.613,1.613,0,0,1,1.613,1.613" transform="translate(148.573 32.417)" fill="#ffb054" fill-rule="evenodd"/>
            <path id="Path_513" data-name="Path 513" d="M143.385,38.113a1.613,1.613,0,1,1-1.613-1.613,1.613,1.613,0,0,1,1.613,1.613" transform="translate(162.371 32.417)" fill="#ffb054" fill-rule="evenodd"/>
            <path id="Path_514" data-name="Path 514" d="M154.765,38.1a1.613,1.613,0,1,1-1.591-1.591,1.591,1.591,0,0,1,1.591,1.591" transform="translate(176.132 32.429)" fill="#ffb054" fill-rule="evenodd"/>
            <path id="Path_515" data-name="Path 515" d="M166.3,38.107a1.591,1.591,0,0,1-1.591,1.613,1.613,1.613,0,1,1,0-3.2,1.591,1.591,0,0,1,1.591,1.591" transform="translate(189.874 32.423)" fill="#ffb054" fill-rule="evenodd"/>
            <path id="Path_516" data-name="Path 516" d="M177.706,38.107a1.591,1.591,0,0,1-1.591,1.613,1.613,1.613,0,1,1,0-3.2,1.591,1.591,0,0,1,1.591,1.591" transform="translate(203.671 32.423)" fill="#ffb054" fill-rule="evenodd"/>
            <path id="Path_517" data-name="Path 517" d="M189.035,38.113a1.613,1.613,0,1,1-1.613-1.613,1.613,1.613,0,0,1,1.613,1.613" transform="translate(217.572 32.417)" fill="#ffb054" fill-rule="evenodd"/>
            <path id="Path_519" data-name="Path 519" d="M211.855,38.113a1.613,1.613,0,1,1-1.613-1.613,1.613,1.613,0,0,1,1.613,1.613" transform="translate(245.166 32.417)" fill="#ffb054" fill-rule="evenodd"/>
            <path id="Path_1446" data-name="Path 1446" d="M211.855,38.113a1.613,1.613,0,1,1-1.613-1.613,1.613,1.613,0,0,1,1.613,1.613" transform="translate(220.166 32.417)" fill="#ffb054" fill-rule="evenodd"/>
            <path id="Path_520" data-name="Path 520" d="M223.265,38.1a1.613,1.613,0,1,1-1.613-1.591,1.591,1.591,0,0,1,1.613,1.591" transform="translate(258.963 32.429)" fill="#ffb054" fill-rule="evenodd"/>
            <path id="Path_521" data-name="Path 521" d="M6.433,48.494a1.613,1.613,0,0,1-1.613,1.591A1.591,1.591,0,0,1,3.23,48.494a1.613,1.613,0,0,1,1.7-1.613,1.613,1.613,0,0,1,1.613,1.613" transform="translate(-3.208 44.968)" fill="#ffb054" fill-rule="evenodd"/>
            <path id="Path_522" data-name="Path 522" d="M17.849,48.6a1.613,1.613,0,1,1-.741-1.553,1.613,1.613,0,0,1,.741,1.553" transform="translate(10.583 44.866)" fill="#ffb054" fill-rule="evenodd"/>
            <path id="Path_523" data-name="Path 523" d="M29.253,48.493a1.591,1.591,0,0,1-1.591,1.591,1.6,1.6,0,1,1,1.591-1.591" transform="translate(24.386 44.969)" fill="#ffb054" fill-rule="evenodd"/>
            <path id="Path_524" data-name="Path 524" d="M40.663,48.493a1.591,1.591,0,0,1-1.591,1.591,1.6,1.6,0,1,1,1.591-1.591" transform="translate(38.184 44.969)" fill="#ffb054" fill-rule="evenodd"/>
            <path id="Path_525" data-name="Path 525" d="M52.083,48.493a1.613,1.613,0,0,1-1.613,1.591,1.591,1.591,0,0,1-1.591-1.591,1.6,1.6,0,1,1,3.2,0" transform="translate(51.993 44.969)" fill="#ffb054" fill-rule="evenodd"/>
            <path id="Path_526" data-name="Path 526" d="M63.493,48.493a1.613,1.613,0,0,1-1.613,1.591,1.591,1.591,0,0,1-1.591-1.591,1.6,1.6,0,1,1,3.2,0" transform="translate(65.79 44.969)" fill="#ffb054" fill-rule="evenodd"/>
            <path id="Path_527" data-name="Path 527" d="M74.9,48.493a1.613,1.613,0,0,1-1.613,1.591A1.591,1.591,0,0,1,71.7,48.493a1.6,1.6,0,1,1,3.2,0" transform="translate(79.587 44.969)" fill="#ffb054" fill-rule="evenodd"/>
            <path id="Path_528" data-name="Path 528" d="M86.319,48.6a1.613,1.613,0,1,1-.741-1.553,1.613,1.613,0,0,1,.741,1.553" transform="translate(93.379 44.866)" fill="#ffb054" fill-rule="evenodd"/>
            <path id="Path_529" data-name="Path 529" d="M97.753,48.493a1.591,1.591,0,0,1-1.591,1.591,1.6,1.6,0,1,1,1.591-1.591" transform="translate(107.218 44.969)" fill="#ffb054" fill-rule="evenodd"/>
            <path id="Path_530" data-name="Path 530" d="M109.133,48.493a1.591,1.591,0,0,1-1.591,1.591,1.6,1.6,0,1,1,1.591-1.591" transform="translate(120.979 44.969)" fill="#ffb054" fill-rule="evenodd"/>
            <path id="Path_531" data-name="Path 531" d="M120.553,48.493a1.613,1.613,0,0,1-1.613,1.591,1.591,1.591,0,0,1-1.591-1.591,1.6,1.6,0,1,1,3.2,0" transform="translate(134.788 44.969)" fill="#ffb054" fill-rule="evenodd"/>
            <path id="Path_532" data-name="Path 532" d="M131.963,48.493a1.613,1.613,0,0,1-1.613,1.591,1.591,1.591,0,0,1-1.591-1.591,1.6,1.6,0,1,1,3.2,0" transform="translate(148.585 44.969)" fill="#ffb054" fill-rule="evenodd"/>
            <path id="Path_533" data-name="Path 533" d="M143.373,48.493a1.613,1.613,0,0,1-1.613,1.591,1.591,1.591,0,0,1-1.591-1.591,1.6,1.6,0,1,1,3.2,0" transform="translate(162.383 44.969)" fill="#ffb054" fill-rule="evenodd"/>
            <path id="Path_534" data-name="Path 534" d="M154.759,48.6a1.613,1.613,0,1,1-.741-1.553,1.613,1.613,0,0,1,.741,1.553" transform="translate(176.138 44.866)" fill="#ffb054" fill-rule="evenodd"/>
            <path id="Path_535" data-name="Path 535" d="M166.193,48.493a1.591,1.591,0,0,1-1.591,1.591,1.6,1.6,0,1,1,1.591-1.591" transform="translate(189.977 44.969)" fill="#ffb054" fill-rule="evenodd"/>
            <path id="Path_536" data-name="Path 536" d="M177.6,48.493a1.591,1.591,0,0,1-1.591,1.591,1.6,1.6,0,1,1,1.591-1.591" transform="translate(203.774 44.969)" fill="#ffb054" fill-rule="evenodd"/>
            <path id="Path_537" data-name="Path 537" d="M189.023,48.493a1.613,1.613,0,0,1-1.613,1.591,1.591,1.591,0,0,1-1.591-1.591,1.6,1.6,0,1,1,3.2,0" transform="translate(217.584 44.969)" fill="#ffb054" fill-rule="evenodd"/>
            <path id="Path_538" data-name="Path 538" d="M200.433,48.493a1.613,1.613,0,0,1-1.613,1.591,1.591,1.591,0,0,1-1.591-1.591,1.6,1.6,0,1,1,3.2,0" transform="translate(231.381 44.969)" fill="#ffb054" fill-rule="evenodd"/>
            <path id="Path_539" data-name="Path 539" d="M211.843,48.493a1.613,1.613,0,0,1-1.613,1.591,1.591,1.591,0,0,1-1.591-1.591,1.6,1.6,0,1,1,3.2,0" transform="translate(245.178 44.969)" fill="#ffb054" fill-rule="evenodd"/>
            <path id="Path_540" data-name="Path 540" d="M223.265,48.493a1.613,1.613,0,1,1-1.613-1.613,1.613,1.613,0,0,1,1.613,1.613" transform="translate(258.963 44.969)" fill="#ffb054" fill-rule="evenodd"/>
            <path id="Path_541" data-name="Path 541" d="M6.445,58.883A1.613,1.613,0,1,1,4.833,57.27a1.613,1.613,0,0,1,1.613,1.613" transform="translate(-3.22 57.533)" fill="#ffb054" fill-rule="evenodd"/>
            <path id="Path_542" data-name="Path 542" d="M17.855,58.883a1.613,1.613,0,1,1-1.591-1.613,1.613,1.613,0,0,1,1.591,1.613" transform="translate(10.577 57.533)" fill="#ffb054" fill-rule="evenodd"/>
            <path id="Path_543" data-name="Path 543" d="M29.253,58.883a1.6,1.6,0,1,1-1.591-1.613,1.613,1.613,0,0,1,1.591,1.613" transform="translate(24.386 57.533)" fill="#ffb054" fill-rule="evenodd"/>
            <path id="Path_544" data-name="Path 544" d="M40.663,58.883a1.6,1.6,0,1,1-1.591-1.613,1.613,1.613,0,0,1,1.591,1.613" transform="translate(38.184 57.533)" fill="#ffb054" fill-rule="evenodd"/>
            <path id="Path_545" data-name="Path 545" d="M52.1,58.883a1.613,1.613,0,1,1-1.613-1.613A1.613,1.613,0,0,1,52.1,58.883" transform="translate(51.981 57.533)" fill="#ffb054" fill-rule="evenodd"/>
            <path id="Path_546" data-name="Path 546" d="M63.505,58.883a1.613,1.613,0,1,1-1.613-1.613,1.613,1.613,0,0,1,1.613,1.613" transform="translate(65.778 57.533)" fill="#ffb054" fill-rule="evenodd"/>
            <path id="Path_547" data-name="Path 547" d="M74.915,58.883A1.613,1.613,0,1,1,73.3,57.27a1.613,1.613,0,0,1,1.613,1.613" transform="translate(79.575 57.533)" fill="#ffb054" fill-rule="evenodd"/>
            <path id="Path_548" data-name="Path 548" d="M86.325,58.883a1.613,1.613,0,1,1-1.591-1.613,1.613,1.613,0,0,1,1.591,1.613" transform="translate(93.372 57.533)" fill="#ffb054" fill-rule="evenodd"/>
            <path id="Path_549" data-name="Path 549" d="M97.753,58.883a1.6,1.6,0,1,1-1.591-1.613,1.613,1.613,0,0,1,1.591,1.613" transform="translate(107.218 57.533)" fill="#ffb054" fill-rule="evenodd"/>
            <path id="Path_550" data-name="Path 550" d="M109.133,58.883a1.6,1.6,0,1,1-1.591-1.613,1.613,1.613,0,0,1,1.591,1.613" transform="translate(120.979 57.533)" fill="#ffb054" fill-rule="evenodd"/>
            <path id="Path_551" data-name="Path 551" d="M120.565,58.883a1.613,1.613,0,1,1-1.613-1.613,1.613,1.613,0,0,1,1.613,1.613" transform="translate(134.776 57.533)" fill="#ffb054" fill-rule="evenodd"/>
            <path id="Path_552" data-name="Path 552" d="M131.975,58.883a1.613,1.613,0,1,1-1.613-1.613,1.613,1.613,0,0,1,1.613,1.613" transform="translate(148.573 57.533)" fill="#ffb054" fill-rule="evenodd"/>
            <path id="Path_553" data-name="Path 553" d="M143.385,58.883a1.613,1.613,0,1,1-1.613-1.613,1.613,1.613,0,0,1,1.613,1.613" transform="translate(162.371 57.533)" fill="#ffb054" fill-rule="evenodd"/>
            <path id="Path_554" data-name="Path 554" d="M154.766,58.883a1.613,1.613,0,1,1-1.591-1.613,1.613,1.613,0,0,1,1.591,1.613" transform="translate(176.131 57.533)" fill="#ffb054" fill-rule="evenodd"/>
            <path id="Path_555" data-name="Path 555" d="M166.193,58.883A1.6,1.6,0,1,1,164.6,57.27a1.613,1.613,0,0,1,1.591,1.613" transform="translate(189.977 57.533)" fill="#ffb054" fill-rule="evenodd"/>
            <path id="Path_556" data-name="Path 556" d="M177.6,58.883a1.6,1.6,0,1,1-1.591-1.613,1.613,1.613,0,0,1,1.591,1.613" transform="translate(203.774 57.533)" fill="#ffb054" fill-rule="evenodd"/>
            <path id="Path_557" data-name="Path 557" d="M189.035,58.883a1.613,1.613,0,1,1-1.613-1.613,1.613,1.613,0,0,1,1.613,1.613" transform="translate(217.571 57.533)" fill="#ffb054" fill-rule="evenodd"/>
            <path id="Path_558" data-name="Path 558" d="M200.445,58.883a1.613,1.613,0,1,1-1.613-1.613,1.613,1.613,0,0,1,1.613,1.613" transform="translate(231.369 57.533)" fill="#ffb054" fill-rule="evenodd"/>
            <path id="Path_559" data-name="Path 559" d="M211.855,58.883a1.613,1.613,0,1,1-1.613-1.613,1.613,1.613,0,0,1,1.613,1.613" transform="translate(245.166 57.533)" fill="#ffb054" fill-rule="evenodd"/>
            <path id="Path_560" data-name="Path 560" d="M223.265,58.883a1.613,1.613,0,1,1-1.613-1.613,1.613,1.613,0,0,1,1.613,1.613" transform="translate(258.963 57.533)" fill="#ffb054" fill-rule="evenodd"/>
            <path id="Path_561" data-name="Path 561" d="M6.433,69.223a1.6,1.6,0,1,1-3.2,0,1.591,1.591,0,0,1,1.7-1.591,1.613,1.613,0,0,1,1.613,1.591" transform="translate(-3.208 70.058)" fill="#ffb054" fill-rule="evenodd"/>
            <path id="Path_562" data-name="Path 562" d="M17.855,69.221a1.613,1.613,0,1,1-1.591-1.591,1.591,1.591,0,0,1,1.591,1.591" transform="translate(10.577 70.06)" fill="#ffb054" fill-rule="evenodd"/>
            <path id="Path_563" data-name="Path 563" d="M29.253,69.221a1.6,1.6,0,1,1-1.591-1.591,1.591,1.591,0,0,1,1.591,1.591" transform="translate(24.387 70.06)" fill="#ffb054" fill-rule="evenodd"/>
            <path id="Path_564" data-name="Path 564" d="M40.663,69.221a1.6,1.6,0,1,1-1.591-1.591,1.591,1.591,0,0,1,1.591,1.591" transform="translate(38.184 70.06)" fill="#ffb054" fill-rule="evenodd"/>
            <path id="Path_565" data-name="Path 565" d="M52.083,69.221a1.6,1.6,0,1,1-3.2,0,1.591,1.591,0,0,1,1.591-1.591,1.613,1.613,0,0,1,1.613,1.591" transform="translate(51.993 70.06)" fill="#ffb054" fill-rule="evenodd"/>
            <path id="Path_566" data-name="Path 566" d="M63.493,69.221a1.6,1.6,0,1,1-3.2,0,1.591,1.591,0,0,1,1.591-1.591,1.613,1.613,0,0,1,1.613,1.591" transform="translate(65.79 70.06)" fill="#ffb054" fill-rule="evenodd"/>
            <path id="Path_567" data-name="Path 567" d="M74.9,69.221a1.6,1.6,0,1,1-3.2,0,1.591,1.591,0,0,1,1.591-1.591A1.613,1.613,0,0,1,74.9,69.221" transform="translate(79.587 70.06)" fill="#ffb054" fill-rule="evenodd"/>
            <path id="Path_568" data-name="Path 568" d="M86.325,69.221a1.613,1.613,0,1,1-1.591-1.591,1.591,1.591,0,0,1,1.591,1.591" transform="translate(93.373 70.06)" fill="#ffb054" fill-rule="evenodd"/>
            <path id="Path_569" data-name="Path 569" d="M97.753,69.221a1.6,1.6,0,1,1-1.591-1.591,1.591,1.591,0,0,1,1.591,1.591" transform="translate(107.218 70.06)" fill="#ffb054" fill-rule="evenodd"/>
            <path id="Path_570" data-name="Path 570" d="M109.133,69.221a1.6,1.6,0,1,1-1.591-1.591,1.591,1.591,0,0,1,1.591,1.591" transform="translate(120.979 70.06)" fill="#ffb054" fill-rule="evenodd"/>
            <path id="Path_571" data-name="Path 571" d="M120.553,69.221a1.6,1.6,0,1,1-3.2,0,1.591,1.591,0,0,1,1.591-1.591,1.613,1.613,0,0,1,1.613,1.591" transform="translate(134.788 70.06)" fill="#ffb054" fill-rule="evenodd"/>
            <path id="Path_572" data-name="Path 572" d="M131.963,69.221a1.6,1.6,0,1,1-3.2,0,1.591,1.591,0,0,1,1.591-1.591,1.613,1.613,0,0,1,1.613,1.591" transform="translate(148.585 70.06)" fill="#ffb054" fill-rule="evenodd"/>
            <path id="Path_573" data-name="Path 573" d="M143.373,69.221a1.6,1.6,0,1,1-3.2,0,1.591,1.591,0,0,1,1.591-1.591,1.613,1.613,0,0,1,1.613,1.591" transform="translate(162.383 70.06)" fill="#ffb054" fill-rule="evenodd"/>
            <path id="Path_574" data-name="Path 574" d="M154.765,69.221a1.613,1.613,0,1,1-1.591-1.591,1.591,1.591,0,0,1,1.591,1.591" transform="translate(176.132 70.06)" fill="#ffb054" fill-rule="evenodd"/>
            <path id="Path_575" data-name="Path 575" d="M166.193,69.221A1.6,1.6,0,1,1,164.6,67.63a1.591,1.591,0,0,1,1.591,1.591" transform="translate(189.977 70.06)" fill="#ffb054" fill-rule="evenodd"/>
            <path id="Path_576" data-name="Path 576" d="M177.6,69.221a1.6,1.6,0,1,1-1.591-1.591,1.591,1.591,0,0,1,1.591,1.591" transform="translate(203.774 70.06)" fill="#ffb054" fill-rule="evenodd"/>
            <path id="Path_577" data-name="Path 577" d="M189.023,69.221a1.6,1.6,0,1,1-3.2,0,1.591,1.591,0,0,1,1.591-1.591,1.613,1.613,0,0,1,1.613,1.591" transform="translate(217.584 70.06)" fill="#ffb054" fill-rule="evenodd"/>
            <path id="Path_578" data-name="Path 578" d="M200.433,69.221a1.6,1.6,0,1,1-3.2,0,1.591,1.591,0,0,1,1.591-1.591,1.613,1.613,0,0,1,1.613,1.591" transform="translate(231.381 70.06)" fill="#ffb054" fill-rule="evenodd"/>
            <path id="Path_579" data-name="Path 579" d="M211.843,69.221a1.6,1.6,0,1,1-3.2,0,1.591,1.591,0,0,1,1.591-1.591,1.613,1.613,0,0,1,1.613,1.591" transform="translate(245.178 70.06)" fill="#ffb054" fill-rule="evenodd"/>
            <path id="Path_580" data-name="Path 580" d="M223.259,69.13a1.613,1.613,0,1,1-1.6-1.424,1.613,1.613,0,0,1,1.6,1.424" transform="translate(258.969 70.151)" fill="#ffb054" fill-rule="evenodd"/>
            <path id="Path_581" data-name="Path 581" d="M6.445,79.6A1.613,1.613,0,1,1,4.833,77.99,1.613,1.613,0,0,1,6.445,79.6" transform="translate(-3.22 82.588)" fill="#ffb054" fill-rule="evenodd"/>
            <path id="Path_582" data-name="Path 582" d="M17.855,79.591A1.613,1.613,0,1,1,16.265,78a1.591,1.591,0,0,1,1.591,1.591" transform="translate(10.577 82.6)" fill="#ffb054" fill-rule="evenodd"/>
            <path id="Path_583" data-name="Path 583" d="M29.357,79.6a1.591,1.591,0,0,1-1.591,1.613,1.613,1.613,0,1,1,0-3.2A1.591,1.591,0,0,1,29.357,79.6" transform="translate(24.283 82.594)" fill="#ffb054" fill-rule="evenodd"/>
            <path id="Path_584" data-name="Path 584" d="M40.767,79.6a1.591,1.591,0,0,1-1.591,1.613,1.613,1.613,0,1,1,0-3.2A1.591,1.591,0,0,1,40.767,79.6" transform="translate(38.081 82.594)" fill="#ffb054" fill-rule="evenodd"/>
            <path id="Path_585" data-name="Path 585" d="M52.1,79.6a1.613,1.613,0,1,1-1.613-1.613A1.613,1.613,0,0,1,52.1,79.6" transform="translate(51.981 82.588)" fill="#ffb054" fill-rule="evenodd"/>
            <path id="Path_586" data-name="Path 586" d="M63.505,79.6a1.613,1.613,0,1,1-1.613-1.613A1.613,1.613,0,0,1,63.505,79.6" transform="translate(65.778 82.588)" fill="#ffb054" fill-rule="evenodd"/>
            <path id="Path_587" data-name="Path 587" d="M74.915,79.6A1.613,1.613,0,1,1,73.3,77.99,1.613,1.613,0,0,1,74.915,79.6" transform="translate(79.575 82.588)" fill="#ffb054" fill-rule="evenodd"/>
            <path id="Path_588" data-name="Path 588" d="M86.325,79.591A1.613,1.613,0,1,1,84.735,78a1.591,1.591,0,0,1,1.591,1.591" transform="translate(93.373 82.6)" fill="#ffb054" fill-rule="evenodd"/>
            <path id="Path_589" data-name="Path 589" d="M97.857,79.6a1.591,1.591,0,0,1-1.591,1.613,1.613,1.613,0,1,1,0-3.2A1.591,1.591,0,0,1,97.857,79.6" transform="translate(107.115 82.594)" fill="#ffb054" fill-rule="evenodd"/>
            <path id="Path_590" data-name="Path 590" d="M109.237,79.6a1.591,1.591,0,0,1-1.591,1.613,1.613,1.613,0,1,1,0-3.2,1.591,1.591,0,0,1,1.591,1.591" transform="translate(120.876 82.594)" fill="#ffb054" fill-rule="evenodd"/>
            <path id="Path_591" data-name="Path 591" d="M120.565,79.6a1.613,1.613,0,1,1-1.613-1.613,1.613,1.613,0,0,1,1.613,1.613" transform="translate(134.776 82.588)" fill="#ffb054" fill-rule="evenodd"/>
            <path id="Path_592" data-name="Path 592" d="M131.975,79.6a1.613,1.613,0,1,1-1.613-1.613,1.613,1.613,0,0,1,1.613,1.613" transform="translate(148.573 82.588)" fill="#ffb054" fill-rule="evenodd"/>
            <path id="Path_593" data-name="Path 593" d="M143.385,79.6a1.613,1.613,0,1,1-1.613-1.613,1.613,1.613,0,0,1,1.613,1.613" transform="translate(162.371 82.588)" fill="#ffb054" fill-rule="evenodd"/>
            <path id="Path_594" data-name="Path 594" d="M154.765,79.591A1.613,1.613,0,1,1,153.175,78a1.591,1.591,0,0,1,1.591,1.591" transform="translate(176.132 82.6)" fill="#ffb054" fill-rule="evenodd"/>
            <path id="Path_595" data-name="Path 595" d="M166.3,79.6a1.591,1.591,0,0,1-1.591,1.613,1.613,1.613,0,1,1,0-3.2A1.591,1.591,0,0,1,166.3,79.6" transform="translate(189.874 82.594)" fill="#ffb054" fill-rule="evenodd"/>
            <path id="Path_596" data-name="Path 596" d="M177.706,79.6a1.591,1.591,0,0,1-1.591,1.613,1.613,1.613,0,1,1,0-3.2,1.591,1.591,0,0,1,1.591,1.591" transform="translate(203.671 82.594)" fill="#ffb054" fill-rule="evenodd"/>
            <path id="Path_597" data-name="Path 597" d="M189.035,79.6a1.613,1.613,0,1,1-1.613-1.613,1.613,1.613,0,0,1,1.613,1.613" transform="translate(217.572 82.588)" fill="#ffb054" fill-rule="evenodd"/>
            <path id="Path_598" data-name="Path 598" d="M200.445,79.6a1.613,1.613,0,1,1-1.613-1.613,1.613,1.613,0,0,1,1.613,1.613" transform="translate(231.369 82.588)" fill="#ffb054" fill-rule="evenodd"/>
            <path id="Path_599" data-name="Path 599" d="M211.855,79.6a1.613,1.613,0,1,1-1.613-1.613,1.613,1.613,0,0,1,1.613,1.613" transform="translate(245.166 82.588)" fill="#ffb054" fill-rule="evenodd"/>
            <path id="Path_600" data-name="Path 600" d="M223.265,79.591A1.613,1.613,0,1,1,221.653,78a1.591,1.591,0,0,1,1.613,1.591" transform="translate(258.963 82.6)" fill="#ffb054" fill-rule="evenodd"/>
            <path id="Path_601" data-name="Path 601" d="M6.433,89.984a1.613,1.613,0,0,1-1.613,1.591A1.591,1.591,0,0,1,3.23,89.984a1.613,1.613,0,0,1,1.7-1.613,1.613,1.613,0,0,1,1.613,1.613" transform="translate(-3.208 95.138)" fill="#ffb054" fill-rule="evenodd"/>
            <path id="Path_602" data-name="Path 602" d="M17.849,90.086a1.613,1.613,0,1,1-.741-1.553,1.613,1.613,0,0,1,.741,1.553" transform="translate(10.583 95.036)" fill="#ffb054" fill-rule="evenodd"/>
            <path id="Path_603" data-name="Path 603" d="M29.253,89.983a1.591,1.591,0,0,1-1.591,1.591,1.6,1.6,0,1,1,1.591-1.591" transform="translate(24.386 95.14)" fill="#ffb054" fill-rule="evenodd"/>
            <path id="Path_604" data-name="Path 604" d="M40.663,89.983a1.591,1.591,0,0,1-1.591,1.591,1.6,1.6,0,1,1,1.591-1.591" transform="translate(38.184 95.14)" fill="#ffb054" fill-rule="evenodd"/>
            <path id="Path_605" data-name="Path 605" d="M52.083,89.983a1.613,1.613,0,0,1-1.613,1.591,1.591,1.591,0,0,1-1.591-1.591,1.6,1.6,0,1,1,3.2,0" transform="translate(51.993 95.14)" fill="#ffb054" fill-rule="evenodd"/>
            <path id="Path_606" data-name="Path 606" d="M63.493,89.983a1.613,1.613,0,0,1-1.613,1.591,1.591,1.591,0,0,1-1.591-1.591,1.6,1.6,0,1,1,3.2,0" transform="translate(65.79 95.14)" fill="#ffb054" fill-rule="evenodd"/>
            <path id="Path_607" data-name="Path 607" d="M74.9,89.983a1.613,1.613,0,0,1-1.613,1.591A1.591,1.591,0,0,1,71.7,89.983a1.6,1.6,0,1,1,3.2,0" transform="translate(79.587 95.14)" fill="#ffb054" fill-rule="evenodd"/>
            <path id="Path_608" data-name="Path 608" d="M86.319,90.086a1.613,1.613,0,1,1-.741-1.553,1.613,1.613,0,0,1,.741,1.553" transform="translate(93.379 95.036)" fill="#ffb054" fill-rule="evenodd"/>
            <path id="Path_609" data-name="Path 609" d="M97.753,89.983a1.591,1.591,0,0,1-1.591,1.591,1.6,1.6,0,1,1,1.591-1.591" transform="translate(107.218 95.14)" fill="#ffb054" fill-rule="evenodd"/>
            <path id="Path_610" data-name="Path 610" d="M109.133,89.983a1.591,1.591,0,0,1-1.591,1.591,1.6,1.6,0,1,1,1.591-1.591" transform="translate(120.979 95.14)" fill="#ffb054" fill-rule="evenodd"/>
            <path id="Path_611" data-name="Path 611" d="M120.553,89.983a1.613,1.613,0,0,1-1.613,1.591,1.591,1.591,0,0,1-1.591-1.591,1.6,1.6,0,1,1,3.2,0" transform="translate(134.788 95.14)" fill="#ffb054" fill-rule="evenodd"/>
            <path id="Path_612" data-name="Path 612" d="M131.963,89.983a1.613,1.613,0,0,1-1.613,1.591,1.591,1.591,0,0,1-1.591-1.591,1.6,1.6,0,1,1,3.2,0" transform="translate(148.585 95.14)" fill="#ffb054" fill-rule="evenodd"/>
            <path id="Path_613" data-name="Path 613" d="M143.373,89.983a1.613,1.613,0,0,1-1.613,1.591,1.591,1.591,0,0,1-1.591-1.591,1.6,1.6,0,1,1,3.2,0" transform="translate(162.383 95.14)" fill="#ffb054" fill-rule="evenodd"/>
            <path id="Path_614" data-name="Path 614" d="M154.759,90.086a1.613,1.613,0,1,1-.741-1.553,1.613,1.613,0,0,1,.741,1.553" transform="translate(176.138 95.036)" fill="#ffb054" fill-rule="evenodd"/>
            <path id="Path_615" data-name="Path 615" d="M166.193,89.983a1.591,1.591,0,0,1-1.591,1.591,1.6,1.6,0,1,1,1.591-1.591" transform="translate(189.977 95.14)" fill="#ffb054" fill-rule="evenodd"/>
            <path id="Path_616" data-name="Path 616" d="M177.6,89.983a1.591,1.591,0,0,1-1.591,1.591,1.6,1.6,0,1,1,1.591-1.591" transform="translate(203.774 95.14)" fill="#ffb054" fill-rule="evenodd"/>
            <path id="Path_617" data-name="Path 617" d="M189.023,89.983a1.613,1.613,0,0,1-1.613,1.591,1.591,1.591,0,0,1-1.591-1.591,1.6,1.6,0,1,1,3.2,0" transform="translate(217.584 95.14)" fill="#ffb054" fill-rule="evenodd"/>
            <path id="Path_618" data-name="Path 618" d="M200.433,89.983a1.613,1.613,0,0,1-1.613,1.591,1.591,1.591,0,0,1-1.591-1.591,1.6,1.6,0,1,1,3.2,0" transform="translate(231.381 95.14)" fill="#ffb054" fill-rule="evenodd"/>
            <path id="Path_619" data-name="Path 619" d="M211.843,89.983a1.613,1.613,0,0,1-1.613,1.591,1.591,1.591,0,0,1-1.591-1.591,1.6,1.6,0,1,1,3.2,0" transform="translate(245.178 95.14)" fill="#ffb054" fill-rule="evenodd"/>
            <path id="Path_620" data-name="Path 620" d="M223.265,89.983a1.613,1.613,0,1,1-1.613-1.613,1.613,1.613,0,0,1,1.613,1.613" transform="translate(258.963 95.14)" fill="#ffb054" fill-rule="evenodd"/>
            <path id="Path_621" data-name="Path 621" d="M6.445,100.353A1.613,1.613,0,1,1,4.833,98.74a1.613,1.613,0,0,1,1.613,1.613" transform="translate(-3.22 107.679)" fill="#ffb054" fill-rule="evenodd"/>
            <path id="Path_622" data-name="Path 622" d="M17.855,100.353a1.613,1.613,0,1,1-1.591-1.613,1.613,1.613,0,0,1,1.591,1.613" transform="translate(10.577 107.679)" fill="#ffb054" fill-rule="evenodd"/>
            <path id="Path_623" data-name="Path 623" d="M29.253,100.353a1.6,1.6,0,1,1-1.591-1.613,1.613,1.613,0,0,1,1.591,1.613" transform="translate(24.386 107.679)" fill="#ffb054" fill-rule="evenodd"/>
            <path id="Path_624" data-name="Path 624" d="M40.663,100.353a1.6,1.6,0,1,1-1.591-1.613,1.613,1.613,0,0,1,1.591,1.613" transform="translate(38.184 107.679)" fill="#ffb054" fill-rule="evenodd"/>
            <path id="Path_625" data-name="Path 625" d="M52.1,100.353a1.613,1.613,0,1,1-1.613-1.613,1.613,1.613,0,0,1,1.613,1.613" transform="translate(51.981 107.679)" fill="#ffb054" fill-rule="evenodd"/>
            <path id="Path_626" data-name="Path 626" d="M63.505,100.353a1.613,1.613,0,1,1-1.613-1.613,1.613,1.613,0,0,1,1.613,1.613" transform="translate(65.778 107.679)" fill="#ffb054" fill-rule="evenodd"/>
            <path id="Path_627" data-name="Path 627" d="M74.915,100.353A1.613,1.613,0,1,1,73.3,98.74a1.613,1.613,0,0,1,1.613,1.613" transform="translate(79.575 107.679)" fill="#ffb054" fill-rule="evenodd"/>
            <path id="Path_628" data-name="Path 628" d="M86.325,100.353a1.613,1.613,0,1,1-1.591-1.613,1.613,1.613,0,0,1,1.591,1.613" transform="translate(93.372 107.679)" fill="#ffb054" fill-rule="evenodd"/>
            <path id="Path_629" data-name="Path 629" d="M97.753,100.353a1.6,1.6,0,1,1-1.591-1.613,1.613,1.613,0,0,1,1.591,1.613" transform="translate(107.218 107.679)" fill="#ffb054" fill-rule="evenodd"/>
            <path id="Path_630" data-name="Path 630" d="M109.133,100.353a1.6,1.6,0,1,1-1.591-1.613,1.613,1.613,0,0,1,1.591,1.613" transform="translate(120.979 107.679)" fill="#ffb054" fill-rule="evenodd"/>
            <path id="Path_631" data-name="Path 631" d="M120.565,100.353a1.613,1.613,0,1,1-1.613-1.613,1.613,1.613,0,0,1,1.613,1.613" transform="translate(134.776 107.679)" fill="#ffb054" fill-rule="evenodd"/>
            <path id="Path_632" data-name="Path 632" d="M131.975,100.353a1.613,1.613,0,1,1-1.613-1.613,1.613,1.613,0,0,1,1.613,1.613" transform="translate(148.573 107.679)" fill="#ffb054" fill-rule="evenodd"/>
            <path id="Path_633" data-name="Path 633" d="M143.385,100.353a1.613,1.613,0,1,1-1.613-1.613,1.613,1.613,0,0,1,1.613,1.613" transform="translate(162.371 107.679)" fill="#ffb054" fill-rule="evenodd"/>
            <path id="Path_634" data-name="Path 634" d="M154.766,100.353a1.613,1.613,0,1,1-1.591-1.613,1.613,1.613,0,0,1,1.591,1.613" transform="translate(176.131 107.679)" fill="#ffb054" fill-rule="evenodd"/>
            <path id="Path_635" data-name="Path 635" d="M166.193,100.353A1.6,1.6,0,1,1,164.6,98.74a1.613,1.613,0,0,1,1.591,1.613" transform="translate(189.977 107.679)" fill="#ffb054" fill-rule="evenodd"/>
            <path id="Path_636" data-name="Path 636" d="M177.6,100.353a1.6,1.6,0,1,1-1.591-1.613,1.613,1.613,0,0,1,1.591,1.613" transform="translate(203.774 107.679)" fill="#ffb054" fill-rule="evenodd"/>
            <path id="Path_637" data-name="Path 637" d="M189.035,100.353a1.613,1.613,0,1,1-1.613-1.613,1.613,1.613,0,0,1,1.613,1.613" transform="translate(217.571 107.679)" fill="#ffb054" fill-rule="evenodd"/>
            <path id="Path_638" data-name="Path 638" d="M200.445,100.353a1.613,1.613,0,1,1-1.613-1.613,1.613,1.613,0,0,1,1.613,1.613" transform="translate(231.369 107.679)" fill="#ffb054" fill-rule="evenodd"/>
            <path id="Path_639" data-name="Path 639" d="M211.855,100.353a1.613,1.613,0,1,1-1.613-1.613,1.613,1.613,0,0,1,1.613,1.613" transform="translate(245.166 107.679)" fill="#ffb054" fill-rule="evenodd"/>
            <path id="Path_640" data-name="Path 640" d="M223.265,100.353a1.613,1.613,0,1,1-1.613-1.613,1.613,1.613,0,0,1,1.613,1.613" transform="translate(258.963 107.679)" fill="#ffb054" fill-rule="evenodd"/>
            <path id="Path_641" data-name="Path 641" d="M6.433,110.711a1.6,1.6,0,1,1-3.2,0,1.591,1.591,0,0,1,1.591-1.591,1.613,1.613,0,0,1,1.613,1.591" transform="translate(-3.208 120.231)" fill="#ffb054" fill-rule="evenodd"/>
            <path id="Path_642" data-name="Path 642" d="M17.855,110.711a1.613,1.613,0,1,1-1.591-1.591,1.591,1.591,0,0,1,1.591,1.591" transform="translate(10.577 120.231)" fill="#ffb054" fill-rule="evenodd"/>
            <path id="Path_643" data-name="Path 643" d="M29.253,110.711a1.6,1.6,0,1,1-1.591-1.591,1.591,1.591,0,0,1,1.591,1.591" transform="translate(24.387 120.231)" fill="#ffb054" fill-rule="evenodd"/>
            <path id="Path_644" data-name="Path 644" d="M40.663,110.711a1.6,1.6,0,1,1-1.591-1.591,1.591,1.591,0,0,1,1.591,1.591" transform="translate(38.184 120.231)" fill="#ffb054" fill-rule="evenodd"/>
            <path id="Path_645" data-name="Path 645" d="M52.083,110.711a1.6,1.6,0,1,1-3.2,0,1.591,1.591,0,0,1,1.591-1.591,1.613,1.613,0,0,1,1.613,1.591" transform="translate(51.993 120.231)" fill="#ffb054" fill-rule="evenodd"/>
            <path id="Path_646" data-name="Path 646" d="M63.493,110.711a1.6,1.6,0,1,1-3.2,0,1.591,1.591,0,0,1,1.591-1.591,1.613,1.613,0,0,1,1.613,1.591" transform="translate(65.79 120.231)" fill="#ffb054" fill-rule="evenodd"/>
            <path id="Path_647" data-name="Path 647" d="M74.9,110.711a1.6,1.6,0,1,1-3.2,0,1.591,1.591,0,0,1,1.591-1.591,1.613,1.613,0,0,1,1.613,1.591" transform="translate(79.587 120.231)" fill="#ffb054" fill-rule="evenodd"/>
            <path id="Path_648" data-name="Path 648" d="M86.325,110.711a1.613,1.613,0,1,1-1.591-1.591,1.591,1.591,0,0,1,1.591,1.591" transform="translate(93.373 120.231)" fill="#ffb054" fill-rule="evenodd"/>
            <path id="Path_649" data-name="Path 649" d="M97.753,110.711a1.6,1.6,0,1,1-1.591-1.591,1.591,1.591,0,0,1,1.591,1.591" transform="translate(107.218 120.231)" fill="#ffb054" fill-rule="evenodd"/>
            <path id="Path_650" data-name="Path 650" d="M109.133,110.711a1.6,1.6,0,1,1-1.591-1.591,1.591,1.591,0,0,1,1.591,1.591" transform="translate(120.979 120.231)" fill="#ffb054" fill-rule="evenodd"/>
            <path id="Path_651" data-name="Path 651" d="M120.553,110.711a1.6,1.6,0,1,1-3.2,0,1.591,1.591,0,0,1,1.591-1.591,1.613,1.613,0,0,1,1.613,1.591" transform="translate(134.788 120.231)" fill="#ffb054" fill-rule="evenodd"/>
            <path id="Path_652" data-name="Path 652" d="M131.963,110.711a1.6,1.6,0,1,1-3.2,0,1.591,1.591,0,0,1,1.591-1.591,1.613,1.613,0,0,1,1.613,1.591" transform="translate(148.585 120.231)" fill="#ffb054" fill-rule="evenodd"/>
            <path id="Path_653" data-name="Path 653" d="M143.373,110.711a1.6,1.6,0,1,1-3.2,0,1.591,1.591,0,0,1,1.591-1.591,1.613,1.613,0,0,1,1.613,1.591" transform="translate(162.383 120.231)" fill="#ffb054" fill-rule="evenodd"/>
            <path id="Path_654" data-name="Path 654" d="M154.765,110.711a1.613,1.613,0,1,1-1.591-1.591,1.591,1.591,0,0,1,1.591,1.591" transform="translate(176.132 120.231)" fill="#ffb054" fill-rule="evenodd"/>
            <path id="Path_655" data-name="Path 655" d="M166.193,110.711a1.6,1.6,0,1,1-1.591-1.591,1.591,1.591,0,0,1,1.591,1.591" transform="translate(189.977 120.231)" fill="#ffb054" fill-rule="evenodd"/>
            <path id="Path_656" data-name="Path 656" d="M177.6,110.711a1.6,1.6,0,1,1-1.591-1.591,1.591,1.591,0,0,1,1.591,1.591" transform="translate(203.774 120.231)" fill="#ffb054" fill-rule="evenodd"/>
            <path id="Path_657" data-name="Path 657" d="M189.023,110.711a1.6,1.6,0,1,1-3.2,0,1.591,1.591,0,0,1,1.591-1.591,1.613,1.613,0,0,1,1.613,1.591" transform="translate(217.584 120.231)" fill="#ffb054" fill-rule="evenodd"/>
            <path id="Path_658" data-name="Path 658" d="M200.433,110.711a1.6,1.6,0,1,1-3.2,0,1.591,1.591,0,0,1,1.591-1.591,1.613,1.613,0,0,1,1.613,1.591" transform="translate(231.381 120.231)" fill="#ffb054" fill-rule="evenodd"/>
            <path id="Path_659" data-name="Path 659" d="M211.843,110.711a1.6,1.6,0,1,1-3.2,0,1.591,1.591,0,0,1,1.591-1.591,1.613,1.613,0,0,1,1.613,1.591" transform="translate(245.178 120.231)" fill="#ffb054" fill-rule="evenodd"/>
            <path id="Path_660" data-name="Path 660" d="M223.259,110.62a1.613,1.613,0,1,1-1.6-1.424,1.613,1.613,0,0,1,1.6,1.424" transform="translate(258.969 120.322)" fill="#ffb054" fill-rule="evenodd"/>
            <path id="Path_661" data-name="Path 661" d="M6.445,121.093a1.613,1.613,0,1,1-1.613-1.613,1.613,1.613,0,0,1,1.613,1.613" transform="translate(-3.22 132.758)" fill="#ffb054" fill-rule="evenodd"/>
            <path id="Path_662" data-name="Path 662" d="M17.855,121.081a1.613,1.613,0,1,1-1.591-1.591,1.591,1.591,0,0,1,1.591,1.591" transform="translate(10.577 132.77)" fill="#ffb054" fill-rule="evenodd"/>
            <path id="Path_663" data-name="Path 663" d="M29.357,121.087a1.591,1.591,0,0,1-1.591,1.613,1.613,1.613,0,1,1,0-3.2,1.591,1.591,0,0,1,1.591,1.591" transform="translate(24.283 132.764)" fill="#ffb054" fill-rule="evenodd"/>
            <path id="Path_664" data-name="Path 664" d="M40.767,121.087a1.591,1.591,0,0,1-1.591,1.613,1.613,1.613,0,1,1,0-3.2,1.591,1.591,0,0,1,1.591,1.591" transform="translate(38.081 132.764)" fill="#ffb054" fill-rule="evenodd"/>
            <path id="Path_665" data-name="Path 665" d="M52.1,121.093a1.613,1.613,0,1,1-1.613-1.613,1.613,1.613,0,0,1,1.613,1.613" transform="translate(51.981 132.758)" fill="#ffb054" fill-rule="evenodd"/>
            <path id="Path_666" data-name="Path 666" d="M63.505,121.093a1.613,1.613,0,1,1-1.613-1.613,1.613,1.613,0,0,1,1.613,1.613" transform="translate(65.778 132.758)" fill="#ffb054" fill-rule="evenodd"/>
            <path id="Path_667" data-name="Path 667" d="M74.915,121.093A1.613,1.613,0,1,1,73.3,119.48a1.613,1.613,0,0,1,1.613,1.613" transform="translate(79.575 132.758)" fill="#ffb054" fill-rule="evenodd"/>
            <path id="Path_668" data-name="Path 668" d="M86.325,121.081a1.613,1.613,0,1,1-1.591-1.591,1.591,1.591,0,0,1,1.591,1.591" transform="translate(93.373 132.77)" fill="#ffb054" fill-rule="evenodd"/>
            <path id="Path_669" data-name="Path 669" d="M97.857,121.087a1.591,1.591,0,0,1-1.591,1.613,1.613,1.613,0,1,1,0-3.2,1.591,1.591,0,0,1,1.591,1.591" transform="translate(107.115 132.764)" fill="#ffb054" fill-rule="evenodd"/>
            <path id="Path_670" data-name="Path 670" d="M109.237,121.087a1.591,1.591,0,0,1-1.591,1.613,1.613,1.613,0,1,1,0-3.2,1.591,1.591,0,0,1,1.591,1.591" transform="translate(120.876 132.764)" fill="#ffb054" fill-rule="evenodd"/>
            <path id="Path_671" data-name="Path 671" d="M120.565,121.093a1.613,1.613,0,1,1-1.613-1.613,1.613,1.613,0,0,1,1.613,1.613" transform="translate(134.776 132.758)" fill="#ffb054" fill-rule="evenodd"/>
            <path id="Path_672" data-name="Path 672" d="M131.975,121.093a1.613,1.613,0,1,1-1.613-1.613,1.613,1.613,0,0,1,1.613,1.613" transform="translate(148.573 132.758)" fill="#ffb054" fill-rule="evenodd"/>
            <path id="Path_673" data-name="Path 673" d="M143.385,121.093a1.613,1.613,0,1,1-1.613-1.613,1.613,1.613,0,0,1,1.613,1.613" transform="translate(162.371 132.758)" fill="#ffb054" fill-rule="evenodd"/>
            <path id="Path_674" data-name="Path 674" d="M154.765,121.081a1.613,1.613,0,1,1-1.591-1.591,1.591,1.591,0,0,1,1.591,1.591" transform="translate(176.132 132.77)" fill="#ffb054" fill-rule="evenodd"/>
            <path id="Path_675" data-name="Path 675" d="M166.3,121.087a1.591,1.591,0,0,1-1.591,1.613,1.613,1.613,0,1,1,0-3.2,1.591,1.591,0,0,1,1.591,1.591" transform="translate(189.874 132.764)" fill="#ffb054" fill-rule="evenodd"/>
            <path id="Path_676" data-name="Path 676" d="M177.706,121.087a1.591,1.591,0,0,1-1.591,1.613,1.613,1.613,0,1,1,0-3.2,1.591,1.591,0,0,1,1.591,1.591" transform="translate(203.671 132.764)" fill="#ffb054" fill-rule="evenodd"/>
            <path id="Path_677" data-name="Path 677" d="M189.035,121.093a1.613,1.613,0,1,1-1.613-1.613,1.613,1.613,0,0,1,1.613,1.613" transform="translate(217.572 132.758)" fill="#ffb054" fill-rule="evenodd"/>
            <path id="Path_678" data-name="Path 678" d="M200.445,121.093a1.613,1.613,0,1,1-1.613-1.613,1.613,1.613,0,0,1,1.613,1.613" transform="translate(231.369 132.758)" fill="#ffb054" fill-rule="evenodd"/>
            <path id="Path_679" data-name="Path 679" d="M211.855,121.093a1.613,1.613,0,1,1-1.613-1.613,1.613,1.613,0,0,1,1.613,1.613" transform="translate(245.166 132.758)" fill="#ffb054" fill-rule="evenodd"/>
            <path id="Path_680" data-name="Path 680" d="M223.265,121.081a1.613,1.613,0,1,1-1.613-1.591,1.591,1.591,0,0,1,1.613,1.591" transform="translate(258.963 132.77)" fill="#ffb054" fill-rule="evenodd"/>
            <path id="Path_681" data-name="Path 681" d="M6.433,131.473a1.613,1.613,0,0,1-1.613,1.591,1.591,1.591,0,0,1-1.591-1.591,1.6,1.6,0,1,1,3.2,0" transform="translate(-3.208 145.31)" fill="#ffb054" fill-rule="evenodd"/>
            <path id="Path_682" data-name="Path 682" d="M17.849,131.576a1.613,1.613,0,1,1-.741-1.553,1.613,1.613,0,0,1,.741,1.553" transform="translate(10.583 145.207)" fill="#ffb054" fill-rule="evenodd"/>
            <path id="Path_683" data-name="Path 683" d="M29.253,131.473a1.591,1.591,0,0,1-1.591,1.591,1.6,1.6,0,1,1,1.591-1.591" transform="translate(24.386 145.31)" fill="#ffb054" fill-rule="evenodd"/>
            <path id="Path_684" data-name="Path 684" d="M40.663,131.473a1.591,1.591,0,0,1-1.591,1.591,1.6,1.6,0,1,1,1.591-1.591" transform="translate(38.184 145.31)" fill="#ffb054" fill-rule="evenodd"/>
            <path id="Path_685" data-name="Path 685" d="M52.083,131.473a1.613,1.613,0,0,1-1.613,1.591,1.591,1.591,0,0,1-1.591-1.591,1.6,1.6,0,1,1,3.2,0" transform="translate(51.993 145.31)" fill="#ffb054" fill-rule="evenodd"/>
            <path id="Path_686" data-name="Path 686" d="M63.493,131.473a1.613,1.613,0,0,1-1.613,1.591,1.591,1.591,0,0,1-1.591-1.591,1.6,1.6,0,1,1,3.2,0" transform="translate(65.79 145.31)" fill="#ffb054" fill-rule="evenodd"/>
            <path id="Path_687" data-name="Path 687" d="M74.9,131.473a1.613,1.613,0,0,1-1.613,1.591,1.591,1.591,0,0,1-1.591-1.591,1.6,1.6,0,1,1,3.2,0" transform="translate(79.587 145.31)" fill="#ffb054" fill-rule="evenodd"/>
            <path id="Path_688" data-name="Path 688" d="M86.319,131.576a1.613,1.613,0,1,1-.741-1.553,1.613,1.613,0,0,1,.741,1.553" transform="translate(93.379 145.207)" fill="#ffb054" fill-rule="evenodd"/>
            <path id="Path_689" data-name="Path 689" d="M97.753,131.473a1.591,1.591,0,0,1-1.591,1.591,1.6,1.6,0,1,1,1.591-1.591" transform="translate(107.218 145.31)" fill="#ffb054" fill-rule="evenodd"/>
            <path id="Path_690" data-name="Path 690" d="M109.133,131.473a1.591,1.591,0,0,1-1.591,1.591,1.6,1.6,0,1,1,1.591-1.591" transform="translate(120.979 145.31)" fill="#ffb054" fill-rule="evenodd"/>
            <path id="Path_691" data-name="Path 691" d="M120.553,131.473a1.613,1.613,0,0,1-1.613,1.591,1.591,1.591,0,0,1-1.591-1.591,1.6,1.6,0,1,1,3.2,0" transform="translate(134.788 145.31)" fill="#ffb054" fill-rule="evenodd"/>
            <path id="Path_692" data-name="Path 692" d="M131.963,131.473a1.613,1.613,0,0,1-1.613,1.591,1.591,1.591,0,0,1-1.591-1.591,1.6,1.6,0,1,1,3.2,0" transform="translate(148.585 145.31)" fill="#ffb054" fill-rule="evenodd"/>
            <path id="Path_693" data-name="Path 693" d="M143.373,131.473a1.613,1.613,0,0,1-1.613,1.591,1.591,1.591,0,0,1-1.591-1.591,1.6,1.6,0,1,1,3.2,0" transform="translate(162.383 145.31)" fill="#ffb054" fill-rule="evenodd"/>
            <path id="Path_694" data-name="Path 694" d="M154.759,131.576a1.613,1.613,0,1,1-.741-1.553,1.613,1.613,0,0,1,.741,1.553" transform="translate(176.138 145.207)" fill="#ffb054" fill-rule="evenodd"/>
            <path id="Path_695" data-name="Path 695" d="M166.193,131.473a1.591,1.591,0,0,1-1.591,1.591,1.6,1.6,0,1,1,1.591-1.591" transform="translate(189.977 145.31)" fill="#ffb054" fill-rule="evenodd"/>
            <path id="Path_696" data-name="Path 696" d="M177.6,131.473a1.591,1.591,0,0,1-1.591,1.591,1.6,1.6,0,1,1,1.591-1.591" transform="translate(203.774 145.31)" fill="#ffb054" fill-rule="evenodd"/>
            <path id="Path_697" data-name="Path 697" d="M189.023,131.473a1.613,1.613,0,0,1-1.613,1.591,1.591,1.591,0,0,1-1.591-1.591,1.6,1.6,0,1,1,3.2,0" transform="translate(217.584 145.31)" fill="#ffb054" fill-rule="evenodd"/>
            <path id="Path_698" data-name="Path 698" d="M200.433,131.473a1.613,1.613,0,0,1-1.613,1.591,1.591,1.591,0,0,1-1.591-1.591,1.6,1.6,0,1,1,3.2,0" transform="translate(231.381 145.31)" fill="#ffb054" fill-rule="evenodd"/>
            <path id="Path_699" data-name="Path 699" d="M211.843,131.473a1.613,1.613,0,0,1-1.613,1.591,1.591,1.591,0,0,1-1.591-1.591,1.6,1.6,0,1,1,3.2,0" transform="translate(245.178 145.31)" fill="#ffb054" fill-rule="evenodd"/>
            <path id="Path_700" data-name="Path 700" d="M223.265,131.473a1.613,1.613,0,1,1-1.613-1.613,1.613,1.613,0,0,1,1.613,1.613" transform="translate(258.963 145.31)" fill="#ffb054" fill-rule="evenodd"/>
            <g id="Group_160" data-name="Group 160" transform="translate(506.287 0.189)">
              <path id="Path_701" data-name="Path 701" d="M235.593,7a1.613,1.613,0,0,1-1.613,1.591A1.591,1.591,0,0,1,232.39,7a1.6,1.6,0,1,1,3.2,0" transform="translate(-232.39 -5.39)" fill="#ffb054" fill-rule="evenodd"/>
            </g>
            <g id="Group_161" data-name="Group 161" transform="translate(531.494 0.189)">
              <path id="Path_702" data-name="Path 702" d="M247,7a1.613,1.613,0,0,1-1.613,1.591A1.591,1.591,0,0,1,243.8,7,1.6,1.6,0,1,1,247,7" transform="translate(-243.8 -5.39)" fill="#ffb054" fill-rule="evenodd"/>
            </g>
            <g id="Group_162" data-name="Group 162" transform="translate(556.701 0.189)">
              <path id="Path_703" data-name="Path 703" d="M258.413,7a1.591,1.591,0,0,1-1.591,1.591A1.6,1.6,0,1,1,258.413,7" transform="translate(-255.21 -5.39)" fill="#ffb054" fill-rule="evenodd"/>
            </g>
            <g id="Group_163" data-name="Group 163" transform="translate(581.909 0.189)">
              <path id="Path_704" data-name="Path 704" d="M269.823,7a1.591,1.591,0,0,1-1.591,1.591A1.6,1.6,0,1,1,269.823,7" transform="translate(-266.62 -5.39)" fill="#ffb054" fill-rule="evenodd"/>
            </g>
            <g id="Group_164" data-name="Group 164" transform="translate(607.116 0.189)">
              <path id="Path_705" data-name="Path 705" d="M281.233,7a1.591,1.591,0,0,1-1.591,1.591A1.6,1.6,0,1,1,281.233,7" transform="translate(-278.03 -5.39)" fill="#ffb054" fill-rule="evenodd"/>
            </g>
            <path id="Path_706" data-name="Path 706" d="M235.605,17.373a1.613,1.613,0,1,1-1.613-1.613,1.613,1.613,0,0,1,1.613,1.613" transform="translate(273.885 7.338)" fill="#ffb054" fill-rule="evenodd"/>
            <path id="Path_707" data-name="Path 707" d="M247.015,17.373A1.613,1.613,0,1,1,245.4,15.76a1.613,1.613,0,0,1,1.613,1.613" transform="translate(287.682 7.338)" fill="#ffb054" fill-rule="evenodd"/>
            <path id="Path_708" data-name="Path 708" d="M258.413,17.373a1.6,1.6,0,1,1-1.591-1.613,1.613,1.613,0,0,1,1.591,1.613" transform="translate(301.491 7.338)" fill="#ffb054" fill-rule="evenodd"/>
            <path id="Path_709" data-name="Path 709" d="M269.823,17.373a1.6,1.6,0,1,1-1.591-1.613,1.613,1.613,0,0,1,1.591,1.613" transform="translate(315.288 7.338)" fill="#ffb054" fill-rule="evenodd"/>
            <path id="Path_710" data-name="Path 710" d="M281.233,17.373a1.6,1.6,0,1,1-1.591-1.613,1.613,1.613,0,0,1,1.591,1.613" transform="translate(329.086 7.338)" fill="#ffb054" fill-rule="evenodd"/>
            <path id="Path_711" data-name="Path 711" d="M235.593,27.731a1.6,1.6,0,1,1-3.2,0,1.591,1.591,0,0,1,1.591-1.591,1.613,1.613,0,0,1,1.613,1.591" transform="translate(273.897 19.89)" fill="#ffb054" fill-rule="evenodd"/>
            <path id="Path_712" data-name="Path 712" d="M247,27.731a1.6,1.6,0,1,1-3.2,0,1.591,1.591,0,0,1,1.591-1.591A1.613,1.613,0,0,1,247,27.731" transform="translate(287.694 19.89)" fill="#ffb054" fill-rule="evenodd"/>
            <path id="Path_713" data-name="Path 713" d="M258.413,27.731a1.6,1.6,0,1,1-1.591-1.591,1.591,1.591,0,0,1,1.591,1.591" transform="translate(301.491 19.89)" fill="#ffb054" fill-rule="evenodd"/>
            <path id="Path_714" data-name="Path 714" d="M269.823,27.731a1.6,1.6,0,1,1-1.591-1.591,1.591,1.591,0,0,1,1.591,1.591" transform="translate(315.288 19.89)" fill="#ffb054" fill-rule="evenodd"/>
            <path id="Path_715" data-name="Path 715" d="M281.233,27.731a1.6,1.6,0,1,1-1.591-1.591,1.591,1.591,0,0,1,1.591,1.591" transform="translate(329.086 19.89)" fill="#ffb054" fill-rule="evenodd"/>
            <path id="Path_716" data-name="Path 716" d="M235.605,38.113a1.613,1.613,0,1,1-1.613-1.613,1.613,1.613,0,0,1,1.613,1.613" transform="translate(273.885 32.417)" fill="#ffb054" fill-rule="evenodd"/>
            <path id="Path_717" data-name="Path 717" d="M247.015,38.113A1.613,1.613,0,1,1,245.4,36.5a1.613,1.613,0,0,1,1.613,1.613" transform="translate(287.682 32.417)" fill="#ffb054" fill-rule="evenodd"/>
            <path id="Path_718" data-name="Path 718" d="M258.517,38.107a1.591,1.591,0,0,1-1.591,1.613,1.613,1.613,0,1,1,0-3.2,1.591,1.591,0,0,1,1.591,1.591" transform="translate(301.388 32.423)" fill="#ffb054" fill-rule="evenodd"/>
            <path id="Path_719" data-name="Path 719" d="M269.927,38.107a1.591,1.591,0,0,1-1.591,1.613,1.613,1.613,0,1,1,0-3.2,1.591,1.591,0,0,1,1.591,1.591" transform="translate(315.185 32.423)" fill="#ffb054" fill-rule="evenodd"/>
            <path id="Path_720" data-name="Path 720" d="M281.337,38.107a1.591,1.591,0,0,1-1.591,1.613,1.613,1.613,0,1,1,0-3.2,1.591,1.591,0,0,1,1.591,1.591" transform="translate(328.983 32.423)" fill="#ffb054" fill-rule="evenodd"/>
            <path id="Path_721" data-name="Path 721" d="M235.593,48.493a1.613,1.613,0,0,1-1.613,1.591,1.591,1.591,0,0,1-1.591-1.591,1.6,1.6,0,1,1,3.2,0" transform="translate(273.897 44.969)" fill="#ffb054" fill-rule="evenodd"/>
            <path id="Path_722" data-name="Path 722" d="M247,48.493a1.613,1.613,0,0,1-1.613,1.591,1.591,1.591,0,0,1-1.591-1.591,1.6,1.6,0,1,1,3.2,0" transform="translate(287.694 44.969)" fill="#ffb054" fill-rule="evenodd"/>
            <path id="Path_723" data-name="Path 723" d="M258.413,48.493a1.591,1.591,0,0,1-1.591,1.591,1.6,1.6,0,1,1,1.591-1.591" transform="translate(301.491 44.969)" fill="#ffb054" fill-rule="evenodd"/>
            <path id="Path_724" data-name="Path 724" d="M269.823,48.493a1.591,1.591,0,0,1-1.591,1.591,1.6,1.6,0,1,1,1.591-1.591" transform="translate(315.289 44.969)" fill="#ffb054" fill-rule="evenodd"/>
            <path id="Path_725" data-name="Path 725" d="M281.233,48.493a1.591,1.591,0,0,1-1.591,1.591,1.6,1.6,0,1,1,1.591-1.591" transform="translate(329.086 44.969)" fill="#ffb054" fill-rule="evenodd"/>
            <path id="Path_726" data-name="Path 726" d="M235.605,58.883a1.613,1.613,0,1,1-1.613-1.613,1.613,1.613,0,0,1,1.613,1.613" transform="translate(273.885 57.533)" fill="#ffb054" fill-rule="evenodd"/>
            <path id="Path_727" data-name="Path 727" d="M247.016,58.883A1.613,1.613,0,1,1,245.4,57.27a1.613,1.613,0,0,1,1.613,1.613" transform="translate(287.682 57.533)" fill="#ffb054" fill-rule="evenodd"/>
            <path id="Path_728" data-name="Path 728" d="M258.413,58.883a1.6,1.6,0,1,1-1.591-1.613,1.613,1.613,0,0,1,1.591,1.613" transform="translate(301.491 57.533)" fill="#ffb054" fill-rule="evenodd"/>
            <path id="Path_729" data-name="Path 729" d="M269.823,58.883a1.6,1.6,0,1,1-1.591-1.613,1.613,1.613,0,0,1,1.591,1.613" transform="translate(315.288 57.533)" fill="#ffb054" fill-rule="evenodd"/>
            <path id="Path_730" data-name="Path 730" d="M281.233,58.883a1.6,1.6,0,1,1-1.591-1.613,1.613,1.613,0,0,1,1.591,1.613" transform="translate(329.086 57.533)" fill="#ffb054" fill-rule="evenodd"/>
            <path id="Path_731" data-name="Path 731" d="M235.593,69.221a1.6,1.6,0,1,1-3.2,0,1.591,1.591,0,0,1,1.591-1.591,1.613,1.613,0,0,1,1.613,1.591" transform="translate(273.897 70.06)" fill="#ffb054" fill-rule="evenodd"/>
            <path id="Path_732" data-name="Path 732" d="M247,69.221a1.6,1.6,0,1,1-3.2,0,1.591,1.591,0,0,1,1.591-1.591A1.613,1.613,0,0,1,247,69.221" transform="translate(287.694 70.06)" fill="#ffb054" fill-rule="evenodd"/>
            <path id="Path_733" data-name="Path 733" d="M258.413,69.221a1.6,1.6,0,1,1-1.591-1.591,1.591,1.591,0,0,1,1.591,1.591" transform="translate(301.491 70.06)" fill="#ffb054" fill-rule="evenodd"/>
            <path id="Path_734" data-name="Path 734" d="M269.823,69.221a1.6,1.6,0,1,1-1.591-1.591,1.591,1.591,0,0,1,1.591,1.591" transform="translate(315.288 70.06)" fill="#ffb054" fill-rule="evenodd"/>
            <path id="Path_735" data-name="Path 735" d="M281.233,69.221a1.6,1.6,0,1,1-1.591-1.591,1.591,1.591,0,0,1,1.591,1.591" transform="translate(329.086 70.06)" fill="#ffb054" fill-rule="evenodd"/>
            <path id="Path_736" data-name="Path 736" d="M235.605,79.6a1.613,1.613,0,1,1-1.613-1.613,1.613,1.613,0,0,1,1.613,1.613" transform="translate(273.885 82.588)" fill="#ffb054" fill-rule="evenodd"/>
            <path id="Path_737" data-name="Path 737" d="M247.015,79.6A1.613,1.613,0,1,1,245.4,77.99a1.613,1.613,0,0,1,1.613,1.613" transform="translate(287.682 82.588)" fill="#ffb054" fill-rule="evenodd"/>
            <path id="Path_738" data-name="Path 738" d="M258.517,79.6a1.591,1.591,0,0,1-1.591,1.613,1.613,1.613,0,1,1,0-3.2,1.591,1.591,0,0,1,1.591,1.591" transform="translate(301.388 82.594)" fill="#ffb054" fill-rule="evenodd"/>
            <path id="Path_739" data-name="Path 739" d="M269.927,79.6a1.591,1.591,0,0,1-1.591,1.613,1.613,1.613,0,1,1,0-3.2,1.591,1.591,0,0,1,1.591,1.591" transform="translate(315.185 82.594)" fill="#ffb054" fill-rule="evenodd"/>
            <path id="Path_740" data-name="Path 740" d="M281.337,79.6a1.591,1.591,0,0,1-1.591,1.613,1.613,1.613,0,1,1,0-3.2,1.591,1.591,0,0,1,1.591,1.591" transform="translate(328.983 82.594)" fill="#ffb054" fill-rule="evenodd"/>
            <path id="Path_741" data-name="Path 741" d="M235.593,89.983a1.613,1.613,0,0,1-1.613,1.591,1.591,1.591,0,0,1-1.591-1.591,1.6,1.6,0,1,1,3.2,0" transform="translate(273.897 95.14)" fill="#ffb054" fill-rule="evenodd"/>
            <path id="Path_742" data-name="Path 742" d="M247,89.983a1.613,1.613,0,0,1-1.613,1.591,1.591,1.591,0,0,1-1.591-1.591,1.6,1.6,0,1,1,3.2,0" transform="translate(287.694 95.14)" fill="#ffb054" fill-rule="evenodd"/>
            <path id="Path_743" data-name="Path 743" d="M258.413,89.983a1.591,1.591,0,0,1-1.591,1.591,1.6,1.6,0,1,1,1.591-1.591" transform="translate(301.491 95.14)" fill="#ffb054" fill-rule="evenodd"/>
            <path id="Path_744" data-name="Path 744" d="M269.823,89.983a1.591,1.591,0,0,1-1.591,1.591,1.6,1.6,0,1,1,1.591-1.591" transform="translate(315.289 95.14)" fill="#ffb054" fill-rule="evenodd"/>
            <path id="Path_745" data-name="Path 745" d="M281.233,89.983a1.591,1.591,0,0,1-1.591,1.591,1.6,1.6,0,1,1,1.591-1.591" transform="translate(329.086 95.14)" fill="#ffb054" fill-rule="evenodd"/>
            <path id="Path_746" data-name="Path 746" d="M235.605,100.353a1.613,1.613,0,1,1-1.613-1.613,1.613,1.613,0,0,1,1.613,1.613" transform="translate(273.885 107.679)" fill="#ffb054" fill-rule="evenodd"/>
            <path id="Path_747" data-name="Path 747" d="M247.016,100.353A1.613,1.613,0,1,1,245.4,98.74a1.613,1.613,0,0,1,1.613,1.613" transform="translate(287.682 107.679)" fill="#ffb054" fill-rule="evenodd"/>
            <path id="Path_748" data-name="Path 748" d="M258.413,100.353a1.6,1.6,0,1,1-1.591-1.613,1.613,1.613,0,0,1,1.591,1.613" transform="translate(301.491 107.679)" fill="#ffb054" fill-rule="evenodd"/>
            <path id="Path_749" data-name="Path 749" d="M269.823,100.353a1.6,1.6,0,1,1-1.591-1.613,1.613,1.613,0,0,1,1.591,1.613" transform="translate(315.288 107.679)" fill="#ffb054" fill-rule="evenodd"/>
            <path id="Path_750" data-name="Path 750" d="M281.233,100.353a1.6,1.6,0,1,1-1.591-1.613,1.613,1.613,0,0,1,1.591,1.613" transform="translate(329.086 107.679)" fill="#ffb054" fill-rule="evenodd"/>
            <path id="Path_751" data-name="Path 751" d="M235.593,110.711a1.6,1.6,0,1,1-3.2,0,1.591,1.591,0,0,1,1.591-1.591,1.613,1.613,0,0,1,1.613,1.591" transform="translate(273.897 120.231)" fill="#ffb054" fill-rule="evenodd"/>
            <path id="Path_752" data-name="Path 752" d="M247,110.711a1.6,1.6,0,1,1-3.2,0,1.591,1.591,0,0,1,1.591-1.591A1.613,1.613,0,0,1,247,110.711" transform="translate(287.694 120.231)" fill="#ffb054" fill-rule="evenodd"/>
            <path id="Path_753" data-name="Path 753" d="M258.413,110.711a1.6,1.6,0,1,1-1.591-1.591,1.591,1.591,0,0,1,1.591,1.591" transform="translate(301.491 120.231)" fill="#ffb054" fill-rule="evenodd"/>
            <path id="Path_754" data-name="Path 754" d="M269.823,110.711a1.6,1.6,0,1,1-1.591-1.591,1.591,1.591,0,0,1,1.591,1.591" transform="translate(315.288 120.231)" fill="#ffb054" fill-rule="evenodd"/>
            <path id="Path_755" data-name="Path 755" d="M281.233,110.711a1.6,1.6,0,1,1-1.591-1.591,1.591,1.591,0,0,1,1.591,1.591" transform="translate(329.086 120.231)" fill="#ffb054" fill-rule="evenodd"/>
            <path id="Path_756" data-name="Path 756" d="M235.605,121.093a1.613,1.613,0,1,1-1.613-1.613,1.613,1.613,0,0,1,1.613,1.613" transform="translate(273.885 132.758)" fill="#ffb054" fill-rule="evenodd"/>
            <path id="Path_757" data-name="Path 757" d="M247.015,121.093a1.613,1.613,0,1,1-1.613-1.613,1.613,1.613,0,0,1,1.613,1.613" transform="translate(287.682 132.758)" fill="#ffb054" fill-rule="evenodd"/>
            <path id="Path_758" data-name="Path 758" d="M258.517,121.087a1.591,1.591,0,0,1-1.591,1.613,1.613,1.613,0,1,1,0-3.2,1.591,1.591,0,0,1,1.591,1.591" transform="translate(301.388 132.764)" fill="#ffb054" fill-rule="evenodd"/>
            <path id="Path_759" data-name="Path 759" d="M269.927,121.087a1.591,1.591,0,0,1-1.591,1.613,1.613,1.613,0,1,1,0-3.2,1.591,1.591,0,0,1,1.591,1.591" transform="translate(315.185 132.764)" fill="#ffb054" fill-rule="evenodd"/>
            <path id="Path_760" data-name="Path 760" d="M281.337,121.087a1.591,1.591,0,0,1-1.591,1.613,1.613,1.613,0,1,1,0-3.2,1.591,1.591,0,0,1,1.591,1.591" transform="translate(328.983 132.764)" fill="#ffb054" fill-rule="evenodd"/>
            <path id="Path_761" data-name="Path 761" d="M235.593,131.473a1.613,1.613,0,0,1-1.613,1.591,1.591,1.591,0,0,1-1.591-1.591,1.6,1.6,0,1,1,3.2,0" transform="translate(273.897 145.31)" fill="#ffb054" fill-rule="evenodd"/>
            <path id="Path_762" data-name="Path 762" d="M247,131.473a1.613,1.613,0,0,1-1.613,1.591,1.591,1.591,0,0,1-1.591-1.591,1.6,1.6,0,1,1,3.2,0" transform="translate(287.694 145.31)" fill="#ffb054" fill-rule="evenodd"/>
            <path id="Path_763" data-name="Path 763" d="M258.413,131.473a1.591,1.591,0,0,1-1.591,1.591,1.6,1.6,0,1,1,1.591-1.591" transform="translate(301.491 145.31)" fill="#ffb054" fill-rule="evenodd"/>
            <path id="Path_764" data-name="Path 764" d="M269.823,131.473a1.591,1.591,0,0,1-1.591,1.591,1.6,1.6,0,1,1,1.591-1.591" transform="translate(315.289 145.31)" fill="#ffb054" fill-rule="evenodd"/>
            <path id="Path_765" data-name="Path 765" d="M281.233,131.473a1.591,1.591,0,0,1-1.591,1.591,1.6,1.6,0,1,1,1.591-1.591" transform="translate(329.086 145.31)" fill="#ffb054" fill-rule="evenodd"/>
          </g>
        </g>
      </g>
    </g>
    <g id="data-science-desktop.b430512" transform="translate(3034 -2994.872)">
      <g id="Group_346" data-name="Group 346" transform="translate(181.153 94.002)">
        <path id="Path_2768" data-name="Path 2768" d="M339.287,184.8H83.968A1.966,1.966,0,0,1,82,182.725V42.55H341.276V182.725a1.988,1.988,0,0,1-1.988,1.988" transform="translate(-81.999 -42.55)" fill="#ffdab2" fill-rule="evenodd"/>
      </g>
      <g id="Group_347" data-name="Group 347" transform="translate(181.156 68.154)">
        <path id="Path_2769" data-name="Path 2769" d="M341.274,57.118H82v-24.3a1.966,1.966,0,0,1,1.966-1.966h255.32a1.966,1.966,0,0,1,1.988,1.966Z" transform="translate(-82 -30.85)" fill="#ffb054" fill-rule="evenodd"/>
      </g>
      <path id="Path_2770" data-name="Path 2770" d="M92.3,38.475a2.7,2.7,0,1,1-2.7-2.7,2.7,2.7,0,0,1,2.7,2.7" transform="translate(105.093 43.266)" fill="#fff" fill-rule="evenodd"/>
      <path id="Path_2771" data-name="Path 2771" d="M98.4,38.475a2.7,2.7,0,1,1-2.7-2.7,2.7,2.7,0,0,1,2.7,2.7" transform="translate(112.47 43.266)" fill="#fff" fill-rule="evenodd"/>
      <path id="Path_2772" data-name="Path 2772" d="M104.5,38.475a2.7,2.7,0,1,1-2.7-2.7,2.7,2.7,0,0,1,2.7,2.7" transform="translate(119.846 43.266)" fill="#fff" fill-rule="evenodd"/>
      <path id="Path_2773" data-name="Path 2773" d="M115.691,116.28a1.37,1.37,0,0,1-.972-2.209L155.369,72.1a1.37,1.37,0,0,1,1.7-.221L193.743,94.85l35.834-35.635a1.37,1.37,0,0,1,1.922,0,1.392,1.392,0,0,1,0,1.944L194.958,97.435a1.37,1.37,0,0,1-1.679.177L156.628,74.68l-39.9,41.18a1.392,1.392,0,0,1-.972.42" transform="translate(138.369 71.128)" fill="#fff" fill-rule="evenodd"/>
      <path id="Path_2774" data-name="Path 2774" d="M162.58,64.627a8.263,8.263,0,1,1,2.428,5.85,8.285,8.285,0,0,1-2.428-5.85" transform="translate(196.595 68.103)" fill="#f80" fill-rule="evenodd"/>
      <path id="Path_2775" data-name="Path 2775" d="M146.14,79.585a8.262,8.262,0,1,1,2.412,5.857,8.285,8.285,0,0,1-2.412-5.857" transform="translate(176.715 86.217)" fill="#f80" fill-rule="evenodd"/>
      <path id="Path_2776" data-name="Path 2776" d="M129.69,70.255a8.285,8.285,0,1,1,8.263,8.285,8.285,8.285,0,0,1-8.263-8.285" transform="translate(156.824 74.935)" fill="#f80" fill-rule="evenodd"/>
      <path id="Path_3124" data-name="Path 3124" d="M129.69,70.255a8.285,8.285,0,1,1,8.263,8.285,8.285,8.285,0,0,1-8.263-8.285" transform="translate(115.824 115.935)" fill="#f80" fill-rule="evenodd"/>
    </g>
  </g>
</svg>
