<svg xmlns="http://www.w3.org/2000/svg" width="623" height="305" viewBox="0 0 623 305">
  <g id="Group_423" data-name="Group 423" transform="translate(-3033 1315)">
    <g id="design-creative-desktop.109353b" transform="translate(3033 -1314.872)">
      <rect id="Rectangle_123" data-name="Rectangle 123" width="623" height="305" transform="translate(0 -0.128)" fill="#f6f2ea"/>
      <g id="Group_166" data-name="Group 166" transform="translate(249.589 68.818)">
        <path id="Path_766" data-name="Path 766" d="M233.564,91.241a60.29,60.29,0,1,0-88.082,53.706,6.12,6.12,0,0,1,2.7,4.418l4.109,16.856a4.9,4.9,0,0,0,4.794,4h32.431a4.9,4.9,0,0,0,4.794-3.977l4.109-16.878a5.832,5.832,0,0,1,2.7-4.418,60.621,60.621,0,0,0,32.453-53.706" transform="translate(-112.976 -31.15)" fill="#ffb054" fill-rule="evenodd"/>
      </g>
      <g id="Group_167" data-name="Group 167" transform="translate(290.733 216.084)">
        <path id="Path_767" data-name="Path 767" d="M131.6,106.824h38.33V97.81H131.6Z" transform="translate(-131.6 -97.81)" fill="#f80" fill-rule="evenodd"/>
      </g>
      <g id="Group_168" data-name="Group 168" transform="translate(290.733 229.45)">
        <path id="Path_768" data-name="Path 768" d="M131.6,112.874h38.33V103.86H131.6Z" transform="translate(-131.6 -103.86)" fill="#f80" fill-rule="evenodd"/>
      </g>
      <g id="Group_169" data-name="Group 169" transform="translate(275.682 92.197)">
        <path id="Path_769" data-name="Path 769" d="M161.577,88.717a13.255,13.255,0,1,1,10.339-10.383A13.255,13.255,0,0,1,161.577,88.717ZM192.109,67.4a2.209,2.209,0,0,0-2.519-2.032l-4.684.6-.685-.4a25.9,25.9,0,0,0-2.452-4.728.972.972,0,0,1,0-1.127l2.5-3a2.408,2.408,0,0,0,0-3.513l-7.776-6.451a2.209,2.209,0,0,0-3.225.287l-2.7,3.27a.95.95,0,0,1-1.083.265,27.148,27.148,0,0,0-4.927-1.546.95.95,0,0,1-.773-.839l-.376-4.22a2.209,2.209,0,0,0-2.474-2.209l-10.03.928a2.209,2.209,0,0,0-2.055,2.519l.376,4.22a.928.928,0,0,1-.574.95,26.619,26.619,0,0,0-4.573,2.43.928.928,0,0,1-1.1,0l-2.982-2.5a2.364,2.364,0,0,0-3.491,0l-6.429,7.8a2.209,2.209,0,0,0,.287,3.225l3.248,2.717a.95.95,0,0,1,.265,1.1,26.511,26.511,0,0,0-1.591,5.236l-.221.221-4.9.552a2.386,2.386,0,0,0-2.364,2.563l1.127,10.273a2.209,2.209,0,0,0,2.519,2.032l4.418-.508a.906.906,0,0,1,.862.574,28.364,28.364,0,0,0,2.585,4.706.928.928,0,0,1,0,1.127l-2.717,3.27a2.209,2.209,0,0,0,.309,3.225l7.71,6.473a2.209,2.209,0,0,0,3.225-.287l2.518-3.27a.95.95,0,0,1,1.1-.265,26.511,26.511,0,0,0,4.927,1.546.972.972,0,0,1,.751.84l.376,4.22a2.209,2.209,0,0,0,2.5,2.077l10.008-.906a2.32,2.32,0,0,0,2.077-2.519l-.4-4.22a.906.906,0,0,1,.6-.95,25.628,25.628,0,0,0,4.551-2.43.928.928,0,0,1,1.1,0l2.982,2.5a2.364,2.364,0,0,0,3.513,0l6.429-7.776a2.209,2.209,0,0,0-.309-3.225L184.31,87.5a.95.95,0,0,1-.243-1.1,27.42,27.42,0,0,0,1.569-5.17l.376-.353,5.17-.574a2.209,2.209,0,0,0,2.032-2.541Z" transform="translate(-124.787 -41.733)" fill="#fff" fill-rule="evenodd"/>
      </g>
    </g>
  </g>
</svg>
