<svg xmlns="http://www.w3.org/2000/svg" width="623" height="305" viewBox="0 0 623 305">
  <g id="development-desktop.29e32ce" transform="translate(0 0.128)">
    <path id="Path_439" data-name="Path 439" d="M0,0H623V305H0Z" transform="translate(0 -0.128)" fill="#f6f2ea"/>
    <g id="Group_134" data-name="Group 134" transform="translate(7.114 11.719)">
      <g id="Group_109" data-name="Group 109" transform="translate(0.133 0.189)">
        <path id="Path_91" data-name="Path 91" d="M6.373,7a1.613,1.613,0,0,1-1.5,1.591A1.591,1.591,0,0,1,3.28,7a1.6,1.6,0,1,1,3.2,0" transform="translate(-3.28 -5.39)" fill="#ffb054" fill-rule="evenodd"/>
      </g>
      <g id="Group_110" data-name="Group 110" transform="translate(25.218 0)">
        <path id="Path_92" data-name="Path 92" d="M17.849,7.106a1.613,1.613,0,1,1-.741-1.553,1.613,1.613,0,0,1,.741,1.553" transform="translate(-14.635 -5.305)" fill="#ffb054" fill-rule="evenodd"/>
      </g>
      <g id="Group_111" data-name="Group 111" transform="translate(50.436 0.189)">
        <path id="Path_93" data-name="Path 93" d="M29.253,7a1.591,1.591,0,0,1-1.591,1.591A1.6,1.6,0,1,1,29.253,7" transform="translate(-26.05 -5.39)" fill="#ffb054" fill-rule="evenodd"/>
      </g>
      <g id="Group_112" data-name="Group 112" transform="translate(75.644 0.189)">
        <path id="Path_94" data-name="Path 94" d="M40.663,7a1.591,1.591,0,0,1-1.591,1.591A1.6,1.6,0,1,1,40.663,7" transform="translate(-37.46 -5.39)" fill="#ffb054" fill-rule="evenodd"/>
      </g>
      <g id="Group_113" data-name="Group 113" transform="translate(100.873 0.189)">
        <path id="Path_95" data-name="Path 95" d="M52.083,7a1.613,1.613,0,0,1-1.613,1.591A1.591,1.591,0,0,1,48.88,7a1.6,1.6,0,1,1,3.2,0" transform="translate(-48.88 -5.39)" fill="#ffb054" fill-rule="evenodd"/>
      </g>
      <g id="Group_114" data-name="Group 114" transform="translate(126.08 0.189)">
        <path id="Path_96" data-name="Path 96" d="M63.493,7a1.613,1.613,0,0,1-1.613,1.591A1.591,1.591,0,0,1,60.29,7a1.591,1.591,0,1,1,3.181,0" transform="translate(-60.29 -5.39)" fill="#ffb054" fill-rule="evenodd"/>
      </g>
      <g id="Group_115" data-name="Group 115" transform="translate(151.287 0.189)">
        <path id="Path_97" data-name="Path 97" d="M74.9,7a1.613,1.613,0,0,1-1.613,1.591A1.591,1.591,0,0,1,71.7,7a1.6,1.6,0,1,1,3.2,0" transform="translate(-71.7 -5.39)" fill="#ffb054" fill-rule="evenodd"/>
      </g>
      <g id="Group_116" data-name="Group 116" transform="translate(176.484)">
        <path id="Path_98" data-name="Path 98" d="M86.319,7.106a1.613,1.613,0,1,1-.741-1.553,1.613,1.613,0,0,1,.741,1.553" transform="translate(-83.105 -5.305)" fill="#ffb054" fill-rule="evenodd"/>
      </g>
      <g id="Group_117" data-name="Group 117" transform="translate(201.768 0.189)">
        <path id="Path_99" data-name="Path 99" d="M97.753,7a1.591,1.591,0,0,1-1.591,1.591A1.6,1.6,0,1,1,97.753,7" transform="translate(-94.55 -5.39)" fill="#ffb054" fill-rule="evenodd"/>
      </g>
      <g id="Group_118" data-name="Group 118" transform="translate(226.909 0.189)">
        <path id="Path_100" data-name="Path 100" d="M109.133,7a1.591,1.591,0,0,1-1.591,1.591A1.6,1.6,0,1,1,109.133,7" transform="translate(-105.93 -5.39)" fill="#ffb054" fill-rule="evenodd"/>
      </g>
      <g id="Group_119" data-name="Group 119" transform="translate(252.138 0.189)">
        <path id="Path_101" data-name="Path 101" d="M120.553,7a1.613,1.613,0,0,1-1.613,1.591A1.591,1.591,0,0,1,117.35,7a1.6,1.6,0,1,1,3.2,0" transform="translate(-117.35 -5.39)" fill="#ffb054" fill-rule="evenodd"/>
      </g>
      <g id="Group_120" data-name="Group 120" transform="translate(277.345 0.189)">
        <path id="Path_102" data-name="Path 102" d="M131.963,7a1.613,1.613,0,0,1-1.613,1.591A1.591,1.591,0,0,1,128.76,7a1.6,1.6,0,1,1,3.2,0" transform="translate(-128.76 -5.39)" fill="#ffb054" fill-rule="evenodd"/>
      </g>
      <g id="Group_121" data-name="Group 121" transform="translate(302.553 0.189)">
        <path id="Path_103" data-name="Path 103" d="M143.373,7a1.613,1.613,0,0,1-1.613,1.591A1.591,1.591,0,0,1,140.17,7a1.6,1.6,0,1,1,3.2,0" transform="translate(-140.17 -5.39)" fill="#ffb054" fill-rule="evenodd"/>
      </g>
      <g id="Group_122" data-name="Group 122" transform="translate(327.682 0)">
        <path id="Path_104" data-name="Path 104" d="M154.759,7.106a1.613,1.613,0,1,1-.741-1.553,1.613,1.613,0,0,1,.741,1.553" transform="translate(-151.545 -5.305)" fill="#ffb054" fill-rule="evenodd"/>
      </g>
      <g id="Group_123" data-name="Group 123" transform="translate(352.967 0.189)">
        <path id="Path_105" data-name="Path 105" d="M166.193,7A1.591,1.591,0,0,1,164.6,8.593,1.6,1.6,0,1,1,166.193,7" transform="translate(-162.99 -5.39)" fill="#ffb054" fill-rule="evenodd"/>
      </g>
      <g id="Group_124" data-name="Group 124" transform="translate(378.174 0.189)">
        <path id="Path_106" data-name="Path 106" d="M177.6,7a1.591,1.591,0,0,1-1.591,1.591A1.6,1.6,0,1,1,177.6,7" transform="translate(-174.4 -5.39)" fill="#ffb054" fill-rule="evenodd"/>
      </g>
      <g id="Group_125" data-name="Group 125" transform="translate(403.404 0.189)">
        <path id="Path_107" data-name="Path 107" d="M189.023,7a1.613,1.613,0,0,1-1.613,1.591A1.591,1.591,0,0,1,185.82,7a1.6,1.6,0,1,1,3.2,0" transform="translate(-185.82 -5.39)" fill="#ffb054" fill-rule="evenodd"/>
      </g>
      <g id="Group_126" data-name="Group 126" transform="translate(428.611 0.189)">
        <path id="Path_108" data-name="Path 108" d="M200.433,7a1.613,1.613,0,0,1-1.613,1.591A1.591,1.591,0,0,1,197.23,7a1.6,1.6,0,1,1,3.2,0" transform="translate(-197.23 -5.39)" fill="#ffb054" fill-rule="evenodd"/>
      </g>
      <g id="Group_127" data-name="Group 127" transform="translate(453.818 0.189)">
        <path id="Path_109" data-name="Path 109" d="M211.843,7a1.613,1.613,0,0,1-1.613,1.591A1.591,1.591,0,0,1,208.64,7a1.6,1.6,0,1,1,3.2,0" transform="translate(-208.64 -5.39)" fill="#ffb054" fill-rule="evenodd"/>
      </g>
      <g id="Group_128" data-name="Group 128" transform="translate(479.003 0.189)">
        <path id="Path_110" data-name="Path 110" d="M223.265,7a1.613,1.613,0,1,1-1.613-1.613A1.613,1.613,0,0,1,223.265,7" transform="translate(-220.04 -5.39)" fill="#ffb054" fill-rule="evenodd"/>
      </g>
      <path id="Path_111" data-name="Path 111" d="M6.445,17.373A1.613,1.613,0,1,1,4.833,15.76a1.613,1.613,0,0,1,1.613,1.613" transform="translate(-3.22 7.338)" fill="#ffb054" fill-rule="evenodd"/>
      <path id="Path_112" data-name="Path 112" d="M17.855,17.373a1.613,1.613,0,1,1-1.591-1.613,1.613,1.613,0,0,1,1.591,1.613" transform="translate(10.577 7.338)" fill="#ffb054" fill-rule="evenodd"/>
      <path id="Path_113" data-name="Path 113" d="M29.253,17.373a1.6,1.6,0,1,1-1.591-1.613,1.613,1.613,0,0,1,1.591,1.613" transform="translate(24.386 7.338)" fill="#ffb054" fill-rule="evenodd"/>
      <path id="Path_114" data-name="Path 114" d="M40.663,17.373a1.6,1.6,0,1,1-1.591-1.613,1.613,1.613,0,0,1,1.591,1.613" transform="translate(38.184 7.338)" fill="#ffb054" fill-rule="evenodd"/>
      <path id="Path_115" data-name="Path 115" d="M52.1,17.373a1.613,1.613,0,1,1-1.613-1.613A1.613,1.613,0,0,1,52.1,17.373" transform="translate(51.981 7.338)" fill="#ffb054" fill-rule="evenodd"/>
      <path id="Path_116" data-name="Path 116" d="M63.505,17.373a1.613,1.613,0,1,1-1.613-1.613,1.613,1.613,0,0,1,1.613,1.613" transform="translate(65.778 7.338)" fill="#ffb054" fill-rule="evenodd"/>
      <path id="Path_117" data-name="Path 117" d="M74.915,17.373A1.613,1.613,0,1,1,73.3,15.76a1.613,1.613,0,0,1,1.613,1.613" transform="translate(79.575 7.338)" fill="#ffb054" fill-rule="evenodd"/>
      <path id="Path_118" data-name="Path 118" d="M86.325,17.373a1.613,1.613,0,1,1-1.591-1.613,1.613,1.613,0,0,1,1.591,1.613" transform="translate(93.372 7.338)" fill="#ffb054" fill-rule="evenodd"/>
      <path id="Path_119" data-name="Path 119" d="M97.753,17.373a1.6,1.6,0,1,1-1.591-1.613,1.613,1.613,0,0,1,1.591,1.613" transform="translate(107.218 7.338)" fill="#ffb054" fill-rule="evenodd"/>
      <path id="Path_120" data-name="Path 120" d="M109.133,17.373a1.6,1.6,0,1,1-1.591-1.613,1.613,1.613,0,0,1,1.591,1.613" transform="translate(120.979 7.338)" fill="#ffb054" fill-rule="evenodd"/>
      <path id="Path_121" data-name="Path 121" d="M120.565,17.373a1.613,1.613,0,1,1-1.613-1.613,1.613,1.613,0,0,1,1.613,1.613" transform="translate(134.776 7.338)" fill="#ffb054" fill-rule="evenodd"/>
      <path id="Path_122" data-name="Path 122" d="M131.975,17.373a1.613,1.613,0,1,1-1.613-1.613,1.613,1.613,0,0,1,1.613,1.613" transform="translate(148.573 7.338)" fill="#ffb054" fill-rule="evenodd"/>
      <path id="Path_123" data-name="Path 123" d="M143.385,17.373a1.613,1.613,0,1,1-1.613-1.613,1.613,1.613,0,0,1,1.613,1.613" transform="translate(162.371 7.338)" fill="#ffb054" fill-rule="evenodd"/>
      <path id="Path_124" data-name="Path 124" d="M154.766,17.373a1.613,1.613,0,1,1-1.591-1.613,1.613,1.613,0,0,1,1.591,1.613" transform="translate(176.131 7.338)" fill="#ffb054" fill-rule="evenodd"/>
      <path id="Path_125" data-name="Path 125" d="M166.193,17.373A1.6,1.6,0,1,1,164.6,15.76a1.613,1.613,0,0,1,1.591,1.613" transform="translate(189.977 7.338)" fill="#ffb054" fill-rule="evenodd"/>
      <path id="Path_126" data-name="Path 126" d="M177.6,17.373a1.6,1.6,0,1,1-1.591-1.613,1.613,1.613,0,0,1,1.591,1.613" transform="translate(203.774 7.338)" fill="#ffb054" fill-rule="evenodd"/>
      <path id="Path_127" data-name="Path 127" d="M189.035,17.373a1.613,1.613,0,1,1-1.613-1.613,1.613,1.613,0,0,1,1.613,1.613" transform="translate(217.571 7.338)" fill="#ffb054" fill-rule="evenodd"/>
      <path id="Path_128" data-name="Path 128" d="M200.445,17.373a1.613,1.613,0,1,1-1.613-1.613,1.613,1.613,0,0,1,1.613,1.613" transform="translate(231.369 7.338)" fill="#ffb054" fill-rule="evenodd"/>
      <path id="Path_129" data-name="Path 129" d="M211.855,17.373a1.613,1.613,0,1,1-1.613-1.613,1.613,1.613,0,0,1,1.613,1.613" transform="translate(245.166 7.338)" fill="#ffb054" fill-rule="evenodd"/>
      <path id="Path_130" data-name="Path 130" d="M223.265,17.373a1.613,1.613,0,1,1-1.613-1.613,1.613,1.613,0,0,1,1.613,1.613" transform="translate(258.963 7.338)" fill="#ffb054" fill-rule="evenodd"/>
      <path id="Path_131" data-name="Path 131" d="M6.433,27.733a1.6,1.6,0,1,1-3.2,0,1.591,1.591,0,0,1,1.7-1.591,1.613,1.613,0,0,1,1.613,1.591" transform="translate(-3.208 19.888)" fill="#ffb054" fill-rule="evenodd"/>
      <path id="Path_132" data-name="Path 132" d="M17.855,27.731a1.613,1.613,0,1,1-1.591-1.591,1.591,1.591,0,0,1,1.591,1.591" transform="translate(10.577 19.89)" fill="#ffb054" fill-rule="evenodd"/>
      <path id="Path_133" data-name="Path 133" d="M29.253,27.731a1.6,1.6,0,1,1-1.591-1.591,1.591,1.591,0,0,1,1.591,1.591" transform="translate(24.386 19.89)" fill="#ffb054" fill-rule="evenodd"/>
      <path id="Path_134" data-name="Path 134" d="M40.663,27.731a1.6,1.6,0,1,1-1.591-1.591,1.591,1.591,0,0,1,1.591,1.591" transform="translate(38.184 19.89)" fill="#ffb054" fill-rule="evenodd"/>
      <path id="Path_135" data-name="Path 135" d="M52.083,27.731a1.6,1.6,0,1,1-3.2,0,1.591,1.591,0,0,1,1.591-1.591,1.613,1.613,0,0,1,1.613,1.591" transform="translate(51.993 19.89)" fill="#ffb054" fill-rule="evenodd"/>
      <path id="Path_136" data-name="Path 136" d="M63.493,27.731a1.6,1.6,0,1,1-3.2,0,1.591,1.591,0,0,1,1.591-1.591,1.613,1.613,0,0,1,1.613,1.591" transform="translate(65.79 19.89)" fill="#ffb054" fill-rule="evenodd"/>
      <path id="Path_137" data-name="Path 137" d="M74.9,27.731a1.6,1.6,0,1,1-3.2,0,1.591,1.591,0,0,1,1.591-1.591A1.613,1.613,0,0,1,74.9,27.731" transform="translate(79.587 19.89)" fill="#ffb054" fill-rule="evenodd"/>
      <path id="Path_138" data-name="Path 138" d="M86.325,27.731a1.613,1.613,0,1,1-1.591-1.591,1.591,1.591,0,0,1,1.591,1.591" transform="translate(93.373 19.89)" fill="#ffb054" fill-rule="evenodd"/>
      <path id="Path_139" data-name="Path 139" d="M97.753,27.731a1.6,1.6,0,1,1-1.591-1.591,1.591,1.591,0,0,1,1.591,1.591" transform="translate(107.218 19.89)" fill="#ffb054" fill-rule="evenodd"/>
      <path id="Path_140" data-name="Path 140" d="M109.133,27.731a1.6,1.6,0,1,1-1.591-1.591,1.591,1.591,0,0,1,1.591,1.591" transform="translate(120.979 19.89)" fill="#ffb054" fill-rule="evenodd"/>
      <path id="Path_141" data-name="Path 141" d="M120.553,27.731a1.6,1.6,0,1,1-3.2,0,1.591,1.591,0,0,1,1.591-1.591,1.613,1.613,0,0,1,1.613,1.591" transform="translate(134.788 19.89)" fill="#ffb054" fill-rule="evenodd"/>
      <path id="Path_142" data-name="Path 142" d="M131.963,27.731a1.6,1.6,0,1,1-3.2,0,1.591,1.591,0,0,1,1.591-1.591,1.613,1.613,0,0,1,1.613,1.591" transform="translate(148.585 19.89)" fill="#ffb054" fill-rule="evenodd"/>
      <path id="Path_143" data-name="Path 143" d="M143.373,27.731a1.6,1.6,0,1,1-3.2,0,1.591,1.591,0,0,1,1.591-1.591,1.613,1.613,0,0,1,1.613,1.591" transform="translate(162.383 19.89)" fill="#ffb054" fill-rule="evenodd"/>
      <path id="Path_144" data-name="Path 144" d="M154.765,27.731a1.613,1.613,0,1,1-1.591-1.591,1.591,1.591,0,0,1,1.591,1.591" transform="translate(176.132 19.89)" fill="#ffb054" fill-rule="evenodd"/>
      <path id="Path_145" data-name="Path 145" d="M166.193,27.731A1.6,1.6,0,1,1,164.6,26.14a1.591,1.591,0,0,1,1.591,1.591" transform="translate(189.977 19.89)" fill="#ffb054" fill-rule="evenodd"/>
      <path id="Path_146" data-name="Path 146" d="M177.6,27.731a1.6,1.6,0,1,1-1.591-1.591,1.591,1.591,0,0,1,1.591,1.591" transform="translate(203.774 19.89)" fill="#ffb054" fill-rule="evenodd"/>
      <path id="Path_147" data-name="Path 147" d="M189.023,27.731a1.6,1.6,0,1,1-3.2,0,1.591,1.591,0,0,1,1.591-1.591,1.613,1.613,0,0,1,1.613,1.591" transform="translate(217.584 19.89)" fill="#ffb054" fill-rule="evenodd"/>
      <path id="Path_148" data-name="Path 148" d="M200.433,27.731a1.6,1.6,0,1,1-3.2,0,1.591,1.591,0,0,1,1.591-1.591,1.613,1.613,0,0,1,1.613,1.591" transform="translate(231.381 19.89)" fill="#ffb054" fill-rule="evenodd"/>
      <path id="Path_149" data-name="Path 149" d="M211.843,27.731a1.6,1.6,0,1,1-3.2,0,1.591,1.591,0,0,1,1.591-1.591,1.613,1.613,0,0,1,1.613,1.591" transform="translate(245.178 19.89)" fill="#ffb054" fill-rule="evenodd"/>
      <path id="Path_150" data-name="Path 150" d="M223.259,27.64a1.613,1.613,0,1,1-1.6-1.424,1.613,1.613,0,0,1,1.6,1.424" transform="translate(258.969 19.981)" fill="#ffb054" fill-rule="evenodd"/>
      <path id="Path_151" data-name="Path 151" d="M6.385,38.064a1.613,1.613,0,0,1-1.5,1.7A1.613,1.613,0,1,1,6.5,38.153" transform="translate(-3.16 32.466)" fill="#ffb054" fill-rule="evenodd"/>
      <path id="Path_152" data-name="Path 152" d="M17.855,38.1a1.613,1.613,0,1,1-1.591-1.591A1.591,1.591,0,0,1,17.855,38.1" transform="translate(10.577 32.429)" fill="#ffb054" fill-rule="evenodd"/>
      <path id="Path_153" data-name="Path 153" d="M29.357,38.107a1.591,1.591,0,0,1-1.591,1.613,1.613,1.613,0,1,1,0-3.2,1.591,1.591,0,0,1,1.591,1.591" transform="translate(24.283 32.423)" fill="#ffb054" fill-rule="evenodd"/>
      <path id="Path_154" data-name="Path 154" d="M40.767,38.107a1.591,1.591,0,0,1-1.591,1.613,1.613,1.613,0,1,1,0-3.2,1.591,1.591,0,0,1,1.591,1.591" transform="translate(38.081 32.423)" fill="#ffb054" fill-rule="evenodd"/>
      <path id="Path_155" data-name="Path 155" d="M52.1,38.113A1.613,1.613,0,1,1,50.483,36.5,1.613,1.613,0,0,1,52.1,38.113" transform="translate(51.981 32.417)" fill="#ffb054" fill-rule="evenodd"/>
      <path id="Path_156" data-name="Path 156" d="M63.518,38.064a1.3,1.3,0,1,0-.022.088" transform="translate(65.766 32.466)" fill="#ffb054" fill-rule="evenodd"/>
      <path id="Path_157" data-name="Path 157" d="M74.915,38.113A1.613,1.613,0,1,1,73.3,36.5a1.613,1.613,0,0,1,1.613,1.613" transform="translate(79.575 32.417)" fill="#ffb054" fill-rule="evenodd"/>
      <path id="Path_158" data-name="Path 158" d="M86.325,38.1a1.613,1.613,0,1,1-1.591-1.591A1.591,1.591,0,0,1,86.325,38.1" transform="translate(93.373 32.429)" fill="#ffb054" fill-rule="evenodd"/>
      <path id="Path_159" data-name="Path 159" d="M97.856,38.107a1.591,1.591,0,0,1-1.591,1.613,1.613,1.613,0,1,1,0-3.2,1.591,1.591,0,0,1,1.591,1.591" transform="translate(107.115 32.423)" fill="#ffb054" fill-rule="evenodd"/>
      <path id="Path_160" data-name="Path 160" d="M109.237,38.107a1.591,1.591,0,0,1-1.591,1.613,1.613,1.613,0,1,1,0-3.2,1.591,1.591,0,0,1,1.591,1.591" transform="translate(120.876 32.423)" fill="#ffb054" fill-rule="evenodd"/>
      <path id="Path_161" data-name="Path 161" d="M120.565,38.113a1.613,1.613,0,1,1-1.613-1.613,1.613,1.613,0,0,1,1.613,1.613" transform="translate(134.776 32.417)" fill="#ffb054" fill-rule="evenodd"/>
      <path id="Path_162" data-name="Path 162" d="M131.975,38.113a1.613,1.613,0,1,1-1.613-1.613,1.613,1.613,0,0,1,1.613,1.613" transform="translate(148.573 32.417)" fill="#ffb054" fill-rule="evenodd"/>
      <path id="Path_163" data-name="Path 163" d="M143.385,38.113a1.613,1.613,0,1,1-1.613-1.613,1.613,1.613,0,0,1,1.613,1.613" transform="translate(162.371 32.417)" fill="#ffb054" fill-rule="evenodd"/>
      <path id="Path_164" data-name="Path 164" d="M154.765,38.1a1.613,1.613,0,1,1-1.591-1.591,1.591,1.591,0,0,1,1.591,1.591" transform="translate(176.132 32.429)" fill="#ffb054" fill-rule="evenodd"/>
      <path id="Path_165" data-name="Path 165" d="M166.3,38.107a1.591,1.591,0,0,1-1.591,1.613,1.613,1.613,0,1,1,0-3.2,1.591,1.591,0,0,1,1.591,1.591" transform="translate(189.874 32.423)" fill="#ffb054" fill-rule="evenodd"/>
      <path id="Path_166" data-name="Path 166" d="M177.706,38.107a1.591,1.591,0,0,1-1.591,1.613,1.613,1.613,0,1,1,0-3.2,1.591,1.591,0,0,1,1.591,1.591" transform="translate(203.671 32.423)" fill="#ffb054" fill-rule="evenodd"/>
      <path id="Path_167" data-name="Path 167" d="M189.035,38.113a1.613,1.613,0,1,1-1.613-1.613,1.613,1.613,0,0,1,1.613,1.613" transform="translate(217.572 32.417)" fill="#ffb054" fill-rule="evenodd"/>
      <path id="Path_169" data-name="Path 169" d="M211.855,38.113a1.613,1.613,0,1,1-1.613-1.613,1.613,1.613,0,0,1,1.613,1.613" transform="translate(245.166 32.417)" fill="#ffb054" fill-rule="evenodd"/>
      <path id="Path_170" data-name="Path 170" d="M223.265,38.1a1.613,1.613,0,1,1-1.613-1.591,1.591,1.591,0,0,1,1.613,1.591" transform="translate(258.963 32.429)" fill="#ffb054" fill-rule="evenodd"/>
      <path id="Path_171" data-name="Path 171" d="M6.433,48.494a1.613,1.613,0,0,1-1.613,1.591A1.591,1.591,0,0,1,3.23,48.494a1.613,1.613,0,0,1,1.7-1.613,1.613,1.613,0,0,1,1.613,1.613" transform="translate(-3.208 44.968)" fill="#ffb054" fill-rule="evenodd"/>
      <path id="Path_172" data-name="Path 172" d="M17.849,48.6a1.613,1.613,0,1,1-.741-1.553,1.613,1.613,0,0,1,.741,1.553" transform="translate(10.583 44.866)" fill="#ffb054" fill-rule="evenodd"/>
      <path id="Path_173" data-name="Path 173" d="M29.253,48.493a1.591,1.591,0,0,1-1.591,1.591,1.6,1.6,0,1,1,1.591-1.591" transform="translate(24.386 44.969)" fill="#ffb054" fill-rule="evenodd"/>
      <path id="Path_174" data-name="Path 174" d="M40.663,48.493a1.591,1.591,0,0,1-1.591,1.591,1.6,1.6,0,1,1,1.591-1.591" transform="translate(38.184 44.969)" fill="#ffb054" fill-rule="evenodd"/>
      <path id="Path_175" data-name="Path 175" d="M52.083,48.493a1.613,1.613,0,0,1-1.613,1.591,1.591,1.591,0,0,1-1.591-1.591,1.6,1.6,0,1,1,3.2,0" transform="translate(51.993 44.969)" fill="#ffb054" fill-rule="evenodd"/>
      <path id="Path_176" data-name="Path 176" d="M63.493,48.493a1.613,1.613,0,0,1-1.613,1.591,1.591,1.591,0,0,1-1.591-1.591,1.6,1.6,0,1,1,3.2,0" transform="translate(65.79 44.969)" fill="#ffb054" fill-rule="evenodd"/>
      <path id="Path_177" data-name="Path 177" d="M74.9,48.493a1.613,1.613,0,0,1-1.613,1.591A1.591,1.591,0,0,1,71.7,48.493a1.6,1.6,0,1,1,3.2,0" transform="translate(79.587 44.969)" fill="#ffb054" fill-rule="evenodd"/>
      <path id="Path_178" data-name="Path 178" d="M86.319,48.6a1.613,1.613,0,1,1-.741-1.553,1.613,1.613,0,0,1,.741,1.553" transform="translate(93.379 44.866)" fill="#ffb054" fill-rule="evenodd"/>
      <path id="Path_179" data-name="Path 179" d="M97.753,48.493a1.591,1.591,0,0,1-1.591,1.591,1.6,1.6,0,1,1,1.591-1.591" transform="translate(107.218 44.969)" fill="#ffb054" fill-rule="evenodd"/>
      <path id="Path_180" data-name="Path 180" d="M109.133,48.493a1.591,1.591,0,0,1-1.591,1.591,1.6,1.6,0,1,1,1.591-1.591" transform="translate(120.979 44.969)" fill="#ffb054" fill-rule="evenodd"/>
      <path id="Path_181" data-name="Path 181" d="M120.553,48.493a1.613,1.613,0,0,1-1.613,1.591,1.591,1.591,0,0,1-1.591-1.591,1.6,1.6,0,1,1,3.2,0" transform="translate(134.788 44.969)" fill="#ffb054" fill-rule="evenodd"/>
      <path id="Path_182" data-name="Path 182" d="M131.963,48.493a1.613,1.613,0,0,1-1.613,1.591,1.591,1.591,0,0,1-1.591-1.591,1.6,1.6,0,1,1,3.2,0" transform="translate(148.585 44.969)" fill="#ffb054" fill-rule="evenodd"/>
      <path id="Path_183" data-name="Path 183" d="M143.373,48.493a1.613,1.613,0,0,1-1.613,1.591,1.591,1.591,0,0,1-1.591-1.591,1.6,1.6,0,1,1,3.2,0" transform="translate(162.383 44.969)" fill="#ffb054" fill-rule="evenodd"/>
      <path id="Path_184" data-name="Path 184" d="M154.759,48.6a1.613,1.613,0,1,1-.741-1.553,1.613,1.613,0,0,1,.741,1.553" transform="translate(176.138 44.866)" fill="#ffb054" fill-rule="evenodd"/>
      <path id="Path_185" data-name="Path 185" d="M166.193,48.493a1.591,1.591,0,0,1-1.591,1.591,1.6,1.6,0,1,1,1.591-1.591" transform="translate(189.977 44.969)" fill="#ffb054" fill-rule="evenodd"/>
      <path id="Path_186" data-name="Path 186" d="M177.6,48.493a1.591,1.591,0,0,1-1.591,1.591,1.6,1.6,0,1,1,1.591-1.591" transform="translate(203.774 44.969)" fill="#ffb054" fill-rule="evenodd"/>
      <path id="Path_187" data-name="Path 187" d="M189.023,48.493a1.613,1.613,0,0,1-1.613,1.591,1.591,1.591,0,0,1-1.591-1.591,1.6,1.6,0,1,1,3.2,0" transform="translate(217.584 44.969)" fill="#ffb054" fill-rule="evenodd"/>
      <path id="Path_188" data-name="Path 188" d="M200.433,48.493a1.613,1.613,0,0,1-1.613,1.591,1.591,1.591,0,0,1-1.591-1.591,1.6,1.6,0,1,1,3.2,0" transform="translate(231.381 44.969)" fill="#ffb054" fill-rule="evenodd"/>
      <path id="Path_189" data-name="Path 189" d="M211.843,48.493a1.613,1.613,0,0,1-1.613,1.591,1.591,1.591,0,0,1-1.591-1.591,1.6,1.6,0,1,1,3.2,0" transform="translate(245.178 44.969)" fill="#ffb054" fill-rule="evenodd"/>
      <path id="Path_190" data-name="Path 190" d="M223.265,48.493a1.613,1.613,0,1,1-1.613-1.613,1.613,1.613,0,0,1,1.613,1.613" transform="translate(258.963 44.969)" fill="#ffb054" fill-rule="evenodd"/>
      <path id="Path_191" data-name="Path 191" d="M6.445,58.883A1.613,1.613,0,1,1,4.833,57.27a1.613,1.613,0,0,1,1.613,1.613" transform="translate(-3.22 57.533)" fill="#ffb054" fill-rule="evenodd"/>
      <path id="Path_192" data-name="Path 192" d="M17.855,58.883a1.613,1.613,0,1,1-1.591-1.613,1.613,1.613,0,0,1,1.591,1.613" transform="translate(10.577 57.533)" fill="#ffb054" fill-rule="evenodd"/>
      <path id="Path_193" data-name="Path 193" d="M29.253,58.883a1.6,1.6,0,1,1-1.591-1.613,1.613,1.613,0,0,1,1.591,1.613" transform="translate(24.386 57.533)" fill="#ffb054" fill-rule="evenodd"/>
      <path id="Path_194" data-name="Path 194" d="M40.663,58.883a1.6,1.6,0,1,1-1.591-1.613,1.613,1.613,0,0,1,1.591,1.613" transform="translate(38.184 57.533)" fill="#ffb054" fill-rule="evenodd"/>
      <path id="Path_195" data-name="Path 195" d="M52.1,58.883a1.613,1.613,0,1,1-1.613-1.613A1.613,1.613,0,0,1,52.1,58.883" transform="translate(51.981 57.533)" fill="#ffb054" fill-rule="evenodd"/>
      <path id="Path_196" data-name="Path 196" d="M63.505,58.883a1.613,1.613,0,1,1-1.613-1.613,1.613,1.613,0,0,1,1.613,1.613" transform="translate(65.778 57.533)" fill="#ffb054" fill-rule="evenodd"/>
      <path id="Path_197" data-name="Path 197" d="M74.915,58.883A1.613,1.613,0,1,1,73.3,57.27a1.613,1.613,0,0,1,1.613,1.613" transform="translate(79.575 57.533)" fill="#ffb054" fill-rule="evenodd"/>
      <path id="Path_198" data-name="Path 198" d="M86.325,58.883a1.613,1.613,0,1,1-1.591-1.613,1.613,1.613,0,0,1,1.591,1.613" transform="translate(93.372 57.533)" fill="#ffb054" fill-rule="evenodd"/>
      <path id="Path_199" data-name="Path 199" d="M97.753,58.883a1.6,1.6,0,1,1-1.591-1.613,1.613,1.613,0,0,1,1.591,1.613" transform="translate(107.218 57.533)" fill="#ffb054" fill-rule="evenodd"/>
      <path id="Path_200" data-name="Path 200" d="M109.133,58.883a1.6,1.6,0,1,1-1.591-1.613,1.613,1.613,0,0,1,1.591,1.613" transform="translate(120.979 57.533)" fill="#ffb054" fill-rule="evenodd"/>
      <path id="Path_201" data-name="Path 201" d="M120.565,58.883a1.613,1.613,0,1,1-1.613-1.613,1.613,1.613,0,0,1,1.613,1.613" transform="translate(134.776 57.533)" fill="#ffb054" fill-rule="evenodd"/>
      <path id="Path_202" data-name="Path 202" d="M131.975,58.883a1.613,1.613,0,1,1-1.613-1.613,1.613,1.613,0,0,1,1.613,1.613" transform="translate(148.573 57.533)" fill="#ffb054" fill-rule="evenodd"/>
      <path id="Path_203" data-name="Path 203" d="M143.385,58.883a1.613,1.613,0,1,1-1.613-1.613,1.613,1.613,0,0,1,1.613,1.613" transform="translate(162.371 57.533)" fill="#ffb054" fill-rule="evenodd"/>
      <path id="Path_204" data-name="Path 204" d="M154.766,58.883a1.613,1.613,0,1,1-1.591-1.613,1.613,1.613,0,0,1,1.591,1.613" transform="translate(176.131 57.533)" fill="#ffb054" fill-rule="evenodd"/>
      <path id="Path_205" data-name="Path 205" d="M166.193,58.883A1.6,1.6,0,1,1,164.6,57.27a1.613,1.613,0,0,1,1.591,1.613" transform="translate(189.977 57.533)" fill="#ffb054" fill-rule="evenodd"/>
      <path id="Path_206" data-name="Path 206" d="M177.6,58.883a1.6,1.6,0,1,1-1.591-1.613,1.613,1.613,0,0,1,1.591,1.613" transform="translate(203.774 57.533)" fill="#ffb054" fill-rule="evenodd"/>
      <path id="Path_207" data-name="Path 207" d="M189.035,58.883a1.613,1.613,0,1,1-1.613-1.613,1.613,1.613,0,0,1,1.613,1.613" transform="translate(217.571 57.533)" fill="#ffb054" fill-rule="evenodd"/>
      <path id="Path_208" data-name="Path 208" d="M200.445,58.883a1.613,1.613,0,1,1-1.613-1.613,1.613,1.613,0,0,1,1.613,1.613" transform="translate(231.369 57.533)" fill="#ffb054" fill-rule="evenodd"/>
      <path id="Path_209" data-name="Path 209" d="M211.855,58.883a1.613,1.613,0,1,1-1.613-1.613,1.613,1.613,0,0,1,1.613,1.613" transform="translate(245.166 57.533)" fill="#ffb054" fill-rule="evenodd"/>
      <path id="Path_210" data-name="Path 210" d="M223.265,58.883a1.613,1.613,0,1,1-1.613-1.613,1.613,1.613,0,0,1,1.613,1.613" transform="translate(258.963 57.533)" fill="#ffb054" fill-rule="evenodd"/>
      <path id="Path_211" data-name="Path 211" d="M6.433,69.223a1.6,1.6,0,1,1-3.2,0,1.591,1.591,0,0,1,1.7-1.591,1.613,1.613,0,0,1,1.613,1.591" transform="translate(-3.208 70.058)" fill="#ffb054" fill-rule="evenodd"/>
      <path id="Path_212" data-name="Path 212" d="M17.855,69.221a1.613,1.613,0,1,1-1.591-1.591,1.591,1.591,0,0,1,1.591,1.591" transform="translate(10.577 70.06)" fill="#ffb054" fill-rule="evenodd"/>
      <path id="Path_213" data-name="Path 213" d="M29.253,69.221a1.6,1.6,0,1,1-1.591-1.591,1.591,1.591,0,0,1,1.591,1.591" transform="translate(24.387 70.06)" fill="#ffb054" fill-rule="evenodd"/>
      <path id="Path_214" data-name="Path 214" d="M40.663,69.221a1.6,1.6,0,1,1-1.591-1.591,1.591,1.591,0,0,1,1.591,1.591" transform="translate(38.184 70.06)" fill="#ffb054" fill-rule="evenodd"/>
      <path id="Path_215" data-name="Path 215" d="M52.083,69.221a1.6,1.6,0,1,1-3.2,0,1.591,1.591,0,0,1,1.591-1.591,1.613,1.613,0,0,1,1.613,1.591" transform="translate(51.993 70.06)" fill="#ffb054" fill-rule="evenodd"/>
      <path id="Path_216" data-name="Path 216" d="M63.493,69.221a1.6,1.6,0,1,1-3.2,0,1.591,1.591,0,0,1,1.591-1.591,1.613,1.613,0,0,1,1.613,1.591" transform="translate(65.79 70.06)" fill="#ffb054" fill-rule="evenodd"/>
      <path id="Path_217" data-name="Path 217" d="M74.9,69.221a1.6,1.6,0,1,1-3.2,0,1.591,1.591,0,0,1,1.591-1.591A1.613,1.613,0,0,1,74.9,69.221" transform="translate(79.587 70.06)" fill="#ffb054" fill-rule="evenodd"/>
      <path id="Path_218" data-name="Path 218" d="M86.325,69.221a1.613,1.613,0,1,1-1.591-1.591,1.591,1.591,0,0,1,1.591,1.591" transform="translate(93.373 70.06)" fill="#ffb054" fill-rule="evenodd"/>
      <path id="Path_219" data-name="Path 219" d="M97.753,69.221a1.6,1.6,0,1,1-1.591-1.591,1.591,1.591,0,0,1,1.591,1.591" transform="translate(107.218 70.06)" fill="#ffb054" fill-rule="evenodd"/>
      <path id="Path_220" data-name="Path 220" d="M109.133,69.221a1.6,1.6,0,1,1-1.591-1.591,1.591,1.591,0,0,1,1.591,1.591" transform="translate(120.979 70.06)" fill="#ffb054" fill-rule="evenodd"/>
      <path id="Path_221" data-name="Path 221" d="M120.553,69.221a1.6,1.6,0,1,1-3.2,0,1.591,1.591,0,0,1,1.591-1.591,1.613,1.613,0,0,1,1.613,1.591" transform="translate(134.788 70.06)" fill="#ffb054" fill-rule="evenodd"/>
      <path id="Path_222" data-name="Path 222" d="M131.963,69.221a1.6,1.6,0,1,1-3.2,0,1.591,1.591,0,0,1,1.591-1.591,1.613,1.613,0,0,1,1.613,1.591" transform="translate(148.585 70.06)" fill="#ffb054" fill-rule="evenodd"/>
      <path id="Path_223" data-name="Path 223" d="M143.373,69.221a1.6,1.6,0,1,1-3.2,0,1.591,1.591,0,0,1,1.591-1.591,1.613,1.613,0,0,1,1.613,1.591" transform="translate(162.383 70.06)" fill="#ffb054" fill-rule="evenodd"/>
      <path id="Path_224" data-name="Path 224" d="M154.765,69.221a1.613,1.613,0,1,1-1.591-1.591,1.591,1.591,0,0,1,1.591,1.591" transform="translate(176.132 70.06)" fill="#ffb054" fill-rule="evenodd"/>
      <path id="Path_225" data-name="Path 225" d="M166.193,69.221A1.6,1.6,0,1,1,164.6,67.63a1.591,1.591,0,0,1,1.591,1.591" transform="translate(189.977 70.06)" fill="#ffb054" fill-rule="evenodd"/>
      <path id="Path_226" data-name="Path 226" d="M177.6,69.221a1.6,1.6,0,1,1-1.591-1.591,1.591,1.591,0,0,1,1.591,1.591" transform="translate(203.774 70.06)" fill="#ffb054" fill-rule="evenodd"/>
      <path id="Path_227" data-name="Path 227" d="M189.023,69.221a1.6,1.6,0,1,1-3.2,0,1.591,1.591,0,0,1,1.591-1.591,1.613,1.613,0,0,1,1.613,1.591" transform="translate(217.584 70.06)" fill="#ffb054" fill-rule="evenodd"/>
      <path id="Path_228" data-name="Path 228" d="M200.433,69.221a1.6,1.6,0,1,1-3.2,0,1.591,1.591,0,0,1,1.591-1.591,1.613,1.613,0,0,1,1.613,1.591" transform="translate(231.381 70.06)" fill="#ffb054" fill-rule="evenodd"/>
      <path id="Path_229" data-name="Path 229" d="M211.843,69.221a1.6,1.6,0,1,1-3.2,0,1.591,1.591,0,0,1,1.591-1.591,1.613,1.613,0,0,1,1.613,1.591" transform="translate(245.178 70.06)" fill="#ffb054" fill-rule="evenodd"/>
      <path id="Path_230" data-name="Path 230" d="M223.259,69.13a1.613,1.613,0,1,1-1.6-1.424,1.613,1.613,0,0,1,1.6,1.424" transform="translate(258.969 70.151)" fill="#ffb054" fill-rule="evenodd"/>
      <path id="Path_231" data-name="Path 231" d="M6.445,79.6A1.613,1.613,0,1,1,4.833,77.99,1.613,1.613,0,0,1,6.445,79.6" transform="translate(-3.22 82.588)" fill="#ffb054" fill-rule="evenodd"/>
      <path id="Path_232" data-name="Path 232" d="M17.855,79.591A1.613,1.613,0,1,1,16.265,78a1.591,1.591,0,0,1,1.591,1.591" transform="translate(10.577 82.6)" fill="#ffb054" fill-rule="evenodd"/>
      <path id="Path_233" data-name="Path 233" d="M29.357,79.6a1.591,1.591,0,0,1-1.591,1.613,1.613,1.613,0,1,1,0-3.2A1.591,1.591,0,0,1,29.357,79.6" transform="translate(24.283 82.594)" fill="#ffb054" fill-rule="evenodd"/>
      <path id="Path_234" data-name="Path 234" d="M40.767,79.6a1.591,1.591,0,0,1-1.591,1.613,1.613,1.613,0,1,1,0-3.2A1.591,1.591,0,0,1,40.767,79.6" transform="translate(38.081 82.594)" fill="#ffb054" fill-rule="evenodd"/>
      <path id="Path_235" data-name="Path 235" d="M52.1,79.6a1.613,1.613,0,1,1-1.613-1.613A1.613,1.613,0,0,1,52.1,79.6" transform="translate(51.981 82.588)" fill="#ffb054" fill-rule="evenodd"/>
      <path id="Path_236" data-name="Path 236" d="M63.505,79.6a1.613,1.613,0,1,1-1.613-1.613A1.613,1.613,0,0,1,63.505,79.6" transform="translate(65.778 82.588)" fill="#ffb054" fill-rule="evenodd"/>
      <path id="Path_237" data-name="Path 237" d="M74.915,79.6A1.613,1.613,0,1,1,73.3,77.99,1.613,1.613,0,0,1,74.915,79.6" transform="translate(79.575 82.588)" fill="#ffb054" fill-rule="evenodd"/>
      <path id="Path_238" data-name="Path 238" d="M86.325,79.591A1.613,1.613,0,1,1,84.735,78a1.591,1.591,0,0,1,1.591,1.591" transform="translate(93.373 82.6)" fill="#ffb054" fill-rule="evenodd"/>
      <path id="Path_239" data-name="Path 239" d="M97.857,79.6a1.591,1.591,0,0,1-1.591,1.613,1.613,1.613,0,1,1,0-3.2A1.591,1.591,0,0,1,97.857,79.6" transform="translate(107.115 82.594)" fill="#ffb054" fill-rule="evenodd"/>
      <path id="Path_240" data-name="Path 240" d="M109.237,79.6a1.591,1.591,0,0,1-1.591,1.613,1.613,1.613,0,1,1,0-3.2,1.591,1.591,0,0,1,1.591,1.591" transform="translate(120.876 82.594)" fill="#ffb054" fill-rule="evenodd"/>
      <path id="Path_241" data-name="Path 241" d="M120.565,79.6a1.613,1.613,0,1,1-1.613-1.613,1.613,1.613,0,0,1,1.613,1.613" transform="translate(134.776 82.588)" fill="#ffb054" fill-rule="evenodd"/>
      <path id="Path_242" data-name="Path 242" d="M131.975,79.6a1.613,1.613,0,1,1-1.613-1.613,1.613,1.613,0,0,1,1.613,1.613" transform="translate(148.573 82.588)" fill="#ffb054" fill-rule="evenodd"/>
      <path id="Path_243" data-name="Path 243" d="M143.385,79.6a1.613,1.613,0,1,1-1.613-1.613,1.613,1.613,0,0,1,1.613,1.613" transform="translate(162.371 82.588)" fill="#ffb054" fill-rule="evenodd"/>
      <path id="Path_244" data-name="Path 244" d="M154.765,79.591A1.613,1.613,0,1,1,153.175,78a1.591,1.591,0,0,1,1.591,1.591" transform="translate(176.132 82.6)" fill="#ffb054" fill-rule="evenodd"/>
      <path id="Path_245" data-name="Path 245" d="M166.3,79.6a1.591,1.591,0,0,1-1.591,1.613,1.613,1.613,0,1,1,0-3.2A1.591,1.591,0,0,1,166.3,79.6" transform="translate(189.874 82.594)" fill="#ffb054" fill-rule="evenodd"/>
      <path id="Path_246" data-name="Path 246" d="M177.706,79.6a1.591,1.591,0,0,1-1.591,1.613,1.613,1.613,0,1,1,0-3.2,1.591,1.591,0,0,1,1.591,1.591" transform="translate(203.671 82.594)" fill="#ffb054" fill-rule="evenodd"/>
      <path id="Path_247" data-name="Path 247" d="M189.035,79.6a1.613,1.613,0,1,1-1.613-1.613,1.613,1.613,0,0,1,1.613,1.613" transform="translate(217.572 82.588)" fill="#ffb054" fill-rule="evenodd"/>
      <path id="Path_248" data-name="Path 248" d="M200.445,79.6a1.613,1.613,0,1,1-1.613-1.613,1.613,1.613,0,0,1,1.613,1.613" transform="translate(231.369 82.588)" fill="#ffb054" fill-rule="evenodd"/>
      <path id="Path_249" data-name="Path 249" d="M211.855,79.6a1.613,1.613,0,1,1-1.613-1.613,1.613,1.613,0,0,1,1.613,1.613" transform="translate(245.166 82.588)" fill="#ffb054" fill-rule="evenodd"/>
      <path id="Path_250" data-name="Path 250" d="M223.265,79.591A1.613,1.613,0,1,1,221.653,78a1.591,1.591,0,0,1,1.613,1.591" transform="translate(258.963 82.6)" fill="#ffb054" fill-rule="evenodd"/>
      <path id="Path_251" data-name="Path 251" d="M6.433,89.984a1.613,1.613,0,0,1-1.613,1.591A1.591,1.591,0,0,1,3.23,89.984a1.613,1.613,0,0,1,1.7-1.613,1.613,1.613,0,0,1,1.613,1.613" transform="translate(-3.208 95.138)" fill="#ffb054" fill-rule="evenodd"/>
      <path id="Path_252" data-name="Path 252" d="M17.849,90.086a1.613,1.613,0,1,1-.741-1.553,1.613,1.613,0,0,1,.741,1.553" transform="translate(10.583 95.036)" fill="#ffb054" fill-rule="evenodd"/>
      <path id="Path_253" data-name="Path 253" d="M29.253,89.983a1.591,1.591,0,0,1-1.591,1.591,1.6,1.6,0,1,1,1.591-1.591" transform="translate(24.386 95.14)" fill="#ffb054" fill-rule="evenodd"/>
      <path id="Path_254" data-name="Path 254" d="M40.663,89.983a1.591,1.591,0,0,1-1.591,1.591,1.6,1.6,0,1,1,1.591-1.591" transform="translate(38.184 95.14)" fill="#ffb054" fill-rule="evenodd"/>
      <path id="Path_255" data-name="Path 255" d="M52.083,89.983a1.613,1.613,0,0,1-1.613,1.591,1.591,1.591,0,0,1-1.591-1.591,1.6,1.6,0,1,1,3.2,0" transform="translate(51.993 95.14)" fill="#ffb054" fill-rule="evenodd"/>
      <path id="Path_256" data-name="Path 256" d="M63.493,89.983a1.613,1.613,0,0,1-1.613,1.591,1.591,1.591,0,0,1-1.591-1.591,1.6,1.6,0,1,1,3.2,0" transform="translate(65.79 95.14)" fill="#ffb054" fill-rule="evenodd"/>
      <path id="Path_257" data-name="Path 257" d="M74.9,89.983a1.613,1.613,0,0,1-1.613,1.591A1.591,1.591,0,0,1,71.7,89.983a1.6,1.6,0,1,1,3.2,0" transform="translate(79.587 95.14)" fill="#ffb054" fill-rule="evenodd"/>
      <path id="Path_258" data-name="Path 258" d="M86.319,90.086a1.613,1.613,0,1,1-.741-1.553,1.613,1.613,0,0,1,.741,1.553" transform="translate(93.379 95.036)" fill="#ffb054" fill-rule="evenodd"/>
      <path id="Path_259" data-name="Path 259" d="M97.753,89.983a1.591,1.591,0,0,1-1.591,1.591,1.6,1.6,0,1,1,1.591-1.591" transform="translate(107.218 95.14)" fill="#ffb054" fill-rule="evenodd"/>
      <path id="Path_260" data-name="Path 260" d="M109.133,89.983a1.591,1.591,0,0,1-1.591,1.591,1.6,1.6,0,1,1,1.591-1.591" transform="translate(120.979 95.14)" fill="#ffb054" fill-rule="evenodd"/>
      <path id="Path_261" data-name="Path 261" d="M120.553,89.983a1.613,1.613,0,0,1-1.613,1.591,1.591,1.591,0,0,1-1.591-1.591,1.6,1.6,0,1,1,3.2,0" transform="translate(134.788 95.14)" fill="#ffb054" fill-rule="evenodd"/>
      <path id="Path_262" data-name="Path 262" d="M131.963,89.983a1.613,1.613,0,0,1-1.613,1.591,1.591,1.591,0,0,1-1.591-1.591,1.6,1.6,0,1,1,3.2,0" transform="translate(148.585 95.14)" fill="#ffb054" fill-rule="evenodd"/>
      <path id="Path_263" data-name="Path 263" d="M143.373,89.983a1.613,1.613,0,0,1-1.613,1.591,1.591,1.591,0,0,1-1.591-1.591,1.6,1.6,0,1,1,3.2,0" transform="translate(162.383 95.14)" fill="#ffb054" fill-rule="evenodd"/>
      <path id="Path_264" data-name="Path 264" d="M154.759,90.086a1.613,1.613,0,1,1-.741-1.553,1.613,1.613,0,0,1,.741,1.553" transform="translate(176.138 95.036)" fill="#ffb054" fill-rule="evenodd"/>
      <path id="Path_265" data-name="Path 265" d="M166.193,89.983a1.591,1.591,0,0,1-1.591,1.591,1.6,1.6,0,1,1,1.591-1.591" transform="translate(189.977 95.14)" fill="#ffb054" fill-rule="evenodd"/>
      <path id="Path_266" data-name="Path 266" d="M177.6,89.983a1.591,1.591,0,0,1-1.591,1.591,1.6,1.6,0,1,1,1.591-1.591" transform="translate(203.774 95.14)" fill="#ffb054" fill-rule="evenodd"/>
      <path id="Path_267" data-name="Path 267" d="M189.023,89.983a1.613,1.613,0,0,1-1.613,1.591,1.591,1.591,0,0,1-1.591-1.591,1.6,1.6,0,1,1,3.2,0" transform="translate(217.584 95.14)" fill="#ffb054" fill-rule="evenodd"/>
      <path id="Path_268" data-name="Path 268" d="M200.433,89.983a1.613,1.613,0,0,1-1.613,1.591,1.591,1.591,0,0,1-1.591-1.591,1.6,1.6,0,1,1,3.2,0" transform="translate(231.381 95.14)" fill="#ffb054" fill-rule="evenodd"/>
      <path id="Path_269" data-name="Path 269" d="M211.843,89.983a1.613,1.613,0,0,1-1.613,1.591,1.591,1.591,0,0,1-1.591-1.591,1.6,1.6,0,1,1,3.2,0" transform="translate(245.178 95.14)" fill="#ffb054" fill-rule="evenodd"/>
      <path id="Path_270" data-name="Path 270" d="M223.265,89.983a1.613,1.613,0,1,1-1.613-1.613,1.613,1.613,0,0,1,1.613,1.613" transform="translate(258.963 95.14)" fill="#ffb054" fill-rule="evenodd"/>
      <path id="Path_271" data-name="Path 271" d="M6.445,100.353A1.613,1.613,0,1,1,4.833,98.74a1.613,1.613,0,0,1,1.613,1.613" transform="translate(-3.22 107.679)" fill="#ffb054" fill-rule="evenodd"/>
      <path id="Path_272" data-name="Path 272" d="M17.855,100.353a1.613,1.613,0,1,1-1.591-1.613,1.613,1.613,0,0,1,1.591,1.613" transform="translate(10.577 107.679)" fill="#ffb054" fill-rule="evenodd"/>
      <path id="Path_273" data-name="Path 273" d="M29.253,100.353a1.6,1.6,0,1,1-1.591-1.613,1.613,1.613,0,0,1,1.591,1.613" transform="translate(24.386 107.679)" fill="#ffb054" fill-rule="evenodd"/>
      <path id="Path_274" data-name="Path 274" d="M40.663,100.353a1.6,1.6,0,1,1-1.591-1.613,1.613,1.613,0,0,1,1.591,1.613" transform="translate(38.184 107.679)" fill="#ffb054" fill-rule="evenodd"/>
      <path id="Path_275" data-name="Path 275" d="M52.1,100.353a1.613,1.613,0,1,1-1.613-1.613,1.613,1.613,0,0,1,1.613,1.613" transform="translate(51.981 107.679)" fill="#ffb054" fill-rule="evenodd"/>
      <path id="Path_276" data-name="Path 276" d="M63.505,100.353a1.613,1.613,0,1,1-1.613-1.613,1.613,1.613,0,0,1,1.613,1.613" transform="translate(65.778 107.679)" fill="#ffb054" fill-rule="evenodd"/>
      <path id="Path_277" data-name="Path 277" d="M74.915,100.353A1.613,1.613,0,1,1,73.3,98.74a1.613,1.613,0,0,1,1.613,1.613" transform="translate(79.575 107.679)" fill="#ffb054" fill-rule="evenodd"/>
      <path id="Path_278" data-name="Path 278" d="M86.325,100.353a1.613,1.613,0,1,1-1.591-1.613,1.613,1.613,0,0,1,1.591,1.613" transform="translate(93.372 107.679)" fill="#ffb054" fill-rule="evenodd"/>
      <path id="Path_279" data-name="Path 279" d="M97.753,100.353a1.6,1.6,0,1,1-1.591-1.613,1.613,1.613,0,0,1,1.591,1.613" transform="translate(107.218 107.679)" fill="#ffb054" fill-rule="evenodd"/>
      <path id="Path_280" data-name="Path 280" d="M109.133,100.353a1.6,1.6,0,1,1-1.591-1.613,1.613,1.613,0,0,1,1.591,1.613" transform="translate(120.979 107.679)" fill="#ffb054" fill-rule="evenodd"/>
      <path id="Path_281" data-name="Path 281" d="M120.565,100.353a1.613,1.613,0,1,1-1.613-1.613,1.613,1.613,0,0,1,1.613,1.613" transform="translate(134.776 107.679)" fill="#ffb054" fill-rule="evenodd"/>
      <path id="Path_282" data-name="Path 282" d="M131.975,100.353a1.613,1.613,0,1,1-1.613-1.613,1.613,1.613,0,0,1,1.613,1.613" transform="translate(148.573 107.679)" fill="#ffb054" fill-rule="evenodd"/>
      <path id="Path_283" data-name="Path 283" d="M143.385,100.353a1.613,1.613,0,1,1-1.613-1.613,1.613,1.613,0,0,1,1.613,1.613" transform="translate(162.371 107.679)" fill="#ffb054" fill-rule="evenodd"/>
      <path id="Path_284" data-name="Path 284" d="M154.766,100.353a1.613,1.613,0,1,1-1.591-1.613,1.613,1.613,0,0,1,1.591,1.613" transform="translate(176.131 107.679)" fill="#ffb054" fill-rule="evenodd"/>
      <path id="Path_285" data-name="Path 285" d="M166.193,100.353A1.6,1.6,0,1,1,164.6,98.74a1.613,1.613,0,0,1,1.591,1.613" transform="translate(189.977 107.679)" fill="#ffb054" fill-rule="evenodd"/>
      <path id="Path_286" data-name="Path 286" d="M177.6,100.353a1.6,1.6,0,1,1-1.591-1.613,1.613,1.613,0,0,1,1.591,1.613" transform="translate(203.774 107.679)" fill="#ffb054" fill-rule="evenodd"/>
      <path id="Path_287" data-name="Path 287" d="M189.035,100.353a1.613,1.613,0,1,1-1.613-1.613,1.613,1.613,0,0,1,1.613,1.613" transform="translate(217.571 107.679)" fill="#ffb054" fill-rule="evenodd"/>
      <path id="Path_288" data-name="Path 288" d="M200.445,100.353a1.613,1.613,0,1,1-1.613-1.613,1.613,1.613,0,0,1,1.613,1.613" transform="translate(231.369 107.679)" fill="#ffb054" fill-rule="evenodd"/>
      <path id="Path_289" data-name="Path 289" d="M211.855,100.353a1.613,1.613,0,1,1-1.613-1.613,1.613,1.613,0,0,1,1.613,1.613" transform="translate(245.166 107.679)" fill="#ffb054" fill-rule="evenodd"/>
      <path id="Path_290" data-name="Path 290" d="M223.265,100.353a1.613,1.613,0,1,1-1.613-1.613,1.613,1.613,0,0,1,1.613,1.613" transform="translate(258.963 107.679)" fill="#ffb054" fill-rule="evenodd"/>
      <path id="Path_291" data-name="Path 291" d="M6.433,110.711a1.6,1.6,0,1,1-3.2,0,1.591,1.591,0,0,1,1.591-1.591,1.613,1.613,0,0,1,1.613,1.591" transform="translate(-3.208 120.231)" fill="#ffb054" fill-rule="evenodd"/>
      <path id="Path_292" data-name="Path 292" d="M17.855,110.711a1.613,1.613,0,1,1-1.591-1.591,1.591,1.591,0,0,1,1.591,1.591" transform="translate(10.577 120.231)" fill="#ffb054" fill-rule="evenodd"/>
      <path id="Path_293" data-name="Path 293" d="M29.253,110.711a1.6,1.6,0,1,1-1.591-1.591,1.591,1.591,0,0,1,1.591,1.591" transform="translate(24.387 120.231)" fill="#ffb054" fill-rule="evenodd"/>
      <path id="Path_294" data-name="Path 294" d="M40.663,110.711a1.6,1.6,0,1,1-1.591-1.591,1.591,1.591,0,0,1,1.591,1.591" transform="translate(38.184 120.231)" fill="#ffb054" fill-rule="evenodd"/>
      <path id="Path_295" data-name="Path 295" d="M52.083,110.711a1.6,1.6,0,1,1-3.2,0,1.591,1.591,0,0,1,1.591-1.591,1.613,1.613,0,0,1,1.613,1.591" transform="translate(51.993 120.231)" fill="#ffb054" fill-rule="evenodd"/>
      <path id="Path_296" data-name="Path 296" d="M63.493,110.711a1.6,1.6,0,1,1-3.2,0,1.591,1.591,0,0,1,1.591-1.591,1.613,1.613,0,0,1,1.613,1.591" transform="translate(65.79 120.231)" fill="#ffb054" fill-rule="evenodd"/>
      <path id="Path_297" data-name="Path 297" d="M74.9,110.711a1.6,1.6,0,1,1-3.2,0,1.591,1.591,0,0,1,1.591-1.591,1.613,1.613,0,0,1,1.613,1.591" transform="translate(79.587 120.231)" fill="#ffb054" fill-rule="evenodd"/>
      <path id="Path_298" data-name="Path 298" d="M86.325,110.711a1.613,1.613,0,1,1-1.591-1.591,1.591,1.591,0,0,1,1.591,1.591" transform="translate(93.373 120.231)" fill="#ffb054" fill-rule="evenodd"/>
      <path id="Path_299" data-name="Path 299" d="M97.753,110.711a1.6,1.6,0,1,1-1.591-1.591,1.591,1.591,0,0,1,1.591,1.591" transform="translate(107.218 120.231)" fill="#ffb054" fill-rule="evenodd"/>
      <path id="Path_300" data-name="Path 300" d="M109.133,110.711a1.6,1.6,0,1,1-1.591-1.591,1.591,1.591,0,0,1,1.591,1.591" transform="translate(120.979 120.231)" fill="#ffb054" fill-rule="evenodd"/>
      <path id="Path_301" data-name="Path 301" d="M120.553,110.711a1.6,1.6,0,1,1-3.2,0,1.591,1.591,0,0,1,1.591-1.591,1.613,1.613,0,0,1,1.613,1.591" transform="translate(134.788 120.231)" fill="#ffb054" fill-rule="evenodd"/>
      <path id="Path_302" data-name="Path 302" d="M131.963,110.711a1.6,1.6,0,1,1-3.2,0,1.591,1.591,0,0,1,1.591-1.591,1.613,1.613,0,0,1,1.613,1.591" transform="translate(148.585 120.231)" fill="#ffb054" fill-rule="evenodd"/>
      <path id="Path_303" data-name="Path 303" d="M143.373,110.711a1.6,1.6,0,1,1-3.2,0,1.591,1.591,0,0,1,1.591-1.591,1.613,1.613,0,0,1,1.613,1.591" transform="translate(162.383 120.231)" fill="#ffb054" fill-rule="evenodd"/>
      <path id="Path_304" data-name="Path 304" d="M154.765,110.711a1.613,1.613,0,1,1-1.591-1.591,1.591,1.591,0,0,1,1.591,1.591" transform="translate(176.132 120.231)" fill="#ffb054" fill-rule="evenodd"/>
      <path id="Path_305" data-name="Path 305" d="M166.193,110.711a1.6,1.6,0,1,1-1.591-1.591,1.591,1.591,0,0,1,1.591,1.591" transform="translate(189.977 120.231)" fill="#ffb054" fill-rule="evenodd"/>
      <path id="Path_306" data-name="Path 306" d="M177.6,110.711a1.6,1.6,0,1,1-1.591-1.591,1.591,1.591,0,0,1,1.591,1.591" transform="translate(203.774 120.231)" fill="#ffb054" fill-rule="evenodd"/>
      <path id="Path_307" data-name="Path 307" d="M189.023,110.711a1.6,1.6,0,1,1-3.2,0,1.591,1.591,0,0,1,1.591-1.591,1.613,1.613,0,0,1,1.613,1.591" transform="translate(217.584 120.231)" fill="#ffb054" fill-rule="evenodd"/>
      <path id="Path_308" data-name="Path 308" d="M200.433,110.711a1.6,1.6,0,1,1-3.2,0,1.591,1.591,0,0,1,1.591-1.591,1.613,1.613,0,0,1,1.613,1.591" transform="translate(231.381 120.231)" fill="#ffb054" fill-rule="evenodd"/>
      <path id="Path_309" data-name="Path 309" d="M211.843,110.711a1.6,1.6,0,1,1-3.2,0,1.591,1.591,0,0,1,1.591-1.591,1.613,1.613,0,0,1,1.613,1.591" transform="translate(245.178 120.231)" fill="#ffb054" fill-rule="evenodd"/>
      <path id="Path_310" data-name="Path 310" d="M223.259,110.62a1.613,1.613,0,1,1-1.6-1.424,1.613,1.613,0,0,1,1.6,1.424" transform="translate(258.969 120.322)" fill="#ffb054" fill-rule="evenodd"/>
      <path id="Path_311" data-name="Path 311" d="M6.445,121.093a1.613,1.613,0,1,1-1.613-1.613,1.613,1.613,0,0,1,1.613,1.613" transform="translate(-3.22 132.758)" fill="#ffb054" fill-rule="evenodd"/>
      <path id="Path_312" data-name="Path 312" d="M17.855,121.081a1.613,1.613,0,1,1-1.591-1.591,1.591,1.591,0,0,1,1.591,1.591" transform="translate(10.577 132.77)" fill="#ffb054" fill-rule="evenodd"/>
      <path id="Path_313" data-name="Path 313" d="M29.357,121.087a1.591,1.591,0,0,1-1.591,1.613,1.613,1.613,0,1,1,0-3.2,1.591,1.591,0,0,1,1.591,1.591" transform="translate(24.283 132.764)" fill="#ffb054" fill-rule="evenodd"/>
      <path id="Path_314" data-name="Path 314" d="M40.767,121.087a1.591,1.591,0,0,1-1.591,1.613,1.613,1.613,0,1,1,0-3.2,1.591,1.591,0,0,1,1.591,1.591" transform="translate(38.081 132.764)" fill="#ffb054" fill-rule="evenodd"/>
      <path id="Path_315" data-name="Path 315" d="M52.1,121.093a1.613,1.613,0,1,1-1.613-1.613,1.613,1.613,0,0,1,1.613,1.613" transform="translate(51.981 132.758)" fill="#ffb054" fill-rule="evenodd"/>
      <path id="Path_316" data-name="Path 316" d="M63.505,121.093a1.613,1.613,0,1,1-1.613-1.613,1.613,1.613,0,0,1,1.613,1.613" transform="translate(65.778 132.758)" fill="#ffb054" fill-rule="evenodd"/>
      <path id="Path_317" data-name="Path 317" d="M74.915,121.093A1.613,1.613,0,1,1,73.3,119.48a1.613,1.613,0,0,1,1.613,1.613" transform="translate(79.575 132.758)" fill="#ffb054" fill-rule="evenodd"/>
      <path id="Path_318" data-name="Path 318" d="M86.325,121.081a1.613,1.613,0,1,1-1.591-1.591,1.591,1.591,0,0,1,1.591,1.591" transform="translate(93.373 132.77)" fill="#ffb054" fill-rule="evenodd"/>
      <path id="Path_319" data-name="Path 319" d="M97.857,121.087a1.591,1.591,0,0,1-1.591,1.613,1.613,1.613,0,1,1,0-3.2,1.591,1.591,0,0,1,1.591,1.591" transform="translate(107.115 132.764)" fill="#ffb054" fill-rule="evenodd"/>
      <path id="Path_320" data-name="Path 320" d="M109.237,121.087a1.591,1.591,0,0,1-1.591,1.613,1.613,1.613,0,1,1,0-3.2,1.591,1.591,0,0,1,1.591,1.591" transform="translate(120.876 132.764)" fill="#ffb054" fill-rule="evenodd"/>
      <path id="Path_321" data-name="Path 321" d="M120.565,121.093a1.613,1.613,0,1,1-1.613-1.613,1.613,1.613,0,0,1,1.613,1.613" transform="translate(134.776 132.758)" fill="#ffb054" fill-rule="evenodd"/>
      <path id="Path_322" data-name="Path 322" d="M131.975,121.093a1.613,1.613,0,1,1-1.613-1.613,1.613,1.613,0,0,1,1.613,1.613" transform="translate(148.573 132.758)" fill="#ffb054" fill-rule="evenodd"/>
      <path id="Path_323" data-name="Path 323" d="M143.385,121.093a1.613,1.613,0,1,1-1.613-1.613,1.613,1.613,0,0,1,1.613,1.613" transform="translate(162.371 132.758)" fill="#ffb054" fill-rule="evenodd"/>
      <path id="Path_324" data-name="Path 324" d="M154.765,121.081a1.613,1.613,0,1,1-1.591-1.591,1.591,1.591,0,0,1,1.591,1.591" transform="translate(176.132 132.77)" fill="#ffb054" fill-rule="evenodd"/>
      <path id="Path_325" data-name="Path 325" d="M166.3,121.087a1.591,1.591,0,0,1-1.591,1.613,1.613,1.613,0,1,1,0-3.2,1.591,1.591,0,0,1,1.591,1.591" transform="translate(189.874 132.764)" fill="#ffb054" fill-rule="evenodd"/>
      <path id="Path_326" data-name="Path 326" d="M177.706,121.087a1.591,1.591,0,0,1-1.591,1.613,1.613,1.613,0,1,1,0-3.2,1.591,1.591,0,0,1,1.591,1.591" transform="translate(203.671 132.764)" fill="#ffb054" fill-rule="evenodd"/>
      <path id="Path_327" data-name="Path 327" d="M189.035,121.093a1.613,1.613,0,1,1-1.613-1.613,1.613,1.613,0,0,1,1.613,1.613" transform="translate(217.572 132.758)" fill="#ffb054" fill-rule="evenodd"/>
      <path id="Path_328" data-name="Path 328" d="M200.445,121.093a1.613,1.613,0,1,1-1.613-1.613,1.613,1.613,0,0,1,1.613,1.613" transform="translate(231.369 132.758)" fill="#ffb054" fill-rule="evenodd"/>
      <path id="Path_329" data-name="Path 329" d="M211.855,121.093a1.613,1.613,0,1,1-1.613-1.613,1.613,1.613,0,0,1,1.613,1.613" transform="translate(245.166 132.758)" fill="#ffb054" fill-rule="evenodd"/>
      <path id="Path_330" data-name="Path 330" d="M223.265,121.081a1.613,1.613,0,1,1-1.613-1.591,1.591,1.591,0,0,1,1.613,1.591" transform="translate(258.963 132.77)" fill="#ffb054" fill-rule="evenodd"/>
      <path id="Path_331" data-name="Path 331" d="M6.433,131.473a1.613,1.613,0,0,1-1.613,1.591,1.591,1.591,0,0,1-1.591-1.591,1.6,1.6,0,1,1,3.2,0" transform="translate(-3.208 145.31)" fill="#ffb054" fill-rule="evenodd"/>
      <path id="Path_332" data-name="Path 332" d="M17.849,131.576a1.613,1.613,0,1,1-.741-1.553,1.613,1.613,0,0,1,.741,1.553" transform="translate(10.583 145.207)" fill="#ffb054" fill-rule="evenodd"/>
      <path id="Path_333" data-name="Path 333" d="M29.253,131.473a1.591,1.591,0,0,1-1.591,1.591,1.6,1.6,0,1,1,1.591-1.591" transform="translate(24.386 145.31)" fill="#ffb054" fill-rule="evenodd"/>
      <path id="Path_334" data-name="Path 334" d="M40.663,131.473a1.591,1.591,0,0,1-1.591,1.591,1.6,1.6,0,1,1,1.591-1.591" transform="translate(38.184 145.31)" fill="#ffb054" fill-rule="evenodd"/>
      <path id="Path_335" data-name="Path 335" d="M52.083,131.473a1.613,1.613,0,0,1-1.613,1.591,1.591,1.591,0,0,1-1.591-1.591,1.6,1.6,0,1,1,3.2,0" transform="translate(51.993 145.31)" fill="#ffb054" fill-rule="evenodd"/>
      <path id="Path_336" data-name="Path 336" d="M63.493,131.473a1.613,1.613,0,0,1-1.613,1.591,1.591,1.591,0,0,1-1.591-1.591,1.6,1.6,0,1,1,3.2,0" transform="translate(65.79 145.31)" fill="#ffb054" fill-rule="evenodd"/>
      <path id="Path_337" data-name="Path 337" d="M74.9,131.473a1.613,1.613,0,0,1-1.613,1.591,1.591,1.591,0,0,1-1.591-1.591,1.6,1.6,0,1,1,3.2,0" transform="translate(79.587 145.31)" fill="#ffb054" fill-rule="evenodd"/>
      <path id="Path_338" data-name="Path 338" d="M86.319,131.576a1.613,1.613,0,1,1-.741-1.553,1.613,1.613,0,0,1,.741,1.553" transform="translate(93.379 145.207)" fill="#ffb054" fill-rule="evenodd"/>
      <path id="Path_339" data-name="Path 339" d="M97.753,131.473a1.591,1.591,0,0,1-1.591,1.591,1.6,1.6,0,1,1,1.591-1.591" transform="translate(107.218 145.31)" fill="#ffb054" fill-rule="evenodd"/>
      <path id="Path_340" data-name="Path 340" d="M109.133,131.473a1.591,1.591,0,0,1-1.591,1.591,1.6,1.6,0,1,1,1.591-1.591" transform="translate(120.979 145.31)" fill="#ffb054" fill-rule="evenodd"/>
      <path id="Path_341" data-name="Path 341" d="M120.553,131.473a1.613,1.613,0,0,1-1.613,1.591,1.591,1.591,0,0,1-1.591-1.591,1.6,1.6,0,1,1,3.2,0" transform="translate(134.788 145.31)" fill="#ffb054" fill-rule="evenodd"/>
      <path id="Path_342" data-name="Path 342" d="M131.963,131.473a1.613,1.613,0,0,1-1.613,1.591,1.591,1.591,0,0,1-1.591-1.591,1.6,1.6,0,1,1,3.2,0" transform="translate(148.585 145.31)" fill="#ffb054" fill-rule="evenodd"/>
      <path id="Path_343" data-name="Path 343" d="M143.373,131.473a1.613,1.613,0,0,1-1.613,1.591,1.591,1.591,0,0,1-1.591-1.591,1.6,1.6,0,1,1,3.2,0" transform="translate(162.383 145.31)" fill="#ffb054" fill-rule="evenodd"/>
      <path id="Path_344" data-name="Path 344" d="M154.759,131.576a1.613,1.613,0,1,1-.741-1.553,1.613,1.613,0,0,1,.741,1.553" transform="translate(176.138 145.207)" fill="#ffb054" fill-rule="evenodd"/>
      <path id="Path_345" data-name="Path 345" d="M166.193,131.473a1.591,1.591,0,0,1-1.591,1.591,1.6,1.6,0,1,1,1.591-1.591" transform="translate(189.977 145.31)" fill="#ffb054" fill-rule="evenodd"/>
      <path id="Path_346" data-name="Path 346" d="M177.6,131.473a1.591,1.591,0,0,1-1.591,1.591,1.6,1.6,0,1,1,1.591-1.591" transform="translate(203.774 145.31)" fill="#ffb054" fill-rule="evenodd"/>
      <path id="Path_347" data-name="Path 347" d="M189.023,131.473a1.613,1.613,0,0,1-1.613,1.591,1.591,1.591,0,0,1-1.591-1.591,1.6,1.6,0,1,1,3.2,0" transform="translate(217.584 145.31)" fill="#ffb054" fill-rule="evenodd"/>
      <path id="Path_348" data-name="Path 348" d="M200.433,131.473a1.613,1.613,0,0,1-1.613,1.591,1.591,1.591,0,0,1-1.591-1.591,1.6,1.6,0,1,1,3.2,0" transform="translate(231.381 145.31)" fill="#ffb054" fill-rule="evenodd"/>
      <path id="Path_349" data-name="Path 349" d="M211.843,131.473a1.613,1.613,0,0,1-1.613,1.591,1.591,1.591,0,0,1-1.591-1.591,1.6,1.6,0,1,1,3.2,0" transform="translate(245.178 145.31)" fill="#ffb054" fill-rule="evenodd"/>
      <path id="Path_350" data-name="Path 350" d="M223.265,131.473a1.613,1.613,0,1,1-1.613-1.613,1.613,1.613,0,0,1,1.613,1.613" transform="translate(258.963 145.31)" fill="#ffb054" fill-rule="evenodd"/>
      <g id="Group_129" data-name="Group 129" transform="translate(506.287 0.189)">
        <path id="Path_351" data-name="Path 351" d="M235.593,7a1.613,1.613,0,0,1-1.613,1.591A1.591,1.591,0,0,1,232.39,7a1.6,1.6,0,1,1,3.2,0" transform="translate(-232.39 -5.39)" fill="#ffb054" fill-rule="evenodd"/>
      </g>
      <g id="Group_130" data-name="Group 130" transform="translate(531.494 0.189)">
        <path id="Path_352" data-name="Path 352" d="M247,7a1.613,1.613,0,0,1-1.613,1.591A1.591,1.591,0,0,1,243.8,7,1.6,1.6,0,1,1,247,7" transform="translate(-243.8 -5.39)" fill="#ffb054" fill-rule="evenodd"/>
      </g>
      <g id="Group_131" data-name="Group 131" transform="translate(556.701 0.189)">
        <path id="Path_353" data-name="Path 353" d="M258.413,7a1.591,1.591,0,0,1-1.591,1.591A1.6,1.6,0,1,1,258.413,7" transform="translate(-255.21 -5.39)" fill="#ffb054" fill-rule="evenodd"/>
      </g>
      <g id="Group_132" data-name="Group 132" transform="translate(581.909 0.189)">
        <path id="Path_354" data-name="Path 354" d="M269.823,7a1.591,1.591,0,0,1-1.591,1.591A1.6,1.6,0,1,1,269.823,7" transform="translate(-266.62 -5.39)" fill="#ffb054" fill-rule="evenodd"/>
      </g>
      <g id="Group_133" data-name="Group 133" transform="translate(607.116 0.189)">
        <path id="Path_355" data-name="Path 355" d="M281.233,7a1.591,1.591,0,0,1-1.591,1.591A1.6,1.6,0,1,1,281.233,7" transform="translate(-278.03 -5.39)" fill="#ffb054" fill-rule="evenodd"/>
      </g>
      <path id="Path_356" data-name="Path 356" d="M235.605,17.373a1.613,1.613,0,1,1-1.613-1.613,1.613,1.613,0,0,1,1.613,1.613" transform="translate(273.885 7.338)" fill="#ffb054" fill-rule="evenodd"/>
      <path id="Path_357" data-name="Path 357" d="M247.015,17.373A1.613,1.613,0,1,1,245.4,15.76a1.613,1.613,0,0,1,1.613,1.613" transform="translate(287.682 7.338)" fill="#ffb054" fill-rule="evenodd"/>
      <path id="Path_358" data-name="Path 358" d="M258.413,17.373a1.6,1.6,0,1,1-1.591-1.613,1.613,1.613,0,0,1,1.591,1.613" transform="translate(301.491 7.338)" fill="#ffb054" fill-rule="evenodd"/>
      <path id="Path_359" data-name="Path 359" d="M269.823,17.373a1.6,1.6,0,1,1-1.591-1.613,1.613,1.613,0,0,1,1.591,1.613" transform="translate(315.288 7.338)" fill="#ffb054" fill-rule="evenodd"/>
      <path id="Path_360" data-name="Path 360" d="M281.233,17.373a1.6,1.6,0,1,1-1.591-1.613,1.613,1.613,0,0,1,1.591,1.613" transform="translate(329.086 7.338)" fill="#ffb054" fill-rule="evenodd"/>
      <path id="Path_361" data-name="Path 361" d="M235.593,27.731a1.6,1.6,0,1,1-3.2,0,1.591,1.591,0,0,1,1.591-1.591,1.613,1.613,0,0,1,1.613,1.591" transform="translate(273.897 19.89)" fill="#ffb054" fill-rule="evenodd"/>
      <path id="Path_362" data-name="Path 362" d="M247,27.731a1.6,1.6,0,1,1-3.2,0,1.591,1.591,0,0,1,1.591-1.591A1.613,1.613,0,0,1,247,27.731" transform="translate(287.694 19.89)" fill="#ffb054" fill-rule="evenodd"/>
      <path id="Path_363" data-name="Path 363" d="M258.413,27.731a1.6,1.6,0,1,1-1.591-1.591,1.591,1.591,0,0,1,1.591,1.591" transform="translate(301.491 19.89)" fill="#ffb054" fill-rule="evenodd"/>
      <path id="Path_364" data-name="Path 364" d="M269.823,27.731a1.6,1.6,0,1,1-1.591-1.591,1.591,1.591,0,0,1,1.591,1.591" transform="translate(315.288 19.89)" fill="#ffb054" fill-rule="evenodd"/>
      <path id="Path_365" data-name="Path 365" d="M281.233,27.731a1.6,1.6,0,1,1-1.591-1.591,1.591,1.591,0,0,1,1.591,1.591" transform="translate(329.086 19.89)" fill="#ffb054" fill-rule="evenodd"/>
      <path id="Path_366" data-name="Path 366" d="M235.605,38.113a1.613,1.613,0,1,1-1.613-1.613,1.613,1.613,0,0,1,1.613,1.613" transform="translate(273.885 32.417)" fill="#ffb054" fill-rule="evenodd"/>
      <path id="Path_367" data-name="Path 367" d="M247.015,38.113A1.613,1.613,0,1,1,245.4,36.5a1.613,1.613,0,0,1,1.613,1.613" transform="translate(287.682 32.417)" fill="#ffb054" fill-rule="evenodd"/>
      <path id="Path_368" data-name="Path 368" d="M258.517,38.107a1.591,1.591,0,0,1-1.591,1.613,1.613,1.613,0,1,1,0-3.2,1.591,1.591,0,0,1,1.591,1.591" transform="translate(301.388 32.423)" fill="#ffb054" fill-rule="evenodd"/>
      <path id="Path_369" data-name="Path 369" d="M269.927,38.107a1.591,1.591,0,0,1-1.591,1.613,1.613,1.613,0,1,1,0-3.2,1.591,1.591,0,0,1,1.591,1.591" transform="translate(315.185 32.423)" fill="#ffb054" fill-rule="evenodd"/>
      <path id="Path_370" data-name="Path 370" d="M281.337,38.107a1.591,1.591,0,0,1-1.591,1.613,1.613,1.613,0,1,1,0-3.2,1.591,1.591,0,0,1,1.591,1.591" transform="translate(328.983 32.423)" fill="#ffb054" fill-rule="evenodd"/>
      <path id="Path_371" data-name="Path 371" d="M235.593,48.493a1.613,1.613,0,0,1-1.613,1.591,1.591,1.591,0,0,1-1.591-1.591,1.6,1.6,0,1,1,3.2,0" transform="translate(273.897 44.969)" fill="#ffb054" fill-rule="evenodd"/>
      <path id="Path_372" data-name="Path 372" d="M247,48.493a1.613,1.613,0,0,1-1.613,1.591,1.591,1.591,0,0,1-1.591-1.591,1.6,1.6,0,1,1,3.2,0" transform="translate(287.694 44.969)" fill="#ffb054" fill-rule="evenodd"/>
      <path id="Path_373" data-name="Path 373" d="M258.413,48.493a1.591,1.591,0,0,1-1.591,1.591,1.6,1.6,0,1,1,1.591-1.591" transform="translate(301.491 44.969)" fill="#ffb054" fill-rule="evenodd"/>
      <path id="Path_374" data-name="Path 374" d="M269.823,48.493a1.591,1.591,0,0,1-1.591,1.591,1.6,1.6,0,1,1,1.591-1.591" transform="translate(315.289 44.969)" fill="#ffb054" fill-rule="evenodd"/>
      <path id="Path_375" data-name="Path 375" d="M281.233,48.493a1.591,1.591,0,0,1-1.591,1.591,1.6,1.6,0,1,1,1.591-1.591" transform="translate(329.086 44.969)" fill="#ffb054" fill-rule="evenodd"/>
      <path id="Path_376" data-name="Path 376" d="M235.605,58.883a1.613,1.613,0,1,1-1.613-1.613,1.613,1.613,0,0,1,1.613,1.613" transform="translate(273.885 57.533)" fill="#ffb054" fill-rule="evenodd"/>
      <path id="Path_377" data-name="Path 377" d="M247.016,58.883A1.613,1.613,0,1,1,245.4,57.27a1.613,1.613,0,0,1,1.613,1.613" transform="translate(287.682 57.533)" fill="#ffb054" fill-rule="evenodd"/>
      <path id="Path_378" data-name="Path 378" d="M258.413,58.883a1.6,1.6,0,1,1-1.591-1.613,1.613,1.613,0,0,1,1.591,1.613" transform="translate(301.491 57.533)" fill="#ffb054" fill-rule="evenodd"/>
      <path id="Path_379" data-name="Path 379" d="M269.823,58.883a1.6,1.6,0,1,1-1.591-1.613,1.613,1.613,0,0,1,1.591,1.613" transform="translate(315.288 57.533)" fill="#ffb054" fill-rule="evenodd"/>
      <path id="Path_380" data-name="Path 380" d="M281.233,58.883a1.6,1.6,0,1,1-1.591-1.613,1.613,1.613,0,0,1,1.591,1.613" transform="translate(329.086 57.533)" fill="#ffb054" fill-rule="evenodd"/>
      <path id="Path_381" data-name="Path 381" d="M235.593,69.221a1.6,1.6,0,1,1-3.2,0,1.591,1.591,0,0,1,1.591-1.591,1.613,1.613,0,0,1,1.613,1.591" transform="translate(273.897 70.06)" fill="#ffb054" fill-rule="evenodd"/>
      <path id="Path_382" data-name="Path 382" d="M247,69.221a1.6,1.6,0,1,1-3.2,0,1.591,1.591,0,0,1,1.591-1.591A1.613,1.613,0,0,1,247,69.221" transform="translate(287.694 70.06)" fill="#ffb054" fill-rule="evenodd"/>
      <path id="Path_383" data-name="Path 383" d="M258.413,69.221a1.6,1.6,0,1,1-1.591-1.591,1.591,1.591,0,0,1,1.591,1.591" transform="translate(301.491 70.06)" fill="#ffb054" fill-rule="evenodd"/>
      <path id="Path_384" data-name="Path 384" d="M269.823,69.221a1.6,1.6,0,1,1-1.591-1.591,1.591,1.591,0,0,1,1.591,1.591" transform="translate(315.288 70.06)" fill="#ffb054" fill-rule="evenodd"/>
      <path id="Path_385" data-name="Path 385" d="M281.233,69.221a1.6,1.6,0,1,1-1.591-1.591,1.591,1.591,0,0,1,1.591,1.591" transform="translate(329.086 70.06)" fill="#ffb054" fill-rule="evenodd"/>
      <path id="Path_386" data-name="Path 386" d="M235.605,79.6a1.613,1.613,0,1,1-1.613-1.613,1.613,1.613,0,0,1,1.613,1.613" transform="translate(273.885 82.588)" fill="#ffb054" fill-rule="evenodd"/>
      <path id="Path_387" data-name="Path 387" d="M247.015,79.6A1.613,1.613,0,1,1,245.4,77.99a1.613,1.613,0,0,1,1.613,1.613" transform="translate(287.682 82.588)" fill="#ffb054" fill-rule="evenodd"/>
      <path id="Path_388" data-name="Path 388" d="M258.517,79.6a1.591,1.591,0,0,1-1.591,1.613,1.613,1.613,0,1,1,0-3.2,1.591,1.591,0,0,1,1.591,1.591" transform="translate(301.388 82.594)" fill="#ffb054" fill-rule="evenodd"/>
      <path id="Path_389" data-name="Path 389" d="M269.927,79.6a1.591,1.591,0,0,1-1.591,1.613,1.613,1.613,0,1,1,0-3.2,1.591,1.591,0,0,1,1.591,1.591" transform="translate(315.185 82.594)" fill="#ffb054" fill-rule="evenodd"/>
      <path id="Path_390" data-name="Path 390" d="M281.337,79.6a1.591,1.591,0,0,1-1.591,1.613,1.613,1.613,0,1,1,0-3.2,1.591,1.591,0,0,1,1.591,1.591" transform="translate(328.983 82.594)" fill="#ffb054" fill-rule="evenodd"/>
      <path id="Path_391" data-name="Path 391" d="M235.593,89.983a1.613,1.613,0,0,1-1.613,1.591,1.591,1.591,0,0,1-1.591-1.591,1.6,1.6,0,1,1,3.2,0" transform="translate(273.897 95.14)" fill="#ffb054" fill-rule="evenodd"/>
      <path id="Path_392" data-name="Path 392" d="M247,89.983a1.613,1.613,0,0,1-1.613,1.591,1.591,1.591,0,0,1-1.591-1.591,1.6,1.6,0,1,1,3.2,0" transform="translate(287.694 95.14)" fill="#ffb054" fill-rule="evenodd"/>
      <path id="Path_393" data-name="Path 393" d="M258.413,89.983a1.591,1.591,0,0,1-1.591,1.591,1.6,1.6,0,1,1,1.591-1.591" transform="translate(301.491 95.14)" fill="#ffb054" fill-rule="evenodd"/>
      <path id="Path_394" data-name="Path 394" d="M269.823,89.983a1.591,1.591,0,0,1-1.591,1.591,1.6,1.6,0,1,1,1.591-1.591" transform="translate(315.289 95.14)" fill="#ffb054" fill-rule="evenodd"/>
      <path id="Path_395" data-name="Path 395" d="M281.233,89.983a1.591,1.591,0,0,1-1.591,1.591,1.6,1.6,0,1,1,1.591-1.591" transform="translate(329.086 95.14)" fill="#ffb054" fill-rule="evenodd"/>
      <path id="Path_396" data-name="Path 396" d="M235.605,100.353a1.613,1.613,0,1,1-1.613-1.613,1.613,1.613,0,0,1,1.613,1.613" transform="translate(273.885 107.679)" fill="#ffb054" fill-rule="evenodd"/>
      <path id="Path_397" data-name="Path 397" d="M247.016,100.353A1.613,1.613,0,1,1,245.4,98.74a1.613,1.613,0,0,1,1.613,1.613" transform="translate(287.682 107.679)" fill="#ffb054" fill-rule="evenodd"/>
      <path id="Path_398" data-name="Path 398" d="M258.413,100.353a1.6,1.6,0,1,1-1.591-1.613,1.613,1.613,0,0,1,1.591,1.613" transform="translate(301.491 107.679)" fill="#ffb054" fill-rule="evenodd"/>
      <path id="Path_399" data-name="Path 399" d="M269.823,100.353a1.6,1.6,0,1,1-1.591-1.613,1.613,1.613,0,0,1,1.591,1.613" transform="translate(315.288 107.679)" fill="#ffb054" fill-rule="evenodd"/>
      <path id="Path_400" data-name="Path 400" d="M281.233,100.353a1.6,1.6,0,1,1-1.591-1.613,1.613,1.613,0,0,1,1.591,1.613" transform="translate(329.086 107.679)" fill="#ffb054" fill-rule="evenodd"/>
      <path id="Path_401" data-name="Path 401" d="M235.593,110.711a1.6,1.6,0,1,1-3.2,0,1.591,1.591,0,0,1,1.591-1.591,1.613,1.613,0,0,1,1.613,1.591" transform="translate(273.897 120.231)" fill="#ffb054" fill-rule="evenodd"/>
      <path id="Path_402" data-name="Path 402" d="M247,110.711a1.6,1.6,0,1,1-3.2,0,1.591,1.591,0,0,1,1.591-1.591A1.613,1.613,0,0,1,247,110.711" transform="translate(287.694 120.231)" fill="#ffb054" fill-rule="evenodd"/>
      <path id="Path_403" data-name="Path 403" d="M258.413,110.711a1.6,1.6,0,1,1-1.591-1.591,1.591,1.591,0,0,1,1.591,1.591" transform="translate(301.491 120.231)" fill="#ffb054" fill-rule="evenodd"/>
      <path id="Path_404" data-name="Path 404" d="M269.823,110.711a1.6,1.6,0,1,1-1.591-1.591,1.591,1.591,0,0,1,1.591,1.591" transform="translate(315.288 120.231)" fill="#ffb054" fill-rule="evenodd"/>
      <path id="Path_405" data-name="Path 405" d="M281.233,110.711a1.6,1.6,0,1,1-1.591-1.591,1.591,1.591,0,0,1,1.591,1.591" transform="translate(329.086 120.231)" fill="#ffb054" fill-rule="evenodd"/>
      <path id="Path_406" data-name="Path 406" d="M235.605,121.093a1.613,1.613,0,1,1-1.613-1.613,1.613,1.613,0,0,1,1.613,1.613" transform="translate(273.885 132.758)" fill="#ffb054" fill-rule="evenodd"/>
      <path id="Path_407" data-name="Path 407" d="M247.015,121.093a1.613,1.613,0,1,1-1.613-1.613,1.613,1.613,0,0,1,1.613,1.613" transform="translate(287.682 132.758)" fill="#ffb054" fill-rule="evenodd"/>
      <path id="Path_408" data-name="Path 408" d="M258.517,121.087a1.591,1.591,0,0,1-1.591,1.613,1.613,1.613,0,1,1,0-3.2,1.591,1.591,0,0,1,1.591,1.591" transform="translate(301.388 132.764)" fill="#ffb054" fill-rule="evenodd"/>
      <path id="Path_409" data-name="Path 409" d="M269.927,121.087a1.591,1.591,0,0,1-1.591,1.613,1.613,1.613,0,1,1,0-3.2,1.591,1.591,0,0,1,1.591,1.591" transform="translate(315.185 132.764)" fill="#ffb054" fill-rule="evenodd"/>
      <path id="Path_410" data-name="Path 410" d="M281.337,121.087a1.591,1.591,0,0,1-1.591,1.613,1.613,1.613,0,1,1,0-3.2,1.591,1.591,0,0,1,1.591,1.591" transform="translate(328.983 132.764)" fill="#ffb054" fill-rule="evenodd"/>
      <path id="Path_411" data-name="Path 411" d="M235.593,131.473a1.613,1.613,0,0,1-1.613,1.591,1.591,1.591,0,0,1-1.591-1.591,1.6,1.6,0,1,1,3.2,0" transform="translate(273.897 145.31)" fill="#ffb054" fill-rule="evenodd"/>
      <path id="Path_412" data-name="Path 412" d="M247,131.473a1.613,1.613,0,0,1-1.613,1.591,1.591,1.591,0,0,1-1.591-1.591,1.6,1.6,0,1,1,3.2,0" transform="translate(287.694 145.31)" fill="#ffb054" fill-rule="evenodd"/>
      <path id="Path_413" data-name="Path 413" d="M258.413,131.473a1.591,1.591,0,0,1-1.591,1.591,1.6,1.6,0,1,1,1.591-1.591" transform="translate(301.491 145.31)" fill="#ffb054" fill-rule="evenodd"/>
      <path id="Path_414" data-name="Path 414" d="M269.823,131.473a1.591,1.591,0,0,1-1.591,1.591,1.6,1.6,0,1,1,1.591-1.591" transform="translate(315.289 145.31)" fill="#ffb054" fill-rule="evenodd"/>
      <path id="Path_415" data-name="Path 415" d="M281.233,131.473a1.591,1.591,0,0,1-1.591,1.591,1.6,1.6,0,1,1,1.591-1.591" transform="translate(329.086 145.31)" fill="#ffb054" fill-rule="evenodd"/>
      <path id="Path_440" data-name="Path 440" d="M211.855,38.113a1.613,1.613,0,1,1-1.613-1.613,1.613,1.613,0,0,1,1.613,1.613" transform="translate(220.166 32.417)" fill="#ffb054" fill-rule="evenodd"/>
    </g>
    <path id="Path_416" data-name="Path 416" d="M321.469,172.356H85.9a1.878,1.878,0,0,1-1.9-1.878V41.57H323.369V170.478a1.878,1.878,0,0,1-1.9,1.878" transform="translate(101.574 50.267)" fill="#ffdab2" fill-rule="evenodd"/>
    <g id="Group_135" data-name="Group 135" transform="translate(185.574 68.265)">
      <path id="Path_417" data-name="Path 417" d="M323.369,54.87H84V32.778A1.878,1.878,0,0,1,85.9,30.9H321.469a1.878,1.878,0,0,1,1.9,1.878Z" transform="translate(-84 -30.9)" fill="#f80" fill-rule="evenodd"/>
    </g>
    <path id="Path_418" data-name="Path 418" d="M93.513,37.826a2.474,2.474,0,1,1-.717-1.764,2.5,2.5,0,0,1,.717,1.764" transform="translate(107.04 42.722)" fill="#fff" fill-rule="evenodd"/>
    <path id="Path_419" data-name="Path 419" d="M99.143,37.826a2.474,2.474,0,1,1-.717-1.764,2.5,2.5,0,0,1,.717,1.764" transform="translate(113.848 42.722)" fill="#fff" fill-rule="evenodd"/>
    <path id="Path_420" data-name="Path 420" d="M104.783,37.826a2.5,2.5,0,1,1-2.5-2.5,2.5,2.5,0,0,1,2.5,2.5" transform="translate(120.668 42.722)" fill="#fff" fill-rule="evenodd"/>
    <path id="Path_421" data-name="Path 421" d="M115.5,73.122H101.98a1.414,1.414,0,1,1,0-2.806H115.5a1.414,1.414,0,1,1,0,2.806" transform="translate(121.394 85.014)" fill="#f80" fill-rule="evenodd"/>
    <path id="Path_422" data-name="Path 422" d="M164,73.122H150.46a1.414,1.414,0,1,1,0-2.806H164a1.414,1.414,0,0,1,0,2.806" transform="translate(180.017 85.014)" fill="#f80" fill-rule="evenodd"/>
    <path id="Path_423" data-name="Path 423" d="M131,78.816H101.884a1.392,1.392,0,0,1-1.414-1.392,1.414,1.414,0,0,1,1.414-1.414H131a1.414,1.414,0,0,1,1.392,1.414A1.392,1.392,0,0,1,131,78.816" transform="translate(121.49 91.913)" fill="#f80" fill-rule="evenodd"/>
    <path id="Path_424" data-name="Path 424" d="M181.921,78.816H118.494a1.392,1.392,0,0,1-1.414-1.392,1.414,1.414,0,0,1,1.414-1.414h63.427a1.414,1.414,0,0,1,1.392,1.414,1.392,1.392,0,0,1-1.392,1.392" transform="translate(141.575 91.913)" fill="#f80" fill-rule="evenodd"/>
    <path id="Path_425" data-name="Path 425" d="M183.263,73.122h-65.7a1.414,1.414,0,1,1,0-2.806h65.7a1.414,1.414,0,0,1,0,2.806" transform="translate(140.233 85.014)" fill="#f80" fill-rule="evenodd"/>
    <path id="Path_426" data-name="Path 426" d="M119.574,73.122H110.98a1.414,1.414,0,1,1,0-2.806h8.594a1.414,1.414,0,1,1,0,2.806" transform="translate(132.277 85.014)" fill="#f80" fill-rule="evenodd"/>
    <path id="Path_427" data-name="Path 427" d="M115.4,84.548h-13.52a1.414,1.414,0,1,1,0-2.828H115.4a1.414,1.414,0,1,1,0,2.828" transform="translate(121.49 98.817)" fill="#f80" fill-rule="evenodd"/>
    <path id="Path_428" data-name="Path 428" d="M119.478,84.548h-8.594a1.414,1.414,0,1,1,0-2.828h8.594a1.414,1.414,0,1,1,0,2.828" transform="translate(132.373 98.817)" fill="#f80" fill-rule="evenodd"/>
    <path id="Path_429" data-name="Path 429" d="M100.159,73.122H94.79a1.414,1.414,0,1,1,0-2.806h5.368a1.414,1.414,0,1,1,0,2.806" transform="translate(112.699 85.014)" fill="#f80" fill-rule="evenodd"/>
    <path id="Path_430" data-name="Path 430" d="M100.062,78.816H94.694a1.4,1.4,0,1,1,0-2.806h5.369a1.414,1.414,0,0,1,1.414,1.414,1.392,1.392,0,0,1-1.414,1.392" transform="translate(112.796 91.913)" fill="#f80" fill-rule="evenodd"/>
    <path id="Path_431" data-name="Path 431" d="M100.062,84.548H94.694a1.414,1.414,0,0,1,0-2.828h5.368a1.414,1.414,0,0,1,0,2.828" transform="translate(112.796 98.817)" fill="#f80" fill-rule="evenodd"/>
    <path id="Path_432" data-name="Path 432" d="M104.8,73.222a1.392,1.392,0,0,1-.994-.42l-9.19-9.168a1.414,1.414,0,0,1-.42-.994,1.325,1.325,0,0,1,.42-.972l9.19-9.19a1.414,1.414,0,1,1,1.988,1.988L97.58,62.64l8.218,8.2a1.37,1.37,0,0,1,0,1.966,1.348,1.348,0,0,1-.994.42" transform="translate(113.909 62.821)" fill="#f80" fill-rule="evenodd"/>
    <path id="Path_433" data-name="Path 433" d="M112.632,73.106a1.348,1.348,0,0,1-.994-.42,1.37,1.37,0,0,1,0-1.966l8.218-8.2-8.218-8.174a1.414,1.414,0,0,1,1.988-1.988l9.19,9.19a1.326,1.326,0,0,1,.42.972,1.414,1.414,0,0,1-.42.994l-9.19,9.168a1.392,1.392,0,0,1-.994.42" transform="translate(134.492 62.937)" fill="#f80" fill-rule="evenodd"/>
    <path id="Path_434" data-name="Path 434" d="M103.851,72.1a1.458,1.458,0,0,1-.729-.2,1.414,1.414,0,0,1-.486-1.922l10.317-16.989a1.4,1.4,0,0,1,2.408,1.436L105.044,71.508a1.436,1.436,0,0,1-1.193.663" transform="translate(123.875 63.255)" fill="#f80" fill-rule="evenodd"/>
    <g id="Group_136" data-name="Group 136" transform="translate(363.922 101.334)">
      <path id="Path_435" data-name="Path 435" d="M237.879,182.755H167.051a2.209,2.209,0,0,1-2.32-2.209V48.191a2.209,2.209,0,0,1,2.32-2.32h70.828a2.32,2.32,0,0,1,2.342,2.32V180.435a2.32,2.32,0,0,1-2.342,2.209" transform="translate(-164.729 -45.869)" fill="#ffb054" fill-rule="evenodd"/>
    </g>
    <g id="Group_137" data-name="Group 137" transform="translate(372.121 119.298)">
      <path id="Path_436" data-name="Path 436" d="M168.44,154.961h59.075V54H168.44Z" transform="translate(-168.44 -54)" fill="#ffdab2" fill-rule="evenodd"/>
    </g>
    <g id="Group_138" data-name="Group 138" transform="translate(396.356 224.17)">
      <path id="Path_437" data-name="Path 437" d="M190.014,106.794a5.3,5.3,0,1,1-1.545-3.763,5.3,5.3,0,0,1,1.545,3.763" transform="translate(-179.41 -101.47)" fill="#f80" fill-rule="evenodd"/>
    </g>
    <g id="Group_139" data-name="Group 139" transform="translate(394.213 109.069)">
      <path id="Path_438" data-name="Path 438" d="M192.2,51.866H179.677a1.259,1.259,0,0,1-1.237-1.259,1.237,1.237,0,0,1,1.237-1.237h12.637a1.259,1.259,0,0,1,1.259,1.237,1.281,1.281,0,0,1-1.259,1.259" transform="translate(-178.44 -49.37)" fill="#f80" fill-rule="evenodd"/>
    </g>
  </g>
</svg>
