<svg xmlns="http://www.w3.org/2000/svg" width="623" height="305" viewBox="0 0 623 305">
  <g id="Group_429" data-name="Group 429" transform="translate(-3033 3324)">
    <g id="Group_390" data-name="Group 390">
      <g id="Group_349" data-name="Group 349" transform="translate(0 -1001)">
        <g id="Group_289" data-name="Group 289" transform="translate(0 -336)">
          <g id="design-creative-desktop.109353b" transform="translate(3033 -1986.872)">
            <rect id="Rectangle_123" data-name="Rectangle 123" width="623" height="305" transform="translate(0 -0.128)" fill="#f6f2ea"/>
          </g>
        </g>
      </g>
      <g id="engineering-architecture-desktop.85b023c" transform="translate(3033 -3324.872)">
        <path id="Path_3103" data-name="Path 3103" d="M120.13,190.871h28.941V33.84H120.13Z" transform="translate(145.264 40.92)" fill="#ffdab2" fill-rule="evenodd"/>
        <path id="Path_3104" data-name="Path 3104" d="M128.91,54.033h9.544V50.94H128.91Z" transform="translate(155.881 61.598)" fill="#ffb054" fill-rule="evenodd"/>
        <path id="Path_3105" data-name="Path 3105" d="M128.91,45.263h9.544V42.17H128.91Z" transform="translate(155.881 50.993)" fill="#ffb054" fill-rule="evenodd"/>
        <path id="Path_3106" data-name="Path 3106" d="M128.91,62.8h9.544V59.71H128.91Z" transform="translate(155.881 72.203)" fill="#ffb054" fill-rule="evenodd"/>
        <path id="Path_3107" data-name="Path 3107" d="M128.91,71.585h9.544V68.47H128.91Z" transform="translate(155.881 82.795)" fill="#ffb054" fill-rule="evenodd"/>
        <path id="Path_3108" data-name="Path 3108" d="M128.91,80.333h9.544V77.24H128.91Z" transform="translate(155.881 93.4)" fill="#ffb054" fill-rule="evenodd"/>
        <path id="Path_3109" data-name="Path 3109" d="M128.91,89.1h9.544V86.01H128.91Z" transform="translate(155.881 104.005)" fill="#ffb054" fill-rule="evenodd"/>
        <path id="Path_3110" data-name="Path 3110" d="M128.91,97.873h9.544V94.78H128.91Z" transform="translate(155.881 114.61)" fill="#ffb054" fill-rule="evenodd"/>
        <path id="Path_3111" data-name="Path 3111" d="M148.037,146.753a50.017,50.017,0,0,1,0-100.033V68.37a28.366,28.366,0,1,0,0,56.733Z" transform="translate(118.528 56.495)" fill="#ffdab2" fill-rule="evenodd"/>
        <path id="Path_3112" data-name="Path 3112" d="M124.675,66.06a7.335,7.335,0,1,1-7.335,7.335,7.335,7.335,0,0,1,7.335-7.335" transform="translate(141.89 79.881)" fill="#f80" fill-rule="evenodd"/>
        <g id="Group_379" data-name="Group 379" transform="translate(319.762 225.451)">
          <path id="Path_3113" data-name="Path 3113" d="M148.363,114.952l-3.623-.906,3.027-12,3.623.906Z" transform="translate(-144.74 -102.05)" fill="#ffdab2" fill-rule="evenodd"/>
        </g>
        <g id="Group_380" data-name="Group 380" transform="translate(391.496 225.451)">
          <path id="Path_3114" data-name="Path 3114" d="M180.237,114.952l3.645-.906-3.027-12-3.645.906Z" transform="translate(-177.21 -102.05)" fill="#ffdab2" fill-rule="evenodd"/>
        </g>
        <g id="Group_381" data-name="Group 381" transform="translate(318.967 183.211)">
          <path id="Path_3115" data-name="Path 3115" d="M144.38,86.266h80.239V82.93H144.38Z" transform="translate(-144.38 -82.93)" fill="#ffdab2" fill-rule="evenodd"/>
        </g>
        <g id="Group_382" data-name="Group 382" transform="translate(319.165 121.662)">
          <path id="Path_3116" data-name="Path 3116" d="M149.706,161.422l-.619-.155a6.208,6.208,0,0,1-4.418-7.556L169.5,55.07l12.681,3.181-24.854,98.664a6.23,6.23,0,0,1-7.533,4.418" transform="translate(-144.47 -55.07)" fill="#fff" fill-rule="evenodd"/>
        </g>
        <g id="Group_383" data-name="Group 383" transform="translate(361.141 121.662)">
          <path id="Path_3117" data-name="Path 3117" d="M195.857,161.422l.6-.155a6.23,6.23,0,0,0,4.418-7.556L176.129,55.07,163.47,58.251,188.3,156.915a6.23,6.23,0,0,0,7.556,4.418" transform="translate(-163.47 -55.07)" fill="#fff" fill-rule="evenodd"/>
        </g>
        <g id="Group_384" data-name="Group 384" transform="translate(354.646 177.908)">
          <path id="Path_3118" data-name="Path 3118" d="M160.53,94.095h8.881V80.53H160.53Z" transform="translate(-160.53 -80.53)" fill="#f80" fill-rule="evenodd"/>
        </g>
        <g id="Group_385" data-name="Group 385" transform="translate(395.207 180.891)">
          <path id="Path_3119" data-name="Path 3119" d="M186.887,85.879a4,4,0,1,1-4-4,4,4,0,0,1,4,4" transform="translate(-178.89 -81.88)" fill="#ffdab2" fill-rule="evenodd"/>
        </g>
        <g id="Group_386" data-name="Group 386" transform="translate(314.969 180.891)">
          <path id="Path_3120" data-name="Path 3120" d="M150.567,85.879a4,4,0,1,1-4-4,4,4,0,0,1,4,4" transform="translate(-142.57 -81.88)" fill="#ffdab2" fill-rule="evenodd"/>
        </g>
        <g id="Group_387" data-name="Group 387" transform="translate(353.144 68.199)">
          <path id="Path_3121" data-name="Path 3121" d="M159.85,64.914h11.643V30.87H159.85Z" transform="translate(-159.85 -30.87)" fill="#ffdab2" fill-rule="evenodd"/>
        </g>
        <g id="Group_388" data-name="Group 388" transform="translate(337.26 86.955)">
          <path id="Path_3122" data-name="Path 3122" d="M196.049,61.055A21.672,21.672,0,1,1,189.7,45.708a21.694,21.694,0,0,1,6.348,15.347" transform="translate(-152.66 -39.36)" fill="#fff" fill-rule="evenodd"/>
        </g>
        <g id="Group_389" data-name="Group 389" transform="translate(348.792 98.597)">
          <path id="Path_3123" data-name="Path 3123" d="M178.028,54.682A10.074,10.074,0,1,1,167.954,44.63a10.074,10.074,0,0,1,10.074,10.052" transform="translate(-157.88 -44.63)" fill="#ffb054" fill-rule="evenodd"/>
        </g>
      </g>
    </g>
  </g>
</svg>
