<svg xmlns="http://www.w3.org/2000/svg" width="900" height="349.176" viewBox="0 0 900 349.176">
  <g id="Group_420" data-name="Group 420" transform="translate(-1873 -3909.5)">
    <g id="freelancer" transform="translate(2118 3845)">
      <g id="Group_419" data-name="Group 419" transform="translate(0 1)">
        <path id="Path_3267" data-name="Path 3267" d="M369.228,516.9a122.043,122.043,0,0,1,10.1-38.517q2.28-5.092,5.018-9.961a.744.744,0,0,0-1.284-.75A123.727,123.727,0,0,0,369.3,505.656q-1.034,5.584-1.554,11.246c-.088.952,1.4.946,1.486,0Z" transform="translate(-335.662 -168.026)" fill="#2a2a2a"/>
        <path id="Path_3268" data-name="Path 3268" d="M370.191,517.152a79.174,79.174,0,0,1,6.553-24.988q1.479-3.3,3.256-6.462a.483.483,0,0,0-.833-.487,80.27,80.27,0,0,0-8.932,24.641q-.671,3.622-1.008,7.3C369.169,517.77,370.134,517.766,370.191,517.152Z" transform="translate(-335.662 -168.026)" fill="#2a2a2a"/>
        <path id="Path_3269" data-name="Path 3269" d="M368.974,516.576a79.175,79.175,0,0,1-10.2-23.733q-.866-3.515-1.408-7.1a.483.483,0,0,0-.956.128,80.268,80.268,0,0,0,8.113,24.923q1.7,3.268,3.693,6.373c.335.522,1.093-.074.76-.593Z" transform="translate(-335.662 -168.026)" fill="#2a2a2a"/>
      </g>
      <path id="Path_3166" data-name="Path 3166" d="M689.063,372.583a122.044,122.044,0,0,1,10.1-38.517q2.279-5.092,5.018-9.961a.744.744,0,0,0-1.284-.75,123.728,123.728,0,0,0-13.768,37.982q-1.034,5.584-1.554,11.246c-.088.952,1.4.946,1.487,0Z" transform="translate(-272.5 -243.16)" fill="#e6e6e6"/>
      <circle id="Ellipse_19" data-name="Ellipse 19" cx="9.414" cy="9.414" r="9.414" transform="translate(425.868 64.5)" fill="#e6e6e6"/>
      <path id="Path_3167" data-name="Path 3167" d="M690.026,372.833a79.175,79.175,0,0,1,6.553-24.988q1.479-3.3,3.255-6.462A.483.483,0,0,0,699,340.9a80.268,80.268,0,0,0-8.932,24.641q-.671,3.622-1.008,7.3C689,373.451,689.969,373.447,690.026,372.833Z" transform="translate(-272.5 -243.16)" fill="#e6e6e6"/>
      <circle id="Ellipse_20" data-name="Ellipse 20" cx="6.108" cy="6.108" r="6.108" transform="translate(423.562 87.554)" fill="#e6e6e6"/>
      <path id="Path_3168" data-name="Path 3168" d="M688.809,372.257a79.173,79.173,0,0,1-10.2-23.733q-.866-3.515-1.408-7.1a.483.483,0,0,0-.956.128,80.266,80.266,0,0,0,8.113,24.923q1.7,3.269,3.693,6.372c.335.522,1.093-.074.76-.593Z" transform="translate(-272.5 -243.16)" fill="#e6e6e6"/>
      <circle id="Ellipse_21" data-name="Ellipse 21" cx="6.108" cy="6.108" r="6.108" transform="translate(397.627 87.126)" fill="#e6e6e6"/>
      <path id="Path_3169" data-name="Path 3169" d="M670.059,377.66v-12a4.505,4.505,0,0,1,4.5-4.5h28a4.505,4.505,0,0,1,4.5,4.5v12a4.505,4.505,0,0,1-4.5,4.5h-28a4.505,4.505,0,0,1-4.5-4.5Z" transform="translate(-272.5 -243.16)" fill="#f2f2f2"/>
      <path id="Path_3173" data-name="Path 3173" d="M777.559,382.16h-12a4.505,4.505,0,0,1-4.5-4.5v-49a4.505,4.505,0,0,1,4.5-4.5h12a4.505,4.505,0,0,1,4.5,4.5v49a4.505,4.505,0,0,1-4.5,4.5Z" transform="translate(-272.5 -243.16)" fill="#f2f2f2"/>
      <rect id="Rectangle_159" data-name="Rectangle 159" width="20" height="4" transform="translate(489.059 90.5)" fill="#ccc"/>
      <rect id="Rectangle_160" data-name="Rectangle 160" width="20" height="4" transform="translate(489.059 121.5)" fill="#ccc"/>
      <path id="Path_3174" data-name="Path 3174" d="M807.559,382.16h-12a4.505,4.505,0,0,1-4.5-4.5v-49a4.505,4.505,0,0,1,4.5-4.5h12a4.505,4.505,0,0,1,4.5,4.5v49a4.505,4.505,0,0,1-4.5,4.5Z" transform="translate(-272.5 -243.16)" fill="#f2f2f2"/>
      <rect id="Rectangle_161" data-name="Rectangle 161" width="20" height="4" transform="translate(519.059 90.5)" fill="#ccc"/>
      <rect id="Rectangle_162" data-name="Rectangle 162" width="20" height="4" transform="translate(519.059 121.5)" fill="#ccc"/>
      <path id="Path_3175" data-name="Path 3175" d="M837.559,382.16h-12a4.505,4.505,0,0,1-4.5-4.5v-49a4.505,4.505,0,0,1,4.5-4.5h12a4.505,4.505,0,0,1,4.5,4.5v49a4.505,4.505,0,0,1-4.5,4.5Z" transform="translate(-272.5 -243.16)" fill="#f2f2f2"/>
      <rect id="Rectangle_163" data-name="Rectangle 163" width="20" height="4" transform="translate(549.059 90.5)" fill="#ccc"/>
      <rect id="Rectangle_164" data-name="Rectangle 164" width="20" height="4" transform="translate(549.059 121.5)" fill="#ccc"/>
      <path id="Path_3184" data-name="Path 3184" d="M926.5,383.66h-285a1,1,0,0,1,0-2h285a1,1,0,0,1,0,2Z" transform="translate(-272.5 -243.16)" fill="#ccc"/>
      <path id="Path_3186" data-name="Path 3186" d="M854.063,453.583a122.04,122.04,0,0,1,10.1-38.517q2.28-5.092,5.018-9.961a.744.744,0,0,0-1.284-.75,123.731,123.731,0,0,0-13.768,37.982q-1.034,5.584-1.554,11.246c-.088.952,1.4.946,1.487,0Z" transform="translate(-272.5 -243.16)" fill="#e6e6e6"/>
      <circle id="Ellipse_22" data-name="Ellipse 22" cx="9.414" cy="9.414" r="9.414" transform="translate(590.868 145.5)" fill="#e6e6e6"/>
      <path id="Path_3187" data-name="Path 3187" d="M855.026,453.833a79.177,79.177,0,0,1,6.553-24.988q1.479-3.3,3.255-6.462A.483.483,0,0,0,864,421.9a80.267,80.267,0,0,0-8.932,24.641q-.67,3.622-1.008,7.3C854,454.451,854.969,454.447,855.026,453.833Z" transform="translate(-272.5 -243.16)" fill="#e6e6e6"/>
      <circle id="Ellipse_23" data-name="Ellipse 23" cx="6.108" cy="6.108" r="6.108" transform="translate(588.562 168.554)" fill="#e6e6e6"/>
      <path id="Path_3188" data-name="Path 3188" d="M853.809,453.257a79.174,79.174,0,0,1-10.2-23.733q-.866-3.515-1.408-7.1a.483.483,0,0,0-.956.128,80.268,80.268,0,0,0,8.113,24.923q1.7,3.269,3.693,6.372c.335.522,1.093-.074.76-.593Z" transform="translate(-272.5 -243.16)" fill="#e6e6e6"/>
      <circle id="Ellipse_24" data-name="Ellipse 24" cx="6.108" cy="6.108" r="6.108" transform="translate(562.627 168.125)" fill="#e6e6e6"/>
      <g id="Group_421" data-name="Group 421">
        <path id="Path_3176" data-name="Path 3176" d="M698.559,463.16h-12a4.505,4.505,0,0,1-4.5-4.5v-49a4.505,4.505,0,0,1,4.5-4.5h12a4.505,4.505,0,0,1,4.5,4.5v49a4.505,4.505,0,0,1-4.5,4.5Z" transform="translate(-272.5 -243.16)" fill="#f2f2f2"/>
        <rect id="Rectangle_165" data-name="Rectangle 165" width="20" height="4" transform="translate(410.059 171.5)" fill="#ccc"/>
        <rect id="Rectangle_166" data-name="Rectangle 166" width="20" height="4" transform="translate(410.059 202.5)" fill="#ccc"/>
        <path id="Path_3177" data-name="Path 3177" d="M728.559,463.16h-12a4.505,4.505,0,0,1-4.5-4.5v-49a4.505,4.505,0,0,1,4.5-4.5h12a4.505,4.505,0,0,1,4.5,4.5v49a4.505,4.505,0,0,1-4.5,4.5Z" transform="translate(-272.5 -243.16)" fill="#f2f2f2"/>
        <rect id="Rectangle_167" data-name="Rectangle 167" width="20" height="4" transform="translate(440.059 171.5)" fill="#ccc"/>
        <rect id="Rectangle_168" data-name="Rectangle 168" width="20" height="4" transform="translate(440.059 202.5)" fill="#ccc"/>
        <path id="Path_3178" data-name="Path 3178" d="M758.559,463.16h-12a4.505,4.505,0,0,1-4.5-4.5v-49a4.505,4.505,0,0,1,4.5-4.5h12a4.505,4.505,0,0,1,4.5,4.5v49a4.505,4.505,0,0,1-4.5,4.5Z" transform="translate(-272.5 -243.16)" fill="#f2f2f2"/>
        <rect id="Rectangle_169" data-name="Rectangle 169" width="20" height="4" transform="translate(470.059 171.5)" fill="#ccc"/>
        <rect id="Rectangle_170" data-name="Rectangle 170" width="20" height="4" transform="translate(470.059 202.5)" fill="#ccc"/>
        <path id="Path_3185" data-name="Path 3185" d="M926.5,464.66h-285a1,1,0,0,1,0-2h285a1,1,0,0,1,0,2Z" transform="translate(-272.5 -243.16)" fill="#ccc"/>
        <path id="Path_3189" data-name="Path 3189" d="M835.059,458.66v-12a4.505,4.505,0,0,1,4.5-4.5h28a4.505,4.505,0,0,1,4.5,4.5v12a4.505,4.505,0,0,1-4.5,4.5h-28A4.505,4.505,0,0,1,835.059,458.66Z" transform="translate(-272.5 -243.16)" fill="#f2f2f2"/>
      </g>
      <path id="Path_3190" data-name="Path 3190" d="M654.5,606.66h-381a1,1,0,0,1,0-2h381a1,1,0,0,1,0,2Z" transform="translate(-272.5 -243.16)" fill="#2a2a2a"/>
      <circle id="Ellipse_25" data-name="Ellipse 25" cx="27" cy="27" r="27" transform="translate(172.059 178.5)" fill="#2a2a2a"/>
      <path id="Path_3191" data-name="Path 3191" d="M173.4,378.826l-.715-12.238L219.556,358l1.056,18.064Z" fill="#ffb8b8"/>
      <path id="Path_3192" data-name="Path 3192" d="M436.622,598.163h23.644V613.05H421.735A14.887,14.887,0,0,1,436.622,598.163Z" transform="translate(747.34 -113.142) rotate(86.655)" fill="#2a2a2a"/>
      <path id="Path_3193" data-name="Path 3193" d="M193.789,378.714,186,388.185l-40.236-25.519,11.489-13.978Z" fill="#ffb8b8"/>
      <path id="Path_3194" data-name="Path 3194" d="M454.39,629.787h23.644v14.887H439.5A14.887,14.887,0,0,1,454.39,629.787Z" transform="matrix(0.635, -0.773, 0.773, 0.635, -597.32, 343.861)" fill="#2a2a2a"/>
      <path id="Path_3195" data-name="Path 3195" d="M443.887,577.83l-5.32,25.079a4,4,0,0,0,3.848,4.83l52.3.844a4,4,0,0,0,4-4.695l-4.575-25.922a4,4,0,0,0-3.939-3.3H447.8A4,4,0,0,0,443.887,577.83Z" transform="translate(-272.5 -243.16)" fill="#2f2e41"/>
      <path id="Path_3196" data-name="Path 3196" d="M452.559,586.66s-51-32-61-15c-5,8.5-2.5,16.75,1.25,22.875a34.631,34.631,0,0,0,14.4,12.891l41.348,20.234,15-16-10-9Z" transform="translate(-272.5 -243.16)" fill="#2a2a2a"/>
      <path id="Path_3197" data-name="Path 3197" d="M478.559,581.66s66-19,53,17-62,22-62,22l-5-15,17-12Z" transform="translate(-272.5 -243.16)" fill="#2a2a2a"/>
      <circle id="Ellipse_26" data-name="Ellipse 26" cx="24.561" cy="24.561" r="24.561" transform="translate(174.837 187.104)" fill="#ffcece"/>
      <path id="Path_3198" data-name="Path 3198" d="M473.185,585.629a131.994,131.994,0,0,1-30.257-3.986l-.293-.08L428.93,518.518a23.225,23.225,0,0,1,14.933-26.943,80.459,80.459,0,0,1,51.3-1.025h0A23.47,23.47,0,0,1,510.8,518.315l-15.308,63.2-.216.1C488.911,584.626,480.956,585.629,473.185,585.629Z" transform="translate(-272.5 -243.16)" fill="#ccc"/>
      <path id="Path_3199" data-name="Path 3199" d="M454.774,590.526a10.056,10.056,0,0,1,14.475-5.312l26.987-23.424,2.442,18.409-26,19.422a10.11,10.11,0,0,1-17.9-9.094Z" transform="translate(-272.5 -243.16)" fill="#ffb8b8"/>
      <path id="Path_3200" data-name="Path 3200" d="M480.512,595.636a4.532,4.532,0,0,1-1.3-.19,4.453,4.453,0,0,1-2.962-2.816L473,583.4a4.472,4.472,0,0,1,1.3-4.9l36.769-22.074-14.494-64.661.369-.089c.15-.037,15-3.417,21.086,12.81,4.261,11.365,20.031,36.077,18.919,52.776a14.885,14.885,0,0,1-12.322,13.727L483.236,594.7a4.456,4.456,0,0,1-2.724.935Z" transform="translate(-272.5 -243.16)" fill="#ccc"/>
      <path id="Path_3201" data-name="Path 3201" d="M484.636,588.333a10.056,10.056,0,0,0-14.475-5.312L443.174,559.6,440.732,578l26,19.422a10.11,10.11,0,0,0,17.9-9.094Z" transform="translate(-272.5 -243.16)" fill="#ffb8b8"/>
      <path id="Path_3202" data-name="Path 3202" d="M461.606,595.636a4.456,4.456,0,0,1-2.724-.935l-44.388-21.713a14.885,14.885,0,0,1-12.322-13.727c-1.113-16.7,17.658-43.411,21.919-54.776,6.085-16.228,20.936-12.849,21.086-12.81l.369.089-17.494,66.661L467.82,578.5a4.472,4.472,0,0,1,1.3,4.9l-3.257,9.229a4.453,4.453,0,0,1-2.962,2.816A4.534,4.534,0,0,1,461.606,595.636Z" transform="translate(-272.5 -243.16)" fill="#ccc"/>
      <path id="Path_3203" data-name="Path 3203" d="M514.559,605.66h-89a7.008,7.008,0,0,1-7-7v-49a7.008,7.008,0,0,1,7-7h89a7.008,7.008,0,0,1,7,7v49A7.008,7.008,0,0,1,514.559,605.66Z" transform="translate(-272.5 -243.16)" fill="#f80"/>
      <circle id="Ellipse_27" data-name="Ellipse 27" cx="6" cy="6" r="6" transform="translate(191.559 325)" fill="#fff"/>
      <path id="Path_3204" data-name="Path 3204" d="M447.091,453.826c-1.456-3.692.933-8.092,4.476-9.881s7.818-1.448,11.608-.27c3.185.991,6.17,2.526,9.277,3.738a20.761,20.761,0,0,0,9.753,1.737c3.314-.374,6.613-2.233,7.969-5.28,1.406-3.159.45-7.013-1.715-9.709a18.8,18.8,0,0,0-8.612-5.535c-7.307-2.574-15.748-2.65-22.532,1.092s-11.395,11.71-9.992,19.33" transform="translate(-272.5 -243.16)" fill="#2a2a2a"/>
      <circle id="Ellipse_28" data-name="Ellipse 28" cx="9.414" cy="9.414" r="9.414" transform="translate(41.967 286.896)" fill="#f80"/>
      <circle id="Ellipse_29" data-name="Ellipse 29" cx="6.108" cy="6.108" r="6.108" transform="translate(39.662 309.95)" fill="#f80"/>
      <circle id="Ellipse_30" data-name="Ellipse 30" cx="6.108" cy="6.108" r="6.108" transform="translate(13.727 309.521)" fill="#f80"/>
      <path id="Path_3208" data-name="Path 3208" d="M286.159,600.056v-12a4.505,4.505,0,0,1,4.5-4.5h28a4.505,4.505,0,0,1,4.5,4.5v12a4.505,4.505,0,0,1-4.5,4.5h-28a4.505,4.505,0,0,1-4.5-4.5Z" transform="translate(-272.5 -243.16)" fill="#f2f2f2"/>
      <path id="Path_3209" data-name="Path 3209" d="M586.909,614.061c0,6.577-5.332,9.567-11.909,9.567s-11.909-2.99-11.909-9.567,2.647-14.251,11.909-11.6C584.262,598.487,586.909,607.484,586.909,614.061Z" transform="translate(-272.5 -243.16)" fill="#f80"/>
      <path id="Path_3210" data-name="Path 3210" d="M574.42,605.537a1.9,1.9,0,0,1-1.891-1.659c-.394-3.281-2.568-9.708-3.484-12.318h0a1.7,1.7,0,0,1,.22-1.566,1.787,1.787,0,0,1,2.663-.192,1.7,1.7,0,0,1,.468,1.276c-.179,3.351,2.263,8.765,3.735,11.694a1.908,1.908,0,0,1-1.51,2.756,1.756,1.756,0,0,1-.2.011Z" transform="translate(-272.5 -243.16)" fill="#2a2a2a"/>
      <path id="Path_3211" data-name="Path 3211" d="M583.232,598.146c4.134-3.383.891-10.308-4.283-8.978a4.178,4.178,0,0,0-1.864.994c-3.174,3-3.666,10.669-3.666,10.669S579.024,601.59,583.232,598.146Z" transform="translate(-272.5 -243.16)" fill="#2a2a2a"/>
      <g id="Group_422" data-name="Group 422" transform="translate(-613 -32)">
        <path id="Path_3176-2" data-name="Path 3176" d="M698.559,463.16h-12a4.505,4.505,0,0,1-4.5-4.5v-49a4.505,4.505,0,0,1,4.5-4.5h12a4.505,4.505,0,0,1,4.5,4.5v49a4.505,4.505,0,0,1-4.5,4.5Z" transform="translate(-272.5 -243.16)" fill="#f2f2f2"/>
        <rect id="Rectangle_165-2" data-name="Rectangle 165" width="20" height="4" transform="translate(410.059 171.5)" fill="#ccc"/>
        <rect id="Rectangle_166-2" data-name="Rectangle 166" width="20" height="4" transform="translate(410.059 202.5)" fill="#ccc"/>
        <path id="Path_3177-2" data-name="Path 3177" d="M728.559,463.16h-12a4.505,4.505,0,0,1-4.5-4.5v-49a4.505,4.505,0,0,1,4.5-4.5h12a4.505,4.505,0,0,1,4.5,4.5v49a4.505,4.505,0,0,1-4.5,4.5Z" transform="translate(-272.5 -243.16)" fill="#f2f2f2"/>
        <rect id="Rectangle_167-2" data-name="Rectangle 167" width="20" height="4" transform="translate(440.059 171.5)" fill="#ccc"/>
        <rect id="Rectangle_168-2" data-name="Rectangle 168" width="20" height="4" transform="translate(440.059 202.5)" fill="#ccc"/>
        <path id="Path_3178-2" data-name="Path 3178" d="M758.559,463.16h-12a4.505,4.505,0,0,1-4.5-4.5v-49a4.505,4.505,0,0,1,4.5-4.5h12a4.505,4.505,0,0,1,4.5,4.5v49a4.505,4.505,0,0,1-4.5,4.5Z" transform="translate(-272.5 -243.16)" fill="#f2f2f2"/>
        <rect id="Rectangle_169-2" data-name="Rectangle 169" width="20" height="4" transform="translate(470.059 171.5)" fill="#ccc"/>
        <rect id="Rectangle_170-2" data-name="Rectangle 170" width="20" height="4" transform="translate(470.059 202.5)" fill="#ccc"/>
        <path id="Path_3185-2" data-name="Path 3185" d="M926.5,464.66h-285a1,1,0,0,1,0-2h285a1,1,0,0,1,0,2Z" transform="translate(-272.5 -243.16)" fill="#ccc"/>
        <path id="Path_3189-2" data-name="Path 3189" d="M835.059,458.66v-12a4.505,4.505,0,0,1,4.5-4.5h28a4.505,4.505,0,0,1,4.5,4.5v12a4.505,4.505,0,0,1-4.5,4.5h-28A4.505,4.505,0,0,1,835.059,458.66Z" transform="translate(-272.5 -243.16)" fill="#f2f2f2"/>
      </g>
    </g>
  </g>
</svg>
