<svg xmlns="http://www.w3.org/2000/svg" width="623" height="305" viewBox="0 0 623 305">
  <g id="Group_425" data-name="Group 425" transform="translate(-3033 1987)">
    <g id="design-creative-desktop.109353b" transform="translate(3033 -1986.872)">
      <rect id="Rectangle_123" data-name="Rectangle 123" width="623" height="305" transform="translate(0 -0.128)" fill="#f6f2ea"/>
    </g>
    <g id="marketing-sales-desktop.ebb7dd9" transform="translate(3033 -1986)">
      <path id="Path_1772" data-name="Path 1772" d="M152.89,86.68l6.741,42.634h19.1L171.964,86.68Z" transform="translate(185.019 104.895)" fill="#ffb054" fill-rule="evenodd"/>
      <path id="Path_1773" data-name="Path 1773" d="M122.8,86.68l-6.763,42.634h19.1l6.741-42.634Z" transform="translate(140.425 104.895)" fill="#ffb054" fill-rule="evenodd"/>
      <g id="Group_255" data-name="Group 255" transform="translate(205.278 68.293)">
        <path id="Path_1774" data-name="Path 1774" d="M301.628,161.232H93.875a1,1,0,0,1-.995-.995V31.917a1.017,1.017,0,0,1,.995-1.017H301.628a1.017,1.017,0,0,1,.995,1.017V160.238a1,1,0,0,1-.995.995" transform="translate(-92.88 -30.9)" fill="#ffb054" fill-rule="evenodd"/>
      </g>
      <g id="Group_256" data-name="Group 256" transform="translate(201.123 188.636)">
        <path id="Path_1775" data-name="Path 1775" d="M307.97,106.545H91.995a1,1,0,0,1-.995-.995V86.345a1,1,0,0,1,.995-.995H307.97a1,1,0,0,1,.995.995v19.206a.994.994,0,0,1-.995.995" transform="translate(-91 -85.35)" fill="#f80" fill-rule="evenodd"/>
      </g>
      <g id="Group_257" data-name="Group 257" transform="translate(271.273 106.22)">
        <path id="Path_1776" data-name="Path 1776" d="M122.74,100.021h15.471V48.06H122.74Z" transform="translate(-122.74 -48.06)" fill="#fff" fill-rule="evenodd"/>
      </g>
      <g id="Group_258" data-name="Group 258" transform="translate(302.37 117.314)">
        <path id="Path_1777" data-name="Path 1777" d="M136.81,93.946h15.471V53.08H136.81Z" transform="translate(-136.81 -53.08)" fill="#fff" fill-rule="evenodd"/>
      </g>
      <g id="Group_259" data-name="Group 259" transform="translate(333.467 127.083)">
        <path id="Path_1778" data-name="Path 1778" d="M150.88,88.6h15.471V57.5H150.88Z" transform="translate(-150.88 -57.5)" fill="#fff" fill-rule="evenodd"/>
      </g>
    </g>
  </g>
</svg>
