<svg xmlns="http://www.w3.org/2000/svg" width="345" height="346" viewBox="0 0 345 346">
  <g id="Layer_1" transform="translate(-0.207 0.094)">
    <g id="Group_415" data-name="Group 415" transform="translate(0 0)">
      <ellipse id="Ellipse_14" data-name="Ellipse 14" cx="172.5" cy="173" rx="172.5" ry="173" transform="translate(0.207 -0.094)" fill="#f6f2ea"/>
      <g id="Group_408" data-name="Group 408" transform="translate(18.476 249.287)">
        <path id="Path_3151" data-name="Path 3151" d="M169.667,189.727A173.365,173.365,0,0,0,324.165,93.6L14.9,94.4A173.051,173.051,0,0,0,169.667,189.727Z" transform="translate(-14.9 -93.6)" fill="#ffdab2"/>
      </g>
      <path id="Path_3152" data-name="Path 3152" d="M185.1,264.57H39.978a2.683,2.683,0,0,1-2.678-2.678V21.978A2.683,2.683,0,0,1,39.978,19.3H223.127a2.683,2.683,0,0,1,2.678,2.678V261.893a2.683,2.683,0,0,1-2.678,2.678H185.1Z" transform="translate(41.154 31.039)" fill="#fff"/>
      <g id="Group_409" data-name="Group 409" transform="translate(108.444 77.651)">
        <path id="Path_3153" data-name="Path 3153" d="M58.139,29.768v9.639c0,1.607-.268,2.678-1.339,3.481a4.268,4.268,0,0,1-3.213,1.071,5.8,5.8,0,0,1-3.749-1.339A5.3,5.3,0,0,1,48.5,38.872h3.481c0,1.339.536,1.874,1.607,1.874.8,0,1.339-.536,1.339-1.607V29.5h3.213Z" transform="translate(-48.5 -29.5)" fill="#b2b2b2"/>
        <path id="Path_3154" data-name="Path 3154" d="M63.878,30.4a8.51,8.51,0,0,1,2.678,2.678,5.978,5.978,0,0,1,.8,3.749,6.148,6.148,0,0,1-1.071,3.749,12.693,12.693,0,0,1-2.678,2.678,5.2,5.2,0,0,1-3.481.8,7.412,7.412,0,0,1-3.481-.8,8.51,8.51,0,0,1-2.678-2.678A8.716,8.716,0,0,1,52.9,36.83a6.147,6.147,0,0,1,1.071-3.749A8.51,8.51,0,0,1,56.649,30.4a5.574,5.574,0,0,1,3.481-.8A8.553,8.553,0,0,1,63.878,30.4Zm-6.426,3.481a4.873,4.873,0,0,0-1.071,2.945,3.657,3.657,0,0,0,1.071,2.945,3.1,3.1,0,0,0,2.678,1.071,3.438,3.438,0,0,0,2.678-1.071,4.873,4.873,0,0,0,1.071-2.945,3.657,3.657,0,0,0-1.071-2.945,3.1,3.1,0,0,0-2.678-1.071A3.438,3.438,0,0,0,57.452,33.884Z" transform="translate(-41.118 -29.332)" fill="#b2b2b2"/>
        <path id="Path_3155" data-name="Path 3155" d="M69.643,37.733a3.04,3.04,0,0,1,.8,2.142,3.836,3.836,0,0,1-1.339,2.945,4.544,4.544,0,0,1-3.481,1.071H59.2V29.7h6.426a5.148,5.148,0,0,1,3.213.8,3.1,3.1,0,0,1,1.071,2.678,3.04,3.04,0,0,1-.8,2.142,4.316,4.316,0,0,1-1.874,1.071A3.074,3.074,0,0,1,69.643,37.733Zm-7.23-2.41h2.142c1.071,0,1.874-.536,1.874-1.607s-.536-1.607-1.874-1.607H62.413Zm4.552,4.016a1.391,1.391,0,0,0-.536-1.071,2.045,2.045,0,0,0-1.339-.536h-2.41v3.213h2.41C66.162,40.946,66.965,40.41,66.965,39.339Z" transform="translate(-30.549 -29.164)" fill="#b2b2b2"/>
        <path id="Path_3156" data-name="Path 3156" d="M69.381,38.972v4.82H65.9V29.6h5.623a5.3,5.3,0,0,1,3.749,1.339A4.626,4.626,0,0,1,76.61,34.42a7.818,7.818,0,0,1-.536,2.41A2.831,2.831,0,0,1,74.2,38.436a7.922,7.922,0,0,1-2.678.536ZM73.13,34.42c0-1.339-.8-1.874-2.142-1.874H69.381v3.481h1.607C72.326,36.026,73.13,35.491,73.13,34.42Z" transform="translate(-19.309 -29.332)" fill="#b2b2b2"/>
        <path id="Path_3157" data-name="Path 3157" d="M81.21,30.4a8.51,8.51,0,0,1,2.678,2.678,5.977,5.977,0,0,1,.8,3.749,6.148,6.148,0,0,1-1.071,3.749,12.693,12.693,0,0,1-2.678,2.678,4.489,4.489,0,0,1-3.213.8,7.412,7.412,0,0,1-3.481-.8,8.51,8.51,0,0,1-2.678-2.678A8.716,8.716,0,0,1,70.5,36.83a6.147,6.147,0,0,1,1.071-3.749A8.51,8.51,0,0,1,74.249,30.4a5.574,5.574,0,0,1,3.481-.8A7.412,7.412,0,0,1,81.21,30.4Zm-6.159,3.481a4.873,4.873,0,0,0-1.071,2.945,3.657,3.657,0,0,0,1.071,2.945,3.1,3.1,0,0,0,2.678,1.071,3.438,3.438,0,0,0,2.678-1.071,4.873,4.873,0,0,0,1.071-2.945,3.657,3.657,0,0,0-1.071-2.945,3.883,3.883,0,0,0-5.355,0Z" transform="translate(-11.592 -29.332)" fill="#b2b2b2"/>
        <path id="Path_3158" data-name="Path 3158" d="M86.507,41.582A4.546,4.546,0,0,1,84.9,43.188a4.4,4.4,0,0,1-2.678.536,6.453,6.453,0,0,1-4.016-1.071A3.817,3.817,0,0,1,76.6,39.439h3.749a1.83,1.83,0,0,0,1.874,1.874c.536,0,.8,0,1.071-.268s.268-.536.268-1.071a.984.984,0,0,0-.268-.8c-.268-.268-.536-.536-.8-.536-.268-.268-.8-.268-1.339-.536a18.448,18.448,0,0,1-2.142-.8,3.227,3.227,0,0,1-1.339-1.339,2.885,2.885,0,0,1-.536-2.142,5.045,5.045,0,0,1,.536-2.142,4.8,4.8,0,0,1,1.874-1.339,7.922,7.922,0,0,1,2.678-.536,5.235,5.235,0,0,1,3.749,1.071,6.383,6.383,0,0,1,1.607,2.945H83.83a1.893,1.893,0,0,0-1.607-1.607,1.61,1.61,0,0,0-1.071.268c-.268.268-.8.268-.8.536a.984.984,0,0,0,.268.8c.268.268.536.536.8.536a4.524,4.524,0,0,1,1.339.536,18.449,18.449,0,0,1,2.142.8,7.1,7.1,0,0,1,1.607,1.339,2.885,2.885,0,0,1,.536,2.142C87.043,40.243,87.043,41.046,86.507,41.582Z" transform="translate(-1.359 -28.997)" fill="#b2b2b2"/>
        <path id="Path_3159" data-name="Path 3159" d="M92.078,29.6v2.678H88.33V43.524H84.849V32.278H81.1V29.6Z" transform="translate(6.19 -29.332)" fill="#b2b2b2"/>
      </g>
      <g id="Group_414" data-name="Group 414" transform="translate(108.176 150.75)">
        <g id="Group_410" data-name="Group 410">
          <path id="Path_3160" data-name="Path 3160" d="M163.744,62.355H57.978a2.678,2.678,0,0,1,0-5.355H163.744a2.53,2.53,0,0,1,2.678,2.678A2.683,2.683,0,0,1,163.744,62.355Z" transform="translate(-36.824 -56.464)" fill="#c4c4c4"/>
          <circle id="Ellipse_15" data-name="Ellipse 15" cx="3.213" cy="3.213" r="3.213" fill="#c4c4c4"/>
        </g>
        <g id="Group_411" data-name="Group 411" transform="translate(0 61.585)">
          <path id="Path_3161" data-name="Path 3161" d="M162.94,85.355H57.978a2.678,2.678,0,0,1,0-5.355H162.94a2.678,2.678,0,1,1,0,5.355Z" transform="translate(-36.824 -79.464)" fill="#c4c4c4"/>
          <circle id="Ellipse_16" data-name="Ellipse 16" cx="3.213" cy="3.213" r="3.213" fill="#c4c4c4"/>
        </g>
        <g id="Group_412" data-name="Group 412" transform="translate(0 41.235)">
          <path id="Path_3162" data-name="Path 3162" d="M162.137,77.755H57.978a2.678,2.678,0,0,1,0-5.355H162.137a2.678,2.678,0,0,1,0,5.355Z" transform="translate(-36.824 -71.864)" fill="#c4c4c4"/>
          <circle id="Ellipse_17" data-name="Ellipse 17" cx="3.213" cy="3.213" r="3.213" fill="#c4c4c4"/>
        </g>
        <g id="Group_413" data-name="Group 413" transform="translate(0 20.618)">
          <path id="Path_3163" data-name="Path 3163" d="M162.137,70.055H57.978a2.678,2.678,0,0,1,0-5.355H162.137a2.678,2.678,0,0,1,0,5.355Z" transform="translate(-36.824 -64.164)" fill="#c4c4c4"/>
          <circle id="Ellipse_18" data-name="Ellipse 18" cx="3.213" cy="3.213" r="3.213" fill="#c4c4c4"/>
        </g>
      </g>
      <rect id="Rectangle_143" data-name="Rectangle 143" width="80.596" height="24.366" transform="translate(108.176 244.467)" fill="#f80"/>
      <rect id="Rectangle_144" data-name="Rectangle 144" width="62.656" height="12.317" transform="translate(108.176 115.138)" fill="#e0e0e0"/>
    </g>
  </g>
</svg>
