<svg xmlns="http://www.w3.org/2000/svg" width="623" height="305" viewBox="0 0 623 305">
  <g id="Group_427" data-name="Group 427" transform="translate(-3033 2659)">
    <g id="Group_319" data-name="Group 319" transform="translate(0 -336)">
      <g id="Group_289" data-name="Group 289" transform="translate(0 -336)">
        <g id="design-creative-desktop.109353b" transform="translate(3033 -1986.872)">
          <rect id="Rectangle_123" data-name="Rectangle 123" width="623" height="305" transform="translate(0 -0.128)" fill="#f6f2ea"/>
        </g>
      </g>
    </g>
    <g id="customer-service-desktop.22b35df" transform="translate(3033 -2658.872)">
      <g id="Group_317" data-name="Group 317" transform="translate(243.014 68.486)">
        <path id="Path_2436" data-name="Path 2436" d="M246.972,123.147V99.486a68.486,68.486,0,0,0-136.972,0v18.955l9.478,7.644V99.574a59.069,59.069,0,1,1,118.138,0l-.011,21.1Z" transform="translate(-110 -31)" fill="#ffb054" fill-rule="evenodd"/>
      </g>
      <g id="Group_318" data-name="Group 318" transform="translate(229.759 156.059)">
        <path id="Path_2437" data-name="Path 2437" d="M124.1,128.08h-6.053c-9.212,0-14.051-12.858-14.051-28.72s5.324-28.72,14.051-28.72H124.1" transform="translate(-104 -70.64)" fill="#ffb054" fill-rule="evenodd"/>
      </g>
      <path id="Path_2438" data-name="Path 2438" d="M140.374,119.495a3.314,3.314,0,0,1,0-6.628h51.3c9.875,0,14.89-4.242,14.89-12.637V98.154a3.314,3.314,0,0,1,6.628,0v2.077c0,12.04-8.019,19.22-21.452,19.22H140.462Z" transform="translate(165.736 114.682)" fill="#f80" fill-rule="evenodd"/>
      <path id="Path_2439" data-name="Path 2439" d="M119.268,70.62H112v57.44h7.268A5.059,5.059,0,0,0,124.327,123V75.7a5.059,5.059,0,0,0-5.059-5.081" transform="translate(135.433 85.395)" fill="#ffdab2" fill-rule="evenodd"/>
      <path id="Path_2440" data-name="Path 2440" d="M169,70.62h6.075c9.212,0,14.029,12.88,14.029,28.72s-5.324,28.72-14.029,28.72H169" transform="translate(204.358 85.395)" fill="#ffb054" fill-rule="evenodd"/>
      <path id="Path_2441" data-name="Path 2441" d="M169.6,128.08h7.268V70.64H169.6a5.081,5.081,0,0,0-5.059,5.081v47.3a5.059,5.059,0,0,0,5.059,5.059" transform="translate(198.965 85.419)" fill="#ffdab2" fill-rule="evenodd"/>
      <path id="Path_2442" data-name="Path 2442" d="M154.024,115.116h-17.3a1.038,1.038,0,0,1-1.016-1.016V102.126a1.038,1.038,0,0,1,1.016-1.016h17.3a1.038,1.038,0,0,1,1.016,1.016v12a1.038,1.038,0,0,1-1.016,1.016" transform="translate(164.103 122.264)" fill="#fff" fill-rule="evenodd"/>
    </g>
  </g>
</svg>
