<svg xmlns="http://www.w3.org/2000/svg" width="623" height="305" viewBox="0 0 623 305">
  <g id="Group_424" data-name="Group 424" transform="translate(-3033 1651)">
    <g id="design-creative-desktop.109353b" transform="translate(3033 -1650.872)">
      <rect id="Rectangle_123" data-name="Rectangle 123" width="623" height="305" transform="translate(0 -0.128)" fill="#f6f2ea"/>
    </g>
    <g id="writing-desktop.1b7ea27" transform="translate(3033 -1649.872)">
      <path id="Path_1424" data-name="Path 1424" d="M109,200.773H245.972V30H109Z" transform="translate(131.805 36.277)" fill="#ffb054" fill-rule="evenodd"/>
      <path id="Path_1425" data-name="Path 1425" d="M115.86,55.907h59.163V42.21H115.86Z" transform="translate(140.1 51.041)" fill="#ffdab2" fill-rule="evenodd"/>
      <path id="Path_1426" data-name="Path 1426" d="M169.486,72.409H121.5a1.348,1.348,0,1,1,0-2.673h47.984a1.348,1.348,0,0,1,0,2.673" transform="translate(145.085 84.313)" fill="#ffdab2" fill-rule="evenodd"/>
      <path id="Path_1427" data-name="Path 1427" d="M119.709,71.442a2.055,2.055,0,1,1-2.055-2.032,2.055,2.055,0,0,1,2.055,2.032" transform="translate(139.786 83.932)" fill="#ffdab2" fill-rule="evenodd"/>
      <path id="Path_1428" data-name="Path 1428" d="M169.392,66.131H121.408a1.326,1.326,0,1,1,0-2.651h47.984a1.326,1.326,0,0,1,0,2.651" transform="translate(145.179 76.761)" fill="#ffdab2" fill-rule="evenodd"/>
      <path id="Path_1429" data-name="Path 1429" d="M119.709,65.192a2.055,2.055,0,1,1-2.055-2.032,2.054,2.054,0,0,1,2.055,2.032" transform="translate(139.786 76.374)" fill="#ffdab2" fill-rule="evenodd"/>
      <path id="Path_1430" data-name="Path 1430" d="M169.38,59.881H121.4a1.326,1.326,0,0,1,0-2.651H169.38a1.326,1.326,0,1,1,0,2.651" transform="translate(145.191 69.204)" fill="#ffdab2" fill-rule="evenodd"/>
      <path id="Path_1431" data-name="Path 1431" d="M119.709,58.955a2.055,2.055,0,1,1-2.055-2.055,2.055,2.055,0,0,1,2.055,2.055" transform="translate(139.786 68.805)" fill="#ffdab2" fill-rule="evenodd"/>
      <path id="Path_1432" data-name="Path 1432" d="M169.486,78.659H121.5a1.348,1.348,0,1,1,0-2.673h47.984a1.348,1.348,0,0,1,0,2.673" transform="translate(145.085 91.87)" fill="#ffdab2" fill-rule="evenodd"/>
      <path id="Path_1433" data-name="Path 1433" d="M119.709,77.715a2.055,2.055,0,1,1-2.055-2.055,2.055,2.055,0,0,1,2.055,2.055" transform="translate(139.786 91.49)" fill="#ffdab2" fill-rule="evenodd"/>
      <path id="Path_1434" data-name="Path 1434" d="M182.569,84.891H121.4a1.326,1.326,0,1,1,0-2.651h61.173a1.326,1.326,0,1,1,0,2.651" transform="translate(145.191 99.446)" fill="#ffdab2" fill-rule="evenodd"/>
      <path id="Path_1435" data-name="Path 1435" d="M119.709,83.965a2.055,2.055,0,1,1-2.055-2.055,2.055,2.055,0,0,1,2.055,2.055" transform="translate(139.786 99.047)" fill="#ffdab2" fill-rule="evenodd"/>
      <path id="Path_1436" data-name="Path 1436" d="M145.5,91.141H121.4a1.326,1.326,0,1,1,0-2.651h24.1a1.326,1.326,0,1,1,0,2.651" transform="translate(145.191 107.004)" fill="#ffdab2" fill-rule="evenodd"/>
      <path id="Path_1437" data-name="Path 1437" d="M119.709,90.215a2.055,2.055,0,1,1-2.055-2.055,2.055,2.055,0,0,1,2.055,2.055" transform="translate(139.786 106.605)" fill="#ffdab2" fill-rule="evenodd"/>
      <path id="Path_1438" data-name="Path 1438" d="M152.14,98.706l10.582,9.146,37.4-42.019L188.194,55.56Z" transform="translate(183.971 67.184)" fill="#f80" fill-rule="evenodd"/>
      <path id="Path_1439" data-name="Path 1439" d="M149.53,89.106,152.822,92l13.034-7.8L155.3,75.1Z" transform="translate(180.815 90.812)" fill="#f6f2ea" fill-rule="evenodd"/>
      <path id="Path_1440" data-name="Path 1440" d="M216.456,45.674l-10.6-9.124-37.4,42L180.4,88.842Z" transform="translate(203.693 44.197)" fill="#f80" fill-rule="evenodd"/>
      <path id="Path_1441" data-name="Path 1441" d="M185.36,37.864A7.073,7.073,0,0,1,196.075,47.1Z" transform="translate(224.141 42.817)" fill="#ffb054" fill-rule="evenodd"/>
      <g id="Group_226" data-name="Group 226" transform="translate(392.38 91.351)">
        <path id="Path_1442" data-name="Path 1442" d="M180.416,78.134s17.409-7.6,29.316-34.442l-2.717-2.342-4.661,5.413s-5.3,16.348-24.743,28.941Z" transform="translate(-177.61 -41.35)" fill="#f80" fill-rule="evenodd"/>
      </g>
      <g id="Group_227" data-name="Group 227" transform="translate(413.345 88.037)">
        <path id="Path_1443" data-name="Path 1443" d="M187.1,45.263l6.473,5.567,4.684-5.413-6.473-5.567Z" transform="translate(-187.1 -39.85)" fill="#f80" fill-rule="evenodd"/>
      </g>
      <path id="Path_1444" data-name="Path 1444" d="M168.28,56.278l12.04,10.383.906-1.06L169.186,55.24Z" transform="translate(203.488 66.797)" fill="#ffdab2" fill-rule="evenodd"/>
      <path id="Path_1445" data-name="Path 1445" d="M153.44,84.31l-3.314-2.85-1.1,2.96a1.326,1.326,0,0,0,1.789,1.546Z" transform="translate(180.152 98.503)" fill="#f80" fill-rule="evenodd"/>
    </g>
  </g>
</svg>
